%TF.GenerationSoftware,KiCad,Pcbnew,9.0.6*%
%TF.CreationDate,2025-12-11T13:58:46+01:00*%
%TF.ProjectId,saturation_meter,73617475-7261-4746-996f-6e5f6d657465,1.0.0*%
%TF.SameCoordinates,Original*%
%TF.FileFunction,Soldermask,Bot*%
%TF.FilePolarity,Negative*%
%FSLAX46Y46*%
G04 Gerber Fmt 4.6, Leading zero omitted, Abs format (unit mm)*
G04 Created by KiCad (PCBNEW 9.0.6) date 2025-12-11 13:58:46*
%MOMM*%
%LPD*%
G01*
G04 APERTURE LIST*
G04 Aperture macros list*
%AMRoundRect*
0 Rectangle with rounded corners*
0 $1 Rounding radius*
0 $2 $3 $4 $5 $6 $7 $8 $9 X,Y pos of 4 corners*
0 Add a 4 corners polygon primitive as box body*
4,1,4,$2,$3,$4,$5,$6,$7,$8,$9,$2,$3,0*
0 Add four circle primitives for the rounded corners*
1,1,$1+$1,$2,$3*
1,1,$1+$1,$4,$5*
1,1,$1+$1,$6,$7*
1,1,$1+$1,$8,$9*
0 Add four rect primitives between the rounded corners*
20,1,$1+$1,$2,$3,$4,$5,0*
20,1,$1+$1,$4,$5,$6,$7,0*
20,1,$1+$1,$6,$7,$8,$9,0*
20,1,$1+$1,$8,$9,$2,$3,0*%
G04 Aperture macros list end*
%ADD10C,1.600000*%
%ADD11RoundRect,0.250000X-0.550000X0.550000X-0.550000X-0.550000X0.550000X-0.550000X0.550000X0.550000X0*%
%ADD12C,2.400000*%
%ADD13C,10.160000*%
%ADD14C,3.200000*%
%ADD15R,1.800000X1.800000*%
%ADD16C,1.800000*%
%ADD17R,1.500000X1.050000*%
%ADD18O,1.500000X1.050000*%
%ADD19R,1.905000X2.000000*%
%ADD20O,1.905000X2.000000*%
%ADD21RoundRect,0.250000X1.750000X-1.750000X1.750000X1.750000X-1.750000X1.750000X-1.750000X-1.750000X0*%
%ADD22C,4.000000*%
%ADD23RoundRect,0.250000X0.550000X0.550000X-0.550000X0.550000X-0.550000X-0.550000X0.550000X-0.550000X0*%
%ADD24R,1.700000X1.700000*%
%ADD25C,1.700000*%
%ADD26C,1.400000*%
%ADD27RoundRect,0.250001X-1.149999X1.149999X-1.149999X-1.149999X1.149999X-1.149999X1.149999X1.149999X0*%
%ADD28C,2.800000*%
%ADD29RoundRect,0.250000X1.350000X-1.350000X1.350000X1.350000X-1.350000X1.350000X-1.350000X-1.350000X0*%
%ADD30C,2.500000*%
%ADD31C,2.000000*%
%ADD32RoundRect,0.250000X-1.350000X1.350000X-1.350000X-1.350000X1.350000X-1.350000X1.350000X1.350000X0*%
%ADD33RoundRect,0.249999X-0.850001X0.850001X-0.850001X-0.850001X0.850001X-0.850001X0.850001X0.850001X0*%
%ADD34C,2.200000*%
%ADD35R,2.000000X1.905000*%
%ADD36O,2.000000X1.905000*%
G04 APERTURE END LIST*
D10*
%TO.C,C8*%
X91620000Y-108000000D03*
X86620000Y-108000000D03*
%TD*%
D11*
%TO.C,C12*%
X118160000Y-117950000D03*
D10*
X118160000Y-120450000D03*
%TD*%
%TO.C,C10*%
X179120000Y-132500000D03*
X184120000Y-132500000D03*
%TD*%
%TO.C,R4*%
X152620000Y-131080000D03*
X152620000Y-120920000D03*
%TD*%
%TO.C,C11*%
X101620000Y-111500000D03*
X101620000Y-116500000D03*
%TD*%
D12*
%TO.C,R1*%
X107120000Y-99660000D03*
X107120000Y-79340000D03*
%TD*%
D13*
%TO.C,J2*%
X132620000Y-93500000D03*
X162590000Y-93500000D03*
%TD*%
D10*
%TO.C,C6*%
X156120000Y-133500000D03*
X156120000Y-138500000D03*
%TD*%
D14*
%TO.C,H1*%
X82620000Y-42000000D03*
%TD*%
D10*
%TO.C,C7*%
X179120000Y-125500000D03*
X184120000Y-125500000D03*
%TD*%
%TO.C,R19*%
X108820000Y-141530000D03*
X98660000Y-141530000D03*
%TD*%
%TO.C,REF\u002A\u002A*%
X179240000Y-116000000D03*
X164000000Y-116000000D03*
%TD*%
%TO.C,R5*%
X143620000Y-143660000D03*
X143620000Y-133500000D03*
%TD*%
%TO.C,R2*%
X112120000Y-104580000D03*
X112120000Y-94420000D03*
%TD*%
%TO.C,R3*%
X143620000Y-131080000D03*
X143620000Y-120920000D03*
%TD*%
D15*
%TO.C,D6*%
X94580000Y-87500000D03*
D16*
X97120000Y-87500000D03*
%TD*%
D10*
%TO.C,R11*%
X97120000Y-75500000D03*
X107280000Y-75500000D03*
%TD*%
D14*
%TO.C,H3*%
X82620000Y-145000000D03*
%TD*%
D10*
%TO.C,R10*%
X179120000Y-129000000D03*
X189280000Y-129000000D03*
%TD*%
%TO.C,R6*%
X152620000Y-143580000D03*
X152620000Y-133420000D03*
%TD*%
D17*
%TO.C,Q3*%
X95260000Y-95730000D03*
D18*
X95260000Y-97000000D03*
X95260000Y-98270000D03*
%TD*%
D19*
%TO.C,U1*%
X95580000Y-108450000D03*
D20*
X98120000Y-108450000D03*
X100660000Y-108450000D03*
%TD*%
D10*
%TO.C,REF\u002A\u002A*%
X179240000Y-119000000D03*
X164000000Y-119000000D03*
%TD*%
D21*
%TO.C,C4*%
X198620000Y-61017935D03*
D22*
X198620000Y-51017935D03*
%TD*%
D21*
%TO.C,C1*%
X97620000Y-61000000D03*
D22*
X97620000Y-51000000D03*
%TD*%
D15*
%TO.C,D5*%
X94620000Y-81000000D03*
D16*
X97160000Y-81000000D03*
%TD*%
D10*
%TO.C,R12*%
X102120000Y-97000000D03*
X102120000Y-86840000D03*
%TD*%
%TO.C,R13*%
X95660000Y-130530000D03*
X95660000Y-120370000D03*
%TD*%
%TO.C,REF\u002A\u002A*%
X130620000Y-116120000D03*
X130620000Y-100880000D03*
%TD*%
D23*
%TO.C,U2*%
X112660000Y-130570000D03*
D10*
X112660000Y-128030000D03*
X112660000Y-125490000D03*
X112660000Y-122950000D03*
X112660000Y-120410000D03*
X112660000Y-117870000D03*
X112660000Y-115330000D03*
X105040000Y-115330000D03*
X105040000Y-117870000D03*
X105040000Y-120410000D03*
X105040000Y-122950000D03*
X105040000Y-125490000D03*
X105040000Y-128030000D03*
X105040000Y-130570000D03*
%TD*%
D24*
%TO.C,J3*%
X91120000Y-138960000D03*
D25*
X91120000Y-141500000D03*
X91120000Y-144040000D03*
%TD*%
D24*
%TO.C,J5*%
X90120000Y-114000000D03*
D25*
X90120000Y-111460000D03*
%TD*%
D10*
%TO.C,REF\u002A\u002A*%
X156620000Y-116120000D03*
X156620000Y-100880000D03*
%TD*%
D14*
%TO.C,H5*%
X147620000Y-80000000D03*
%TD*%
D21*
%TO.C,C3*%
X165620000Y-61000000D03*
D22*
X165620000Y-51000000D03*
%TD*%
D10*
%TO.C,R17*%
X105740000Y-138530000D03*
X95580000Y-138530000D03*
%TD*%
D26*
%TO.C,REF\u002A\u002A*%
X91620000Y-105500000D03*
X91620000Y-100420000D03*
%TD*%
D27*
%TO.C,J1*%
X84152500Y-73750000D03*
D28*
X84152500Y-78750000D03*
%TD*%
D19*
%TO.C,Q2*%
X184120000Y-98000000D03*
D20*
X186660000Y-98000000D03*
X189200000Y-98000000D03*
%TD*%
D29*
%TO.C,D1*%
X84620000Y-99620000D03*
D14*
X84620000Y-84380000D03*
%TD*%
D30*
%TO.C,R9*%
X191738000Y-114906000D03*
D31*
X189706000Y-117192000D03*
X210534000Y-117192000D03*
D30*
X208502000Y-114906000D03*
%TD*%
D11*
%TO.C,C13*%
X118160000Y-125450000D03*
D10*
X118160000Y-127950000D03*
%TD*%
%TO.C,REF\u002A\u002A*%
X175620000Y-134500000D03*
X160380000Y-134500000D03*
%TD*%
D26*
%TO.C,REF\u002A\u002A*%
X110660000Y-112500000D03*
X105580000Y-112500000D03*
%TD*%
D10*
%TO.C,R14*%
X89040000Y-92500000D03*
X99200000Y-92500000D03*
%TD*%
%TO.C,REF\u002A\u002A*%
X138620000Y-116120000D03*
X138620000Y-100880000D03*
%TD*%
%TO.C,R18*%
X111820000Y-144530000D03*
X101660000Y-144530000D03*
%TD*%
D32*
%TO.C,D2*%
X187620000Y-75880000D03*
D14*
X187620000Y-91120000D03*
%TD*%
D33*
%TO.C,D4*%
X125120000Y-113340000D03*
D34*
X125120000Y-123500000D03*
%TD*%
D10*
%TO.C,R15*%
X101660000Y-135610000D03*
X101660000Y-125450000D03*
%TD*%
%TO.C,C5*%
X140120000Y-133500000D03*
X140120000Y-138500000D03*
%TD*%
D35*
%TO.C,Q1*%
X115120000Y-90000000D03*
D36*
X115120000Y-87460000D03*
X115120000Y-84920000D03*
%TD*%
D14*
%TO.C,H4*%
X212620000Y-145000000D03*
%TD*%
%TO.C,H2*%
X212620000Y-42000000D03*
%TD*%
D10*
%TO.C,R16*%
X98660000Y-133190000D03*
X98660000Y-123030000D03*
%TD*%
%TO.C,REF\u002A\u002A*%
X139740000Y-130500000D03*
X124500000Y-130500000D03*
%TD*%
D11*
%TO.C,C9*%
X96120000Y-112500000D03*
D10*
X96120000Y-115000000D03*
%TD*%
D24*
%TO.C,J4*%
X148120000Y-131690000D03*
D25*
X148120000Y-134230000D03*
X148120000Y-136770000D03*
X148120000Y-139310000D03*
%TD*%
D29*
%TO.C,D3*%
X115120000Y-78500000D03*
D14*
X115120000Y-63260000D03*
%TD*%
D10*
%TO.C,REF\u002A\u002A*%
X139740000Y-127500000D03*
X124500000Y-127500000D03*
%TD*%
%TO.C,R8*%
X179040000Y-122000000D03*
X189200000Y-122000000D03*
%TD*%
%TO.C,REF\u002A\u002A*%
X175620000Y-137500000D03*
X160380000Y-137500000D03*
%TD*%
%TO.C,R7*%
X160120000Y-130080000D03*
X160120000Y-119920000D03*
%TD*%
D21*
%TO.C,C2*%
X132620000Y-61000000D03*
D22*
X132620000Y-51000000D03*
%TD*%
M02*
