%TF.GenerationSoftware,KiCad,Pcbnew,9.0.6*%
%TF.CreationDate,2025-12-14T21:15:15+01:00*%
%TF.ProjectId,saturation_meter,73617475-7261-4746-996f-6e5f6d657465,1.1.0*%
%TF.SameCoordinates,Original*%
%TF.FileFunction,Soldermask,Bot*%
%TF.FilePolarity,Negative*%
%FSLAX46Y46*%
G04 Gerber Fmt 4.6, Leading zero omitted, Abs format (unit mm)*
G04 Created by KiCad (PCBNEW 9.0.6) date 2025-12-14 21:15:15*
%MOMM*%
%LPD*%
G01*
G04 APERTURE LIST*
G04 Aperture macros list*
%AMRoundRect*
0 Rectangle with rounded corners*
0 $1 Rounding radius*
0 $2 $3 $4 $5 $6 $7 $8 $9 X,Y pos of 4 corners*
0 Add a 4 corners polygon primitive as box body*
4,1,4,$2,$3,$4,$5,$6,$7,$8,$9,$2,$3,0*
0 Add four circle primitives for the rounded corners*
1,1,$1+$1,$2,$3*
1,1,$1+$1,$4,$5*
1,1,$1+$1,$6,$7*
1,1,$1+$1,$8,$9*
0 Add four rect primitives between the rounded corners*
20,1,$1+$1,$2,$3,$4,$5,0*
20,1,$1+$1,$4,$5,$6,$7,0*
20,1,$1+$1,$6,$7,$8,$9,0*
20,1,$1+$1,$8,$9,$2,$3,0*%
G04 Aperture macros list end*
%ADD10C,1.600000*%
%ADD11RoundRect,0.250000X-0.550000X0.550000X-0.550000X-0.550000X0.550000X-0.550000X0.550000X0.550000X0*%
%ADD12C,3.000000*%
%ADD13RoundRect,0.249999X-0.850001X0.850001X-0.850001X-0.850001X0.850001X-0.850001X0.850001X0.850001X0*%
%ADD14C,2.200000*%
%ADD15C,2.400000*%
%ADD16C,10.160000*%
%ADD17C,1.400000*%
%ADD18C,3.200000*%
%ADD19R,1.800000X1.800000*%
%ADD20C,1.800000*%
%ADD21R,1.500000X1.050000*%
%ADD22O,1.500000X1.050000*%
%ADD23R,1.905000X2.000000*%
%ADD24O,1.905000X2.000000*%
%ADD25RoundRect,0.250000X1.750000X-1.750000X1.750000X1.750000X-1.750000X1.750000X-1.750000X-1.750000X0*%
%ADD26C,4.000000*%
%ADD27RoundRect,0.250000X0.550000X0.550000X-0.550000X0.550000X-0.550000X-0.550000X0.550000X-0.550000X0*%
%ADD28R,1.700000X1.700000*%
%ADD29C,1.700000*%
%ADD30RoundRect,0.250001X-1.149999X1.149999X-1.149999X-1.149999X1.149999X-1.149999X1.149999X1.149999X0*%
%ADD31C,2.800000*%
%ADD32RoundRect,0.250000X1.350000X-1.350000X1.350000X1.350000X-1.350000X1.350000X-1.350000X-1.350000X0*%
%ADD33C,2.500000*%
%ADD34C,2.000000*%
%ADD35RoundRect,0.250000X-1.350000X1.350000X-1.350000X-1.350000X1.350000X-1.350000X1.350000X1.350000X0*%
%ADD36R,2.000000X1.905000*%
%ADD37O,2.000000X1.905000*%
G04 APERTURE END LIST*
D10*
%TO.C,C8*%
X91500000Y-108000000D03*
X86500000Y-108000000D03*
%TD*%
D11*
%TO.C,C12*%
X118040000Y-117950000D03*
D10*
X118040000Y-120450000D03*
%TD*%
D12*
%TO.C,*%
X163000000Y-79000000D03*
%TD*%
%TO.C,*%
X159000000Y-79000000D03*
%TD*%
D10*
%TO.C,C10*%
X179000000Y-132500000D03*
X184000000Y-132500000D03*
%TD*%
%TO.C,R4*%
X152500000Y-131080000D03*
X152500000Y-120920000D03*
%TD*%
D12*
%TO.C,*%
X148000000Y-123500000D03*
%TD*%
%TO.C,*%
X155000000Y-79000000D03*
%TD*%
D10*
%TO.C,C11*%
X101500000Y-111500000D03*
X101500000Y-116500000D03*
%TD*%
D12*
%TO.C,*%
X117000000Y-48250000D03*
%TD*%
D13*
%TO.C,D7*%
X82750000Y-103840000D03*
D14*
X82750000Y-114000000D03*
%TD*%
D15*
%TO.C,R1*%
X107000000Y-99660000D03*
X107000000Y-79340000D03*
%TD*%
D16*
%TO.C,J2*%
X137750000Y-94000000D03*
X156750000Y-94000000D03*
%TD*%
D10*
%TO.C,C6*%
X156000000Y-133500000D03*
X156000000Y-138500000D03*
%TD*%
D17*
%TO.C,REF\u002A\u002A*%
X115000000Y-112040000D03*
X115000000Y-106960000D03*
%TD*%
D12*
%TO.C,*%
X184000000Y-46500000D03*
%TD*%
D18*
%TO.C,H1*%
X82500000Y-42000000D03*
%TD*%
D12*
%TO.C,*%
X208500000Y-110500000D03*
%TD*%
D10*
%TO.C,C7*%
X179000000Y-125500000D03*
X184000000Y-125500000D03*
%TD*%
%TO.C,R19*%
X90000000Y-124160000D03*
X90000000Y-114000000D03*
%TD*%
%TO.C,REF\u002A\u002A*%
X179120000Y-116000000D03*
X163880000Y-116000000D03*
%TD*%
%TO.C,R5*%
X143500000Y-143660000D03*
X143500000Y-133500000D03*
%TD*%
%TO.C,R2*%
X112000000Y-104580000D03*
X112000000Y-94420000D03*
%TD*%
%TO.C,R3*%
X143500000Y-131080000D03*
X143500000Y-120920000D03*
%TD*%
D12*
%TO.C,*%
X167000000Y-79000000D03*
%TD*%
D19*
%TO.C,D6*%
X94460000Y-87500000D03*
D20*
X97000000Y-87500000D03*
%TD*%
D10*
%TO.C,R11*%
X97000000Y-75500000D03*
X107160000Y-75500000D03*
%TD*%
D18*
%TO.C,H3*%
X82500000Y-145000000D03*
%TD*%
D10*
%TO.C,R10*%
X179000000Y-129000000D03*
X189160000Y-129000000D03*
%TD*%
D21*
%TO.C,Q4*%
X95500000Y-98000000D03*
D22*
X95500000Y-96730000D03*
X95500000Y-95460000D03*
%TD*%
D10*
%TO.C,R6*%
X152500000Y-143580000D03*
X152500000Y-133420000D03*
%TD*%
D23*
%TO.C,U1*%
X95460000Y-108450000D03*
D24*
X98000000Y-108450000D03*
X100540000Y-108450000D03*
%TD*%
D10*
%TO.C,REF\u002A\u002A*%
X179120000Y-119000000D03*
X163880000Y-119000000D03*
%TD*%
D25*
%TO.C,C4*%
X198500000Y-61017935D03*
D26*
X198500000Y-51017935D03*
%TD*%
D25*
%TO.C,C1*%
X97500000Y-61000000D03*
D26*
X97500000Y-51000000D03*
%TD*%
D19*
%TO.C,D5*%
X94500000Y-81000000D03*
D20*
X97040000Y-81000000D03*
%TD*%
D10*
%TO.C,R12*%
X102000000Y-97000000D03*
X102000000Y-86840000D03*
%TD*%
%TO.C,R20*%
X181000000Y-81660000D03*
X181000000Y-71500000D03*
%TD*%
%TO.C,R13*%
X98500000Y-130530000D03*
X98500000Y-120370000D03*
%TD*%
%TO.C,REF\u002A\u002A*%
X130500000Y-116120000D03*
X130500000Y-100880000D03*
%TD*%
D27*
%TO.C,U2*%
X112540000Y-130570000D03*
D10*
X112540000Y-128030000D03*
X112540000Y-125490000D03*
X112540000Y-122950000D03*
X112540000Y-120410000D03*
X112540000Y-117870000D03*
X112540000Y-115330000D03*
X104920000Y-115330000D03*
X104920000Y-117870000D03*
X104920000Y-120410000D03*
X104920000Y-122950000D03*
X104920000Y-125490000D03*
X104920000Y-128030000D03*
X104920000Y-130570000D03*
%TD*%
D12*
%TO.C,*%
X208750000Y-74500000D03*
%TD*%
%TO.C,*%
X105500000Y-134500000D03*
%TD*%
D28*
%TO.C,J3*%
X91000000Y-138960000D03*
D29*
X91000000Y-141500000D03*
X91000000Y-144040000D03*
%TD*%
D28*
%TO.C,J5*%
X86500000Y-114000000D03*
D29*
X86500000Y-111460000D03*
%TD*%
D10*
%TO.C,REF\u002A\u002A*%
X156000000Y-120750000D03*
X156000000Y-105510000D03*
%TD*%
D12*
%TO.C,*%
X151000000Y-46500000D03*
%TD*%
D18*
%TO.C,H5*%
X147500000Y-81500000D03*
%TD*%
D12*
%TO.C,*%
X92000000Y-77000000D03*
%TD*%
D25*
%TO.C,C3*%
X165500000Y-61000000D03*
D26*
X165500000Y-51000000D03*
%TD*%
D12*
%TO.C,*%
X200750000Y-74500000D03*
%TD*%
D10*
%TO.C,R17*%
X108660000Y-141500000D03*
X98500000Y-141500000D03*
%TD*%
D17*
%TO.C,REF\u002A\u002A*%
X91500000Y-105500000D03*
X91500000Y-100420000D03*
%TD*%
D12*
%TO.C,*%
X113000000Y-48250000D03*
%TD*%
D30*
%TO.C,J1*%
X84032500Y-73750000D03*
D31*
X84032500Y-78750000D03*
%TD*%
D23*
%TO.C,Q2*%
X184000000Y-98000000D03*
D24*
X186540000Y-98000000D03*
X189080000Y-98000000D03*
%TD*%
D32*
%TO.C,D1*%
X84500000Y-99620000D03*
D18*
X84500000Y-84380000D03*
%TD*%
D33*
%TO.C,R9*%
X191618000Y-114906000D03*
D34*
X189586000Y-117192000D03*
X210414000Y-117192000D03*
D33*
X208382000Y-114906000D03*
%TD*%
D11*
%TO.C,C13*%
X118040000Y-125450000D03*
D10*
X118040000Y-127950000D03*
%TD*%
%TO.C,REF\u002A\u002A*%
X175500000Y-134500000D03*
X160260000Y-134500000D03*
%TD*%
D12*
%TO.C,*%
X204750000Y-74500000D03*
%TD*%
%TO.C,*%
X147000000Y-46500000D03*
%TD*%
D17*
%TO.C,REF\u002A\u002A*%
X110540000Y-112500000D03*
X105460000Y-112500000D03*
%TD*%
D10*
%TO.C,R14*%
X99080000Y-92500000D03*
X88920000Y-92500000D03*
%TD*%
%TO.C,REF\u002A\u002A*%
X140000000Y-120750000D03*
X140000000Y-105510000D03*
%TD*%
%TO.C,R18*%
X111700000Y-144530000D03*
X101540000Y-144530000D03*
%TD*%
D35*
%TO.C,D2*%
X187500000Y-75880000D03*
D18*
X187500000Y-91120000D03*
%TD*%
D13*
%TO.C,D4*%
X125000000Y-113340000D03*
D14*
X125000000Y-123500000D03*
%TD*%
D12*
%TO.C,*%
X213000000Y-113000000D03*
%TD*%
%TO.C,*%
X180000000Y-46500000D03*
%TD*%
D10*
%TO.C,R15*%
X101540000Y-135610000D03*
X101540000Y-125450000D03*
%TD*%
%TO.C,C5*%
X140000000Y-133500000D03*
X140000000Y-138500000D03*
%TD*%
D12*
%TO.C,*%
X92000000Y-73000000D03*
%TD*%
D36*
%TO.C,Q1*%
X115000000Y-90000000D03*
D37*
X115000000Y-87460000D03*
X115000000Y-84920000D03*
%TD*%
D18*
%TO.C,H4*%
X212500000Y-145000000D03*
%TD*%
%TO.C,H2*%
X212500000Y-42000000D03*
%TD*%
D10*
%TO.C,R16*%
X95500000Y-133160000D03*
X95500000Y-123000000D03*
%TD*%
%TO.C,REF\u002A\u002A*%
X139620000Y-130500000D03*
X124380000Y-130500000D03*
%TD*%
D11*
%TO.C,C9*%
X96000000Y-112500000D03*
D10*
X96000000Y-115000000D03*
%TD*%
D28*
%TO.C,J4*%
X148000000Y-131690000D03*
D29*
X148000000Y-134230000D03*
X148000000Y-136770000D03*
X148000000Y-139310000D03*
%TD*%
D12*
%TO.C,*%
X212750000Y-74500000D03*
%TD*%
D32*
%TO.C,D3*%
X115000000Y-78500000D03*
D18*
X115000000Y-63260000D03*
%TD*%
D10*
%TO.C,REF\u002A\u002A*%
X139620000Y-127500000D03*
X124380000Y-127500000D03*
%TD*%
%TO.C,R8*%
X178920000Y-122000000D03*
X189080000Y-122000000D03*
%TD*%
%TO.C,REF\u002A\u002A*%
X175500000Y-137500000D03*
X160260000Y-137500000D03*
%TD*%
D12*
%TO.C,*%
X204000000Y-113000000D03*
%TD*%
D10*
%TO.C,R7*%
X160000000Y-130080000D03*
X160000000Y-119920000D03*
%TD*%
D25*
%TO.C,C2*%
X132500000Y-61000000D03*
D26*
X132500000Y-51000000D03*
%TD*%
M02*
