%TF.GenerationSoftware,KiCad,Pcbnew,9.0.6*%
%TF.CreationDate,2025-12-11T13:58:46+01:00*%
%TF.ProjectId,saturation_meter,73617475-7261-4746-996f-6e5f6d657465,1.0.0*%
%TF.SameCoordinates,Original*%
%TF.FileFunction,Copper,L2,Bot*%
%TF.FilePolarity,Positive*%
%FSLAX46Y46*%
G04 Gerber Fmt 4.6, Leading zero omitted, Abs format (unit mm)*
G04 Created by KiCad (PCBNEW 9.0.6) date 2025-12-11 13:58:46*
%MOMM*%
%LPD*%
G01*
G04 APERTURE LIST*
G04 Aperture macros list*
%AMRoundRect*
0 Rectangle with rounded corners*
0 $1 Rounding radius*
0 $2 $3 $4 $5 $6 $7 $8 $9 X,Y pos of 4 corners*
0 Add a 4 corners polygon primitive as box body*
4,1,4,$2,$3,$4,$5,$6,$7,$8,$9,$2,$3,0*
0 Add four circle primitives for the rounded corners*
1,1,$1+$1,$2,$3*
1,1,$1+$1,$4,$5*
1,1,$1+$1,$6,$7*
1,1,$1+$1,$8,$9*
0 Add four rect primitives between the rounded corners*
20,1,$1+$1,$2,$3,$4,$5,0*
20,1,$1+$1,$4,$5,$6,$7,0*
20,1,$1+$1,$6,$7,$8,$9,0*
20,1,$1+$1,$8,$9,$2,$3,0*%
G04 Aperture macros list end*
%ADD10C,1.000000*%
%TA.AperFunction,NonConductor*%
%ADD11C,1.000000*%
%TD*%
%TA.AperFunction,EtchedComponent*%
%ADD12C,1.000000*%
%TD*%
%TA.AperFunction,EtchedComponent*%
%ADD13C,0.500000*%
%TD*%
%TA.AperFunction,ComponentPad*%
%ADD14C,1.600000*%
%TD*%
%TA.AperFunction,ComponentPad*%
%ADD15RoundRect,0.250000X-0.550000X0.550000X-0.550000X-0.550000X0.550000X-0.550000X0.550000X0.550000X0*%
%TD*%
%TA.AperFunction,ComponentPad*%
%ADD16C,2.400000*%
%TD*%
%TA.AperFunction,ComponentPad*%
%ADD17C,10.160000*%
%TD*%
%TA.AperFunction,ComponentPad*%
%ADD18R,1.800000X1.800000*%
%TD*%
%TA.AperFunction,ComponentPad*%
%ADD19C,1.800000*%
%TD*%
%TA.AperFunction,ComponentPad*%
%ADD20R,1.500000X1.050000*%
%TD*%
%TA.AperFunction,ComponentPad*%
%ADD21O,1.500000X1.050000*%
%TD*%
%TA.AperFunction,ComponentPad*%
%ADD22R,1.905000X2.000000*%
%TD*%
%TA.AperFunction,ComponentPad*%
%ADD23O,1.905000X2.000000*%
%TD*%
%TA.AperFunction,ComponentPad*%
%ADD24RoundRect,0.250000X1.750000X-1.750000X1.750000X1.750000X-1.750000X1.750000X-1.750000X-1.750000X0*%
%TD*%
%TA.AperFunction,ComponentPad*%
%ADD25C,4.000000*%
%TD*%
%TA.AperFunction,ComponentPad*%
%ADD26RoundRect,0.250000X0.550000X0.550000X-0.550000X0.550000X-0.550000X-0.550000X0.550000X-0.550000X0*%
%TD*%
%TA.AperFunction,ComponentPad*%
%ADD27R,1.700000X1.700000*%
%TD*%
%TA.AperFunction,ComponentPad*%
%ADD28C,1.700000*%
%TD*%
%TA.AperFunction,ComponentPad*%
%ADD29C,1.400000*%
%TD*%
%TA.AperFunction,ComponentPad*%
%ADD30RoundRect,0.250001X-1.149999X1.149999X-1.149999X-1.149999X1.149999X-1.149999X1.149999X1.149999X0*%
%TD*%
%TA.AperFunction,ComponentPad*%
%ADD31C,2.800000*%
%TD*%
%TA.AperFunction,ComponentPad*%
%ADD32RoundRect,0.250000X1.350000X-1.350000X1.350000X1.350000X-1.350000X1.350000X-1.350000X-1.350000X0*%
%TD*%
%TA.AperFunction,ComponentPad*%
%ADD33C,3.200000*%
%TD*%
%TA.AperFunction,ComponentPad*%
%ADD34C,2.500000*%
%TD*%
%TA.AperFunction,ComponentPad*%
%ADD35C,2.000000*%
%TD*%
%TA.AperFunction,ComponentPad*%
%ADD36RoundRect,0.250000X-1.350000X1.350000X-1.350000X-1.350000X1.350000X-1.350000X1.350000X1.350000X0*%
%TD*%
%TA.AperFunction,ComponentPad*%
%ADD37RoundRect,0.249999X-0.850001X0.850001X-0.850001X-0.850001X0.850001X-0.850001X0.850001X0.850001X0*%
%TD*%
%TA.AperFunction,ComponentPad*%
%ADD38C,2.200000*%
%TD*%
%TA.AperFunction,ComponentPad*%
%ADD39R,2.000000X1.905000*%
%TD*%
%TA.AperFunction,ComponentPad*%
%ADD40O,2.000000X1.905000*%
%TD*%
%TA.AperFunction,Conductor*%
%ADD41C,1.000000*%
%TD*%
%TA.AperFunction,Conductor*%
%ADD42C,0.500000*%
%TD*%
%TA.AperFunction,Conductor*%
%ADD43C,2.000000*%
%TD*%
G04 APERTURE END LIST*
D10*
D11*
X204414486Y-146958476D02*
X206700201Y-146958476D01*
X205557344Y-146958476D02*
X205557344Y-142958476D01*
X205557344Y-142958476D02*
X205938296Y-143529904D01*
X205938296Y-143529904D02*
X206319248Y-143910857D01*
X206319248Y-143910857D02*
X206700201Y-144101333D01*
X202700201Y-146577523D02*
X202509724Y-146768000D01*
X202509724Y-146768000D02*
X202700201Y-146958476D01*
X202700201Y-146958476D02*
X202890677Y-146768000D01*
X202890677Y-146768000D02*
X202700201Y-146577523D01*
X202700201Y-146577523D02*
X202700201Y-146958476D01*
X200033534Y-142958476D02*
X199652581Y-142958476D01*
X199652581Y-142958476D02*
X199271629Y-143148952D01*
X199271629Y-143148952D02*
X199081153Y-143339428D01*
X199081153Y-143339428D02*
X198890677Y-143720380D01*
X198890677Y-143720380D02*
X198700200Y-144482285D01*
X198700200Y-144482285D02*
X198700200Y-145434666D01*
X198700200Y-145434666D02*
X198890677Y-146196571D01*
X198890677Y-146196571D02*
X199081153Y-146577523D01*
X199081153Y-146577523D02*
X199271629Y-146768000D01*
X199271629Y-146768000D02*
X199652581Y-146958476D01*
X199652581Y-146958476D02*
X200033534Y-146958476D01*
X200033534Y-146958476D02*
X200414486Y-146768000D01*
X200414486Y-146768000D02*
X200604962Y-146577523D01*
X200604962Y-146577523D02*
X200795439Y-146196571D01*
X200795439Y-146196571D02*
X200985915Y-145434666D01*
X200985915Y-145434666D02*
X200985915Y-144482285D01*
X200985915Y-144482285D02*
X200795439Y-143720380D01*
X200795439Y-143720380D02*
X200604962Y-143339428D01*
X200604962Y-143339428D02*
X200414486Y-143148952D01*
X200414486Y-143148952D02*
X200033534Y-142958476D01*
X196985915Y-146577523D02*
X196795438Y-146768000D01*
X196795438Y-146768000D02*
X196985915Y-146958476D01*
X196985915Y-146958476D02*
X197176391Y-146768000D01*
X197176391Y-146768000D02*
X196985915Y-146577523D01*
X196985915Y-146577523D02*
X196985915Y-146958476D01*
X194319248Y-142958476D02*
X193938295Y-142958476D01*
X193938295Y-142958476D02*
X193557343Y-143148952D01*
X193557343Y-143148952D02*
X193366867Y-143339428D01*
X193366867Y-143339428D02*
X193176391Y-143720380D01*
X193176391Y-143720380D02*
X192985914Y-144482285D01*
X192985914Y-144482285D02*
X192985914Y-145434666D01*
X192985914Y-145434666D02*
X193176391Y-146196571D01*
X193176391Y-146196571D02*
X193366867Y-146577523D01*
X193366867Y-146577523D02*
X193557343Y-146768000D01*
X193557343Y-146768000D02*
X193938295Y-146958476D01*
X193938295Y-146958476D02*
X194319248Y-146958476D01*
X194319248Y-146958476D02*
X194700200Y-146768000D01*
X194700200Y-146768000D02*
X194890676Y-146577523D01*
X194890676Y-146577523D02*
X195081153Y-146196571D01*
X195081153Y-146196571D02*
X195271629Y-145434666D01*
X195271629Y-145434666D02*
X195271629Y-144482285D01*
X195271629Y-144482285D02*
X195081153Y-143720380D01*
X195081153Y-143720380D02*
X194890676Y-143339428D01*
X194890676Y-143339428D02*
X194700200Y-143148952D01*
X194700200Y-143148952D02*
X194319248Y-142958476D01*
D12*
%TO.C,R9*%
X191738000Y-115906000D02*
X191738000Y-126082000D01*
D13*
X191738000Y-116156000D02*
X190468000Y-116684000D01*
D12*
X193262000Y-118208000D02*
X193262000Y-125963000D01*
X194786000Y-118208000D02*
X194786000Y-125963000D01*
X196310000Y-118208000D02*
X196310000Y-125963000D01*
X197834000Y-118208000D02*
X197834000Y-125963000D01*
X199358000Y-118208000D02*
X199358000Y-125963000D01*
X200882000Y-118208000D02*
X200882000Y-125963000D01*
X202406000Y-118208000D02*
X202406000Y-125963000D01*
X203930000Y-118208000D02*
X203930000Y-125963000D01*
X205454000Y-118208000D02*
X205454000Y-125963000D01*
X206978000Y-118208000D02*
X206978000Y-125963000D01*
X208502000Y-115922000D02*
X208502000Y-126082000D01*
D13*
X209772000Y-116684000D02*
X208502000Y-116156000D01*
D12*
X193262000Y-118208000D02*
G75*
G02*
X194786000Y-118208000I762000J0D01*
G01*
X193262000Y-126082000D02*
G75*
G02*
X191738000Y-126082000I-762000J0D01*
G01*
X196310000Y-118208000D02*
G75*
G02*
X197834000Y-118208000I762000J0D01*
G01*
X196310000Y-126082000D02*
G75*
G02*
X194786000Y-126082000I-762000J0D01*
G01*
X199358000Y-118208000D02*
G75*
G02*
X200882000Y-118208000I762000J0D01*
G01*
X199358000Y-126082000D02*
G75*
G02*
X197834000Y-126082000I-762000J0D01*
G01*
X202406000Y-118208000D02*
G75*
G02*
X203930000Y-118208000I762000J0D01*
G01*
X202406000Y-126082000D02*
G75*
G02*
X200882000Y-126082000I-762000J0D01*
G01*
X205454000Y-118208000D02*
G75*
G02*
X206978000Y-118208000I762000J0D01*
G01*
X205454000Y-126082000D02*
G75*
G02*
X203930000Y-126082000I-762000J0D01*
G01*
X208502000Y-126082000D02*
G75*
G02*
X206978000Y-126082000I-762000J0D01*
G01*
%TD*%
D14*
%TO.P,C8,1*%
%TO.N,/vin_prot*%
X91620000Y-108000000D03*
%TO.P,C8,2*%
%TO.N,GND*%
X86620000Y-108000000D03*
%TD*%
D15*
%TO.P,C12,1*%
%TO.N,/vb*%
X118160000Y-117950000D03*
D14*
%TO.P,C12,2*%
%TO.N,/high_nmos_s*%
X118160000Y-120450000D03*
%TD*%
%TO.P,C10,1*%
%TO.N,/i_sense_low*%
X179120000Y-132500000D03*
%TO.P,C10,2*%
%TO.N,GND*%
X184120000Y-132500000D03*
%TD*%
%TO.P,R4,1*%
%TO.N,/dut_low*%
X152620000Y-131080000D03*
%TO.P,R4,2*%
%TO.N,/low_nmos_d*%
X152620000Y-120920000D03*
%TD*%
%TO.P,C11,1*%
%TO.N,+3.3V*%
X101620000Y-111500000D03*
%TO.P,C11,2*%
%TO.N,GND*%
X101620000Y-116500000D03*
%TD*%
D16*
%TO.P,R1,1*%
%TO.N,/vin_prot*%
X107120000Y-99660000D03*
%TO.P,R1,2*%
%TO.N,/vbus*%
X107120000Y-79340000D03*
%TD*%
D17*
%TO.P,J2,1,Pin_1*%
%TO.N,/high_nmos_s*%
X132620000Y-93500000D03*
%TO.P,J2,2,Pin_2*%
%TO.N,/low_nmos_d*%
X162590000Y-93500000D03*
%TD*%
D14*
%TO.P,C6,1*%
%TO.N,/dut_low*%
X156120000Y-133500000D03*
%TO.P,C6,2*%
%TO.N,GND*%
X156120000Y-138500000D03*
%TD*%
%TO.P,C7,1*%
%TO.N,/i_sense_high*%
X179120000Y-125500000D03*
%TO.P,C7,2*%
%TO.N,GND*%
X184120000Y-125500000D03*
%TD*%
%TO.P,R19,1*%
%TO.N,GND*%
X108820000Y-141530000D03*
%TO.P,R19,2*%
%TO.N,/sd_uc*%
X98660000Y-141530000D03*
%TD*%
%TO.P,REF\u002A\u002A,1*%
%TO.N,/low_nmos_g*%
X179240000Y-116000000D03*
%TO.P,REF\u002A\u002A,2*%
X164000000Y-116000000D03*
%TD*%
%TO.P,R5,1*%
%TO.N,GND*%
X143620000Y-143660000D03*
%TO.P,R5,2*%
%TO.N,/dut_high*%
X143620000Y-133500000D03*
%TD*%
%TO.P,R2,1*%
%TO.N,/driver_ho*%
X112120000Y-104580000D03*
%TO.P,R2,2*%
%TO.N,/high_nmos_g*%
X112120000Y-94420000D03*
%TD*%
%TO.P,R3,1*%
%TO.N,/dut_high*%
X143620000Y-131080000D03*
%TO.P,R3,2*%
%TO.N,/high_nmos_s*%
X143620000Y-120920000D03*
%TD*%
D18*
%TO.P,D6,1,K*%
%TO.N,GND*%
X94580000Y-87500000D03*
D19*
%TO.P,D6,2,A*%
%TO.N,Net-(D6-A)*%
X97120000Y-87500000D03*
%TD*%
D14*
%TO.P,R11,1*%
%TO.N,Net-(D5-A)*%
X97120000Y-75500000D03*
%TO.P,R11,2*%
%TO.N,/vbus*%
X107280000Y-75500000D03*
%TD*%
%TO.P,R10,1*%
%TO.N,/i_sense_low*%
X179120000Y-129000000D03*
%TO.P,R10,2*%
%TO.N,Net-(R10-Pad2)*%
X189280000Y-129000000D03*
%TD*%
%TO.P,R6,1*%
%TO.N,GND*%
X152620000Y-143580000D03*
%TO.P,R6,2*%
%TO.N,/dut_low*%
X152620000Y-133420000D03*
%TD*%
D20*
%TO.P,Q3,1,C*%
%TO.N,Net-(Q3-C)*%
X95260000Y-95730000D03*
D21*
%TO.P,Q3,2,B*%
%TO.N,Net-(Q3-B)*%
X95260000Y-97000000D03*
%TO.P,Q3,3,E*%
%TO.N,/vin_prot*%
X95260000Y-98270000D03*
%TD*%
D22*
%TO.P,U1,1,VI*%
%TO.N,/vin_prot*%
X95580000Y-108450000D03*
D23*
%TO.P,U1,2,GND*%
%TO.N,GND*%
X98120000Y-108450000D03*
%TO.P,U1,3,VO*%
%TO.N,+3.3V*%
X100660000Y-108450000D03*
%TD*%
D14*
%TO.P,REF\u002A\u002A,1*%
%TO.N,/low_nmos_s*%
X179240000Y-119000000D03*
%TO.P,REF\u002A\u002A,2*%
X164000000Y-119000000D03*
%TD*%
D24*
%TO.P,C4,1*%
%TO.N,/vbus*%
X198620000Y-61017935D03*
D25*
%TO.P,C4,2*%
%TO.N,GND*%
X198620000Y-51017935D03*
%TD*%
D24*
%TO.P,C1,1*%
%TO.N,/vbus*%
X97620000Y-61000000D03*
D25*
%TO.P,C1,2*%
%TO.N,GND*%
X97620000Y-51000000D03*
%TD*%
D18*
%TO.P,D5,1,K*%
%TO.N,GND*%
X94620000Y-81000000D03*
D19*
%TO.P,D5,2,A*%
%TO.N,Net-(D5-A)*%
X97160000Y-81000000D03*
%TD*%
D14*
%TO.P,R12,1*%
%TO.N,Net-(Q3-B)*%
X102120000Y-97000000D03*
%TO.P,R12,2*%
%TO.N,/vbus*%
X102120000Y-86840000D03*
%TD*%
%TO.P,R13,1*%
%TO.N,/hin_uc*%
X95660000Y-130530000D03*
%TO.P,R13,2*%
%TO.N,/hin*%
X95660000Y-120370000D03*
%TD*%
%TO.P,REF\u002A\u002A,1*%
%TO.N,/high_nmos_s*%
X130620000Y-116120000D03*
%TO.P,REF\u002A\u002A,2*%
X130620000Y-100880000D03*
%TD*%
D26*
%TO.P,U2,1,LO*%
%TO.N,/driver_lo*%
X112660000Y-130570000D03*
D14*
%TO.P,U2,2,COM*%
%TO.N,/low_nmos_s*%
X112660000Y-128030000D03*
%TO.P,U2,3,VCC*%
%TO.N,/vin_prot*%
X112660000Y-125490000D03*
%TO.P,U2,4,NC*%
%TO.N,unconnected-(U2-NC-Pad4)*%
X112660000Y-122950000D03*
%TO.P,U2,5,VS*%
%TO.N,/high_nmos_s*%
X112660000Y-120410000D03*
%TO.P,U2,6,VB*%
%TO.N,/vb*%
X112660000Y-117870000D03*
%TO.P,U2,7,HO*%
%TO.N,/driver_ho*%
X112660000Y-115330000D03*
%TO.P,U2,8,NC*%
%TO.N,unconnected-(U2-NC-Pad8)*%
X105040000Y-115330000D03*
%TO.P,U2,9,VDD*%
%TO.N,+3.3V*%
X105040000Y-117870000D03*
%TO.P,U2,10,HIN*%
%TO.N,/hin*%
X105040000Y-120410000D03*
%TO.P,U2,11,SD*%
%TO.N,/sd*%
X105040000Y-122950000D03*
%TO.P,U2,12,LIN*%
%TO.N,/lin*%
X105040000Y-125490000D03*
%TO.P,U2,13,VSS*%
%TO.N,GND*%
X105040000Y-128030000D03*
%TO.P,U2,14,NC*%
%TO.N,unconnected-(U2-NC-Pad14)*%
X105040000Y-130570000D03*
%TD*%
D27*
%TO.P,J3,1,Pin_1*%
%TO.N,/hin_uc*%
X91120000Y-138960000D03*
D28*
%TO.P,J3,2,Pin_2*%
%TO.N,/sd_uc*%
X91120000Y-141500000D03*
%TO.P,J3,3,Pin_3*%
%TO.N,/lin_uc*%
X91120000Y-144040000D03*
%TD*%
D27*
%TO.P,J5,1,Pin_1*%
%TO.N,+3.3V*%
X90120000Y-114000000D03*
D28*
%TO.P,J5,2,Pin_2*%
%TO.N,GND*%
X90120000Y-111460000D03*
%TD*%
D14*
%TO.P,REF\u002A\u002A,1*%
%TO.N,/low_nmos_d*%
X156620000Y-116120000D03*
%TO.P,REF\u002A\u002A,2*%
X156620000Y-100880000D03*
%TD*%
D24*
%TO.P,C3,1*%
%TO.N,/vbus*%
X165620000Y-61000000D03*
D25*
%TO.P,C3,2*%
%TO.N,GND*%
X165620000Y-51000000D03*
%TD*%
D14*
%TO.P,R17,1*%
%TO.N,GND*%
X105740000Y-138530000D03*
%TO.P,R17,2*%
%TO.N,/hin_uc*%
X95580000Y-138530000D03*
%TD*%
D29*
%TO.P,REF\u002A\u002A,1*%
%TO.N,/vin_prot*%
X91620000Y-105500000D03*
%TO.P,REF\u002A\u002A,2*%
X91620000Y-100420000D03*
%TD*%
D30*
%TO.P,J1,1,Pin_1*%
%TO.N,GND*%
X84152500Y-73750000D03*
D31*
%TO.P,J1,2,Pin_2*%
%TO.N,/vin*%
X84152500Y-78750000D03*
%TD*%
D22*
%TO.P,Q2,1,G*%
%TO.N,/low_nmos_g*%
X184120000Y-98000000D03*
D23*
%TO.P,Q2,2,D*%
%TO.N,/low_nmos_d*%
X186660000Y-98000000D03*
%TO.P,Q2,3,S*%
%TO.N,/low_nmos_s*%
X189200000Y-98000000D03*
%TD*%
D32*
%TO.P,D1,1,K*%
%TO.N,/vin_prot*%
X84620000Y-99620000D03*
D33*
%TO.P,D1,2,A*%
%TO.N,/vin*%
X84620000Y-84380000D03*
%TD*%
D34*
%TO.P,R9,1*%
%TO.N,/low_nmos_s*%
X191738000Y-114906000D03*
D35*
%TO.P,R9,2*%
%TO.N,Net-(R8-Pad2)*%
X189706000Y-117192000D03*
%TO.P,R9,3*%
%TO.N,Net-(R10-Pad2)*%
X210534000Y-117192000D03*
D34*
%TO.P,R9,4*%
%TO.N,GND*%
X208502000Y-114906000D03*
%TD*%
D15*
%TO.P,C13,1*%
%TO.N,/vin_prot*%
X118160000Y-125450000D03*
D14*
%TO.P,C13,2*%
%TO.N,/low_nmos_s*%
X118160000Y-127950000D03*
%TD*%
%TO.P,REF\u002A\u002A,1*%
%TO.N,/i_sense_high*%
X175620000Y-134500000D03*
%TO.P,REF\u002A\u002A,2*%
X160380000Y-134500000D03*
%TD*%
D29*
%TO.P,REF\u002A\u002A,1*%
%TO.N,/vin_prot*%
X110660000Y-112500000D03*
%TO.P,REF\u002A\u002A,2*%
X105580000Y-112500000D03*
%TD*%
D14*
%TO.P,R14,1*%
%TO.N,Net-(D6-A)*%
X89040000Y-92500000D03*
%TO.P,R14,2*%
%TO.N,Net-(Q3-C)*%
X99200000Y-92500000D03*
%TD*%
%TO.P,REF\u002A\u002A,1*%
%TO.N,/high_nmos_s*%
X138620000Y-116120000D03*
%TO.P,REF\u002A\u002A,2*%
X138620000Y-100880000D03*
%TD*%
%TO.P,R18,1*%
%TO.N,GND*%
X111820000Y-144530000D03*
%TO.P,R18,2*%
%TO.N,/lin_uc*%
X101660000Y-144530000D03*
%TD*%
D36*
%TO.P,D2,1,K*%
%TO.N,/vbus*%
X187620000Y-75880000D03*
D33*
%TO.P,D2,2,A*%
%TO.N,/low_nmos_d*%
X187620000Y-91120000D03*
%TD*%
D37*
%TO.P,D4,1,K*%
%TO.N,/vb*%
X125120000Y-113340000D03*
D38*
%TO.P,D4,2,A*%
%TO.N,/vin_prot*%
X125120000Y-123500000D03*
%TD*%
D14*
%TO.P,R15,1*%
%TO.N,/lin_uc*%
X101660000Y-135610000D03*
%TO.P,R15,2*%
%TO.N,/lin*%
X101660000Y-125450000D03*
%TD*%
%TO.P,C5,1*%
%TO.N,/dut_high*%
X140120000Y-133500000D03*
%TO.P,C5,2*%
%TO.N,GND*%
X140120000Y-138500000D03*
%TD*%
D39*
%TO.P,Q1,1,G*%
%TO.N,/high_nmos_g*%
X115120000Y-90000000D03*
D40*
%TO.P,Q1,2,D*%
%TO.N,/vbus*%
X115120000Y-87460000D03*
%TO.P,Q1,3,S*%
%TO.N,/high_nmos_s*%
X115120000Y-84920000D03*
%TD*%
D14*
%TO.P,R16,1*%
%TO.N,/sd_uc*%
X98660000Y-133190000D03*
%TO.P,R16,2*%
%TO.N,/sd*%
X98660000Y-123030000D03*
%TD*%
%TO.P,REF\u002A\u002A,1*%
%TO.N,/driver_lo*%
X139740000Y-130500000D03*
%TO.P,REF\u002A\u002A,2*%
X124500000Y-130500000D03*
%TD*%
D15*
%TO.P,C9,1*%
%TO.N,+3.3V*%
X96120000Y-112500000D03*
D14*
%TO.P,C9,2*%
%TO.N,GND*%
X96120000Y-115000000D03*
%TD*%
D27*
%TO.P,J4,1,Pin_1*%
%TO.N,/dut_high*%
X148120000Y-131690000D03*
D28*
%TO.P,J4,2,Pin_2*%
%TO.N,/dut_low*%
X148120000Y-134230000D03*
%TO.P,J4,3,Pin_3*%
%TO.N,/i_sense_high*%
X148120000Y-136770000D03*
%TO.P,J4,4,Pin_4*%
%TO.N,/i_sense_low*%
X148120000Y-139310000D03*
%TD*%
D32*
%TO.P,D3,1,K*%
%TO.N,/high_nmos_s*%
X115120000Y-78500000D03*
D33*
%TO.P,D3,2,A*%
%TO.N,GND*%
X115120000Y-63260000D03*
%TD*%
D14*
%TO.P,REF\u002A\u002A,1*%
%TO.N,/low_nmos_s*%
X139740000Y-127500000D03*
%TO.P,REF\u002A\u002A,2*%
X124500000Y-127500000D03*
%TD*%
%TO.P,R8,1*%
%TO.N,/i_sense_high*%
X179040000Y-122000000D03*
%TO.P,R8,2*%
%TO.N,Net-(R8-Pad2)*%
X189200000Y-122000000D03*
%TD*%
%TO.P,REF\u002A\u002A,1*%
%TO.N,/i_sense_low*%
X175620000Y-137500000D03*
%TO.P,REF\u002A\u002A,2*%
X160380000Y-137500000D03*
%TD*%
%TO.P,R7,1*%
%TO.N,/driver_lo*%
X160120000Y-130080000D03*
%TO.P,R7,2*%
%TO.N,/low_nmos_g*%
X160120000Y-119920000D03*
%TD*%
D24*
%TO.P,C2,1*%
%TO.N,/vbus*%
X132620000Y-61000000D03*
D25*
%TO.P,C2,2*%
%TO.N,GND*%
X132620000Y-51000000D03*
%TD*%
D41*
%TO.N,/dut_high*%
X143620000Y-131080000D02*
X147510000Y-131080000D01*
X140120000Y-133500000D02*
X143620000Y-133500000D01*
X143620000Y-131080000D02*
X143620000Y-133500000D01*
X147510000Y-131080000D02*
X148120000Y-131690000D01*
%TO.N,/dut_low*%
X152620000Y-131080000D02*
X152620000Y-133420000D01*
X152700000Y-133500000D02*
X152620000Y-133420000D01*
X156120000Y-133500000D02*
X152700000Y-133500000D01*
X148930000Y-133420000D02*
X148120000Y-134230000D01*
X152620000Y-133420000D02*
X148930000Y-133420000D01*
%TO.N,/i_sense_high*%
X179040000Y-122000000D02*
X179040000Y-125420000D01*
D42*
X177120000Y-127500000D02*
X177120000Y-133000000D01*
X149390000Y-135500000D02*
X159380000Y-135500000D01*
X177120000Y-133000000D02*
X175620000Y-134500000D01*
X179120000Y-125500000D02*
X177120000Y-127500000D01*
X148120000Y-136770000D02*
X149390000Y-135500000D01*
X159380000Y-135500000D02*
X160380000Y-134500000D01*
D41*
%TO.N,+3.3V*%
X101620000Y-111500000D02*
X97120000Y-111500000D01*
X101620000Y-109410000D02*
X100660000Y-108450000D01*
X97120000Y-111500000D02*
X96120000Y-112500000D01*
X103439000Y-116269000D02*
X103439000Y-113319000D01*
X90120000Y-114000000D02*
X94620000Y-114000000D01*
X101620000Y-111500000D02*
X101620000Y-109410000D01*
X103439000Y-113319000D02*
X101620000Y-111500000D01*
X94620000Y-114000000D02*
X96120000Y-112500000D01*
X105040000Y-117870000D02*
X103439000Y-116269000D01*
D42*
%TO.N,/i_sense_low*%
X160380000Y-137260000D02*
X159620000Y-136500000D01*
X150930000Y-136500000D02*
X148120000Y-139310000D01*
X175620000Y-137500000D02*
X179120000Y-134000000D01*
X179120000Y-134000000D02*
X179120000Y-132500000D01*
X160380000Y-137500000D02*
X160380000Y-137260000D01*
D41*
X179120000Y-129000000D02*
X179120000Y-132500000D01*
D42*
X159620000Y-136500000D02*
X150930000Y-136500000D01*
D41*
%TO.N,/vb*%
X118160000Y-117950000D02*
X122010000Y-117950000D01*
X122010000Y-117950000D02*
X125120000Y-114840000D01*
X118080000Y-117870000D02*
X118160000Y-117950000D01*
X112660000Y-117870000D02*
X118080000Y-117870000D01*
%TO.N,/high_nmos_s*%
X118160000Y-120450000D02*
X126290000Y-120450000D01*
X118120000Y-120410000D02*
X118160000Y-120450000D01*
X112660000Y-120410000D02*
X118120000Y-120410000D01*
D42*
X132620000Y-93880000D02*
X132620000Y-93500000D01*
D41*
X143420000Y-120920000D02*
X138620000Y-116120000D01*
X126290000Y-120450000D02*
X130620000Y-116120000D01*
X143620000Y-120920000D02*
X143420000Y-120920000D01*
D42*
X130620000Y-95500000D02*
X132620000Y-93500000D01*
D41*
%TO.N,/low_nmos_s*%
X139740000Y-127500000D02*
X158120000Y-127500000D01*
X164000000Y-121620000D02*
X164000000Y-119000000D01*
X118080000Y-128030000D02*
X118160000Y-127950000D01*
D42*
X182620000Y-119000000D02*
X186120000Y-115500000D01*
D41*
X112660000Y-128030000D02*
X118080000Y-128030000D01*
X124050000Y-127950000D02*
X124500000Y-127500000D01*
X158120000Y-127500000D02*
X164000000Y-121620000D01*
X118160000Y-127950000D02*
X124050000Y-127950000D01*
D42*
X179240000Y-119000000D02*
X182620000Y-119000000D01*
D43*
%TO.N,/vin*%
X84152500Y-78750000D02*
X84152500Y-83912500D01*
X84152500Y-83912500D02*
X84620000Y-84380000D01*
D41*
%TO.N,/low_nmos_d*%
X152620000Y-120120000D02*
X156620000Y-116120000D01*
X152620000Y-120920000D02*
X152620000Y-120120000D01*
D42*
%TO.N,Net-(D5-A)*%
X97120000Y-80960000D02*
X97160000Y-81000000D01*
X97120000Y-75500000D02*
X97120000Y-80960000D01*
%TO.N,Net-(D6-A)*%
X97120000Y-90000000D02*
X97120000Y-87500000D01*
X89040000Y-92500000D02*
X94620000Y-92500000D01*
X94620000Y-92500000D02*
X97120000Y-90000000D01*
D41*
%TO.N,/lin_uc*%
X101660000Y-144530000D02*
X100630000Y-143500000D01*
X100630000Y-143500000D02*
X91660000Y-143500000D01*
X101660000Y-135610000D02*
X101660000Y-144530000D01*
X91660000Y-143500000D02*
X91120000Y-144040000D01*
%TO.N,/sd_uc*%
X98660000Y-141530000D02*
X91150000Y-141530000D01*
X91150000Y-141530000D02*
X91120000Y-141500000D01*
X98660000Y-133190000D02*
X98660000Y-141530000D01*
%TO.N,/hin_uc*%
X95660000Y-130530000D02*
X95660000Y-138450000D01*
X95580000Y-138530000D02*
X95110000Y-139000000D01*
X95110000Y-139000000D02*
X91160000Y-139000000D01*
X95660000Y-138450000D02*
X95580000Y-138530000D01*
X91160000Y-139000000D02*
X91120000Y-138960000D01*
D42*
%TO.N,/high_nmos_g*%
X115120000Y-91420000D02*
X112120000Y-94420000D01*
X115120000Y-90000000D02*
X115120000Y-91420000D01*
D41*
%TO.N,/low_nmos_g*%
X181620000Y-116000000D02*
X179240000Y-116000000D01*
X184120000Y-98000000D02*
X184120000Y-113500000D01*
X184120000Y-113500000D02*
X181620000Y-116000000D01*
X164000000Y-116000000D02*
X164000000Y-116040000D01*
X164000000Y-116040000D02*
X160120000Y-119920000D01*
%TO.N,/hin*%
X105040000Y-120410000D02*
X95700000Y-120410000D01*
X95700000Y-120410000D02*
X95660000Y-120370000D01*
%TO.N,/lin*%
X101700000Y-125490000D02*
X101660000Y-125450000D01*
X105040000Y-125490000D02*
X101700000Y-125490000D01*
%TO.N,/sd*%
X98740000Y-122950000D02*
X98660000Y-123030000D01*
X105040000Y-122950000D02*
X98740000Y-122950000D01*
%TO.N,/driver_lo*%
X160120000Y-130080000D02*
X159320001Y-129280001D01*
X140959999Y-129280001D02*
X139740000Y-130500000D01*
X159320001Y-129280001D02*
X140959999Y-129280001D01*
X112660000Y-130570000D02*
X124430000Y-130570000D01*
X124430000Y-130570000D02*
X124500000Y-130500000D01*
%TO.N,/vin_prot*%
X105580000Y-109960000D02*
X101620000Y-106000000D01*
X110660000Y-123490000D02*
X112660000Y-125490000D01*
X95530000Y-108500000D02*
X95580000Y-108450000D01*
X97120000Y-106000000D02*
X95580000Y-107540000D01*
X95130000Y-108000000D02*
X95580000Y-108450000D01*
X118610000Y-125000000D02*
X118160000Y-125450000D01*
X105580000Y-112500000D02*
X105580000Y-109960000D01*
X125120000Y-125000000D02*
X118610000Y-125000000D01*
D43*
X92620000Y-99620000D02*
X107080000Y-99620000D01*
D41*
X95580000Y-107540000D02*
X95580000Y-108450000D01*
X91620000Y-105500000D02*
X91620000Y-108000000D01*
X118120000Y-125490000D02*
X118160000Y-125450000D01*
X112660000Y-125490000D02*
X118120000Y-125490000D01*
X110660000Y-112500000D02*
X110660000Y-123490000D01*
X101620000Y-106000000D02*
X97120000Y-106000000D01*
X91620000Y-108000000D02*
X95130000Y-108000000D01*
D43*
X84620000Y-99620000D02*
X92620000Y-99620000D01*
X107080000Y-99620000D02*
X107120000Y-99660000D01*
D42*
%TO.N,Net-(R8-Pad2)*%
X189200000Y-117698000D02*
X189706000Y-117192000D01*
X189200000Y-122000000D02*
X189200000Y-117698000D01*
%TO.N,Net-(R10-Pad2)*%
X189280000Y-129000000D02*
X208620000Y-129000000D01*
X189438000Y-128842000D02*
X189280000Y-129000000D01*
X208620000Y-129000000D02*
X210534000Y-127086000D01*
X210534000Y-127086000D02*
X210534000Y-117192000D01*
%TD*%
%TA.AperFunction,Conductor*%
%TO.N,GND*%
G36*
X216062539Y-38520185D02*
G01*
X216108294Y-38572989D01*
X216119500Y-38624500D01*
X216119500Y-148375500D01*
X216099815Y-148442539D01*
X216047011Y-148488294D01*
X215995500Y-148499500D01*
X79244500Y-148499500D01*
X79177461Y-148479815D01*
X79131706Y-148427011D01*
X79120500Y-148375500D01*
X79120500Y-147967012D01*
X191979379Y-147967012D01*
X207708737Y-147967012D01*
X207708737Y-144878711D01*
X210769500Y-144878711D01*
X210769500Y-145121288D01*
X210800563Y-145357246D01*
X210801162Y-145361789D01*
X210808855Y-145390500D01*
X210863947Y-145596104D01*
X210883077Y-145642287D01*
X210956776Y-145820212D01*
X211078064Y-146030289D01*
X211078066Y-146030292D01*
X211078067Y-146030293D01*
X211225733Y-146222736D01*
X211225739Y-146222743D01*
X211397256Y-146394260D01*
X211397262Y-146394265D01*
X211589711Y-146541936D01*
X211799788Y-146663224D01*
X212023900Y-146756054D01*
X212258211Y-146818838D01*
X212438586Y-146842584D01*
X212498711Y-146850500D01*
X212498712Y-146850500D01*
X212741289Y-146850500D01*
X212789388Y-146844167D01*
X212981789Y-146818838D01*
X213216100Y-146756054D01*
X213440212Y-146663224D01*
X213650289Y-146541936D01*
X213842738Y-146394265D01*
X214014265Y-146222738D01*
X214161936Y-146030289D01*
X214283224Y-145820212D01*
X214376054Y-145596100D01*
X214438838Y-145361789D01*
X214470500Y-145121288D01*
X214470500Y-144878712D01*
X214438838Y-144638211D01*
X214376054Y-144403900D01*
X214283224Y-144179788D01*
X214161936Y-143969711D01*
X214014265Y-143777262D01*
X214014260Y-143777256D01*
X213842743Y-143605739D01*
X213842736Y-143605733D01*
X213650293Y-143458067D01*
X213650292Y-143458066D01*
X213650289Y-143458064D01*
X213440212Y-143336776D01*
X213429114Y-143332179D01*
X213216104Y-143243947D01*
X212981785Y-143181161D01*
X212741289Y-143149500D01*
X212741288Y-143149500D01*
X212498712Y-143149500D01*
X212498711Y-143149500D01*
X212258214Y-143181161D01*
X212023895Y-143243947D01*
X211799794Y-143336773D01*
X211799785Y-143336777D01*
X211589706Y-143458067D01*
X211397263Y-143605733D01*
X211397256Y-143605739D01*
X211225739Y-143777256D01*
X211225733Y-143777263D01*
X211078067Y-143969706D01*
X210956777Y-144179785D01*
X210956773Y-144179794D01*
X210863947Y-144403895D01*
X210801161Y-144638214D01*
X210769500Y-144878711D01*
X207708737Y-144878711D01*
X207708737Y-141949787D01*
X191979379Y-141949787D01*
X191979379Y-147967012D01*
X79120500Y-147967012D01*
X79120500Y-144878711D01*
X80769500Y-144878711D01*
X80769500Y-145121288D01*
X80800563Y-145357246D01*
X80801162Y-145361789D01*
X80808855Y-145390500D01*
X80863947Y-145596104D01*
X80883077Y-145642287D01*
X80956776Y-145820212D01*
X81078064Y-146030289D01*
X81078066Y-146030292D01*
X81078067Y-146030293D01*
X81225733Y-146222736D01*
X81225739Y-146222743D01*
X81397256Y-146394260D01*
X81397262Y-146394265D01*
X81589711Y-146541936D01*
X81799788Y-146663224D01*
X82023900Y-146756054D01*
X82258211Y-146818838D01*
X82438586Y-146842584D01*
X82498711Y-146850500D01*
X82498712Y-146850500D01*
X82741289Y-146850500D01*
X82789388Y-146844167D01*
X82981789Y-146818838D01*
X83216100Y-146756054D01*
X83440212Y-146663224D01*
X83650289Y-146541936D01*
X83842738Y-146394265D01*
X84014265Y-146222738D01*
X84161936Y-146030289D01*
X84283224Y-145820212D01*
X84376054Y-145596100D01*
X84438838Y-145361789D01*
X84470500Y-145121288D01*
X84470500Y-144878712D01*
X84438838Y-144638211D01*
X84376054Y-144403900D01*
X84283224Y-144179788D01*
X84161936Y-143969711D01*
X84014265Y-143777262D01*
X84014260Y-143777256D01*
X83842743Y-143605739D01*
X83842736Y-143605733D01*
X83650293Y-143458067D01*
X83650292Y-143458066D01*
X83650289Y-143458064D01*
X83440212Y-143336776D01*
X83429114Y-143332179D01*
X83216104Y-143243947D01*
X82981785Y-143181161D01*
X82741289Y-143149500D01*
X82741288Y-143149500D01*
X82498712Y-143149500D01*
X82498711Y-143149500D01*
X82258214Y-143181161D01*
X82023895Y-143243947D01*
X81799794Y-143336773D01*
X81799785Y-143336777D01*
X81589706Y-143458067D01*
X81397263Y-143605733D01*
X81397256Y-143605739D01*
X81225739Y-143777256D01*
X81225733Y-143777263D01*
X81078067Y-143969706D01*
X80956777Y-144179785D01*
X80956773Y-144179794D01*
X80863947Y-144403895D01*
X80801161Y-144638214D01*
X80769500Y-144878711D01*
X79120500Y-144878711D01*
X79120500Y-138062135D01*
X89769500Y-138062135D01*
X89769500Y-139857870D01*
X89769501Y-139857876D01*
X89775908Y-139917483D01*
X89826202Y-140052328D01*
X89826206Y-140052335D01*
X89912452Y-140167544D01*
X89912455Y-140167547D01*
X90027664Y-140253793D01*
X90027671Y-140253797D01*
X90159082Y-140302810D01*
X90215016Y-140344681D01*
X90239433Y-140410145D01*
X90224582Y-140478418D01*
X90203431Y-140506673D01*
X90089889Y-140620215D01*
X89964951Y-140792179D01*
X89868444Y-140981585D01*
X89802753Y-141183760D01*
X89769500Y-141393713D01*
X89769500Y-141606287D01*
X89802754Y-141816243D01*
X89846145Y-141949787D01*
X89868444Y-142018414D01*
X89964951Y-142207820D01*
X90089890Y-142379786D01*
X90240213Y-142530109D01*
X90412182Y-142655050D01*
X90420946Y-142659516D01*
X90471742Y-142707491D01*
X90488536Y-142775312D01*
X90465998Y-142841447D01*
X90420946Y-142880484D01*
X90412182Y-142884949D01*
X90240213Y-143009890D01*
X90089890Y-143160213D01*
X89964951Y-143332179D01*
X89868444Y-143521585D01*
X89802753Y-143723760D01*
X89783014Y-143848390D01*
X89769500Y-143933713D01*
X89769500Y-144146287D01*
X89802754Y-144356243D01*
X89856022Y-144520185D01*
X89868444Y-144558414D01*
X89964951Y-144747820D01*
X90089890Y-144919786D01*
X90240213Y-145070109D01*
X90412179Y-145195048D01*
X90412181Y-145195049D01*
X90412184Y-145195051D01*
X90601588Y-145291557D01*
X90803757Y-145357246D01*
X91013713Y-145390500D01*
X91013714Y-145390500D01*
X91226286Y-145390500D01*
X91226287Y-145390500D01*
X91436243Y-145357246D01*
X91638412Y-145291557D01*
X91827816Y-145195051D01*
X91929343Y-145121288D01*
X91999786Y-145070109D01*
X91999788Y-145070106D01*
X91999792Y-145070104D01*
X92150104Y-144919792D01*
X92150106Y-144919788D01*
X92150109Y-144919786D01*
X92275048Y-144747820D01*
X92275047Y-144747820D01*
X92275051Y-144747816D01*
X92366567Y-144568204D01*
X92414541Y-144517409D01*
X92477052Y-144500500D01*
X100164218Y-144500500D01*
X100193658Y-144509144D01*
X100223645Y-144515668D01*
X100228660Y-144519422D01*
X100231257Y-144520185D01*
X100251899Y-144536819D01*
X100333281Y-144618201D01*
X100366766Y-144679524D01*
X100368073Y-144686483D01*
X100391523Y-144834535D01*
X100454781Y-145029223D01*
X100518691Y-145154653D01*
X100539274Y-145195048D01*
X100547715Y-145211613D01*
X100668028Y-145377213D01*
X100812786Y-145521971D01*
X100967749Y-145634556D01*
X100978390Y-145642287D01*
X101094607Y-145701503D01*
X101160776Y-145735218D01*
X101160778Y-145735218D01*
X101160781Y-145735220D01*
X101265137Y-145769127D01*
X101355465Y-145798477D01*
X101456557Y-145814488D01*
X101557648Y-145830500D01*
X101557649Y-145830500D01*
X101762351Y-145830500D01*
X101762352Y-145830500D01*
X101964534Y-145798477D01*
X102159219Y-145735220D01*
X102341610Y-145642287D01*
X102434590Y-145574732D01*
X102507213Y-145521971D01*
X102507215Y-145521968D01*
X102507219Y-145521966D01*
X102651966Y-145377219D01*
X102651968Y-145377215D01*
X102651971Y-145377213D01*
X102704732Y-145304590D01*
X102772287Y-145211610D01*
X102865220Y-145029219D01*
X102928477Y-144834534D01*
X102960500Y-144632352D01*
X102960500Y-144427648D01*
X102928477Y-144225466D01*
X102913634Y-144179785D01*
X102865218Y-144030776D01*
X102815761Y-143933713D01*
X102772287Y-143848390D01*
X102720606Y-143777256D01*
X102684182Y-143727122D01*
X102660702Y-143661316D01*
X102660500Y-143654237D01*
X102660500Y-136485761D01*
X102680185Y-136418722D01*
X102684165Y-136412899D01*
X102772287Y-136291610D01*
X102865220Y-136109219D01*
X102928477Y-135914534D01*
X102960500Y-135712352D01*
X102960500Y-135507648D01*
X102949388Y-135437491D01*
X102928477Y-135305465D01*
X102865218Y-135110776D01*
X102808376Y-134999219D01*
X102772287Y-134928390D01*
X102753169Y-134902076D01*
X102651971Y-134762786D01*
X102507213Y-134618028D01*
X102341613Y-134497715D01*
X102341612Y-134497714D01*
X102341610Y-134497713D01*
X102229104Y-134440388D01*
X102159223Y-134404781D01*
X101964534Y-134341522D01*
X101789995Y-134313878D01*
X101762352Y-134309500D01*
X101557648Y-134309500D01*
X101533329Y-134313351D01*
X101355465Y-134341522D01*
X101160776Y-134404781D01*
X100978386Y-134497715D01*
X100812781Y-134618033D01*
X100812775Y-134618038D01*
X100778696Y-134652117D01*
X100717372Y-134685602D01*
X100647681Y-134680616D01*
X100611633Y-134659694D01*
X100602541Y-134652117D01*
X99816623Y-133997186D01*
X99777725Y-133939148D01*
X99776379Y-133869291D01*
X99785523Y-133845633D01*
X99865216Y-133689228D01*
X99865217Y-133689224D01*
X99865220Y-133689219D01*
X99928477Y-133494534D01*
X99960500Y-133292352D01*
X99960500Y-133087648D01*
X99934910Y-132926083D01*
X99928477Y-132885465D01*
X99865218Y-132690776D01*
X99820163Y-132602352D01*
X99772287Y-132508390D01*
X99724444Y-132442539D01*
X99651971Y-132342786D01*
X99507213Y-132198028D01*
X99341613Y-132077715D01*
X99341612Y-132077714D01*
X99341610Y-132077713D01*
X99284653Y-132048691D01*
X99159223Y-131984781D01*
X98964534Y-131921522D01*
X98789995Y-131893878D01*
X98762352Y-131889500D01*
X98557648Y-131889500D01*
X98533329Y-131893351D01*
X98355465Y-131921522D01*
X98160776Y-131984781D01*
X97978386Y-132077715D01*
X97808840Y-132200897D01*
X97807598Y-132199187D01*
X97751854Y-132224113D01*
X97682777Y-132213621D01*
X97655798Y-132196498D01*
X96748904Y-131440753D01*
X96710005Y-131382714D01*
X96708659Y-131312857D01*
X96727969Y-131272608D01*
X96743225Y-131251610D01*
X96772287Y-131211610D01*
X96865220Y-131029219D01*
X96928477Y-130834534D01*
X96960500Y-130632352D01*
X96960500Y-130467648D01*
X103739500Y-130467648D01*
X103739500Y-130672351D01*
X103771522Y-130874534D01*
X103834781Y-131069223D01*
X103927715Y-131251613D01*
X104048028Y-131417213D01*
X104192786Y-131561971D01*
X104333945Y-131664527D01*
X104358390Y-131682287D01*
X104421663Y-131714526D01*
X104540776Y-131775218D01*
X104540778Y-131775218D01*
X104540781Y-131775220D01*
X104618585Y-131800500D01*
X104735465Y-131838477D01*
X104836557Y-131854488D01*
X104937648Y-131870500D01*
X104937649Y-131870500D01*
X105142351Y-131870500D01*
X105142352Y-131870500D01*
X105344534Y-131838477D01*
X105539219Y-131775220D01*
X105721610Y-131682287D01*
X105850482Y-131588657D01*
X105887213Y-131561971D01*
X105887215Y-131561968D01*
X105887219Y-131561966D01*
X106031966Y-131417219D01*
X106031968Y-131417215D01*
X106031971Y-131417213D01*
X106127868Y-131285220D01*
X106152287Y-131251610D01*
X106245220Y-131069219D01*
X106308477Y-130874534D01*
X106340500Y-130672352D01*
X106340500Y-130467648D01*
X106329184Y-130396204D01*
X106308477Y-130265465D01*
X106245218Y-130070776D01*
X106193865Y-129969991D01*
X106152287Y-129888390D01*
X106122375Y-129847219D01*
X106031971Y-129722786D01*
X105887213Y-129578028D01*
X105721613Y-129457715D01*
X105721612Y-129457714D01*
X105721610Y-129457713D01*
X105643106Y-129417713D01*
X105539223Y-129364781D01*
X105344534Y-129301522D01*
X105169995Y-129273878D01*
X105142352Y-129269500D01*
X104937648Y-129269500D01*
X104913329Y-129273351D01*
X104735465Y-129301522D01*
X104540776Y-129364781D01*
X104358386Y-129457715D01*
X104192786Y-129578028D01*
X104048028Y-129722786D01*
X103927715Y-129888386D01*
X103834781Y-130070776D01*
X103771522Y-130265465D01*
X103739500Y-130467648D01*
X96960500Y-130467648D01*
X96960500Y-130427648D01*
X96940735Y-130302861D01*
X96928477Y-130225465D01*
X96865218Y-130030776D01*
X96831503Y-129964607D01*
X96772287Y-129848390D01*
X96739219Y-129802875D01*
X96651971Y-129682786D01*
X96507213Y-129538028D01*
X96341613Y-129417715D01*
X96341612Y-129417714D01*
X96341610Y-129417713D01*
X96282732Y-129387713D01*
X96159223Y-129324781D01*
X95964534Y-129261522D01*
X95789995Y-129233878D01*
X95762352Y-129229500D01*
X95557648Y-129229500D01*
X95536933Y-129232781D01*
X95355465Y-129261522D01*
X95160776Y-129324781D01*
X94978386Y-129417715D01*
X94812786Y-129538028D01*
X94668028Y-129682786D01*
X94547715Y-129848386D01*
X94454781Y-130030776D01*
X94391522Y-130225465D01*
X94359500Y-130427648D01*
X94359500Y-130632351D01*
X94391522Y-130834534D01*
X94454781Y-131029223D01*
X94526521Y-131170018D01*
X94547713Y-131211610D01*
X94635819Y-131332877D01*
X94659298Y-131398681D01*
X94659500Y-131405761D01*
X94659500Y-137559953D01*
X94639815Y-137626992D01*
X94623181Y-137647634D01*
X94588032Y-137682782D01*
X94588028Y-137682786D01*
X94467715Y-137848386D01*
X94467713Y-137848390D01*
X94427654Y-137927011D01*
X94425216Y-137931795D01*
X94377241Y-137982591D01*
X94314731Y-137999500D01*
X92549061Y-137999500D01*
X92482022Y-137979815D01*
X92436267Y-137927011D01*
X92432879Y-137918832D01*
X92413798Y-137867673D01*
X92413793Y-137867664D01*
X92327547Y-137752455D01*
X92327544Y-137752452D01*
X92212335Y-137666206D01*
X92212328Y-137666202D01*
X92077482Y-137615908D01*
X92077483Y-137615908D01*
X92017883Y-137609501D01*
X92017881Y-137609500D01*
X92017873Y-137609500D01*
X92017864Y-137609500D01*
X90222129Y-137609500D01*
X90222123Y-137609501D01*
X90162516Y-137615908D01*
X90027671Y-137666202D01*
X90027664Y-137666206D01*
X89912455Y-137752452D01*
X89912452Y-137752455D01*
X89826206Y-137867664D01*
X89826202Y-137867671D01*
X89775908Y-138002517D01*
X89769501Y-138062116D01*
X89769500Y-138062135D01*
X79120500Y-138062135D01*
X79120500Y-113102135D01*
X88769500Y-113102135D01*
X88769500Y-114897870D01*
X88769501Y-114897876D01*
X88775908Y-114957483D01*
X88826202Y-115092328D01*
X88826206Y-115092335D01*
X88912452Y-115207544D01*
X88912455Y-115207547D01*
X89027664Y-115293793D01*
X89027671Y-115293797D01*
X89162517Y-115344091D01*
X89162516Y-115344091D01*
X89169444Y-115344835D01*
X89222127Y-115350500D01*
X91017872Y-115350499D01*
X91077483Y-115344091D01*
X91212331Y-115293796D01*
X91327546Y-115207546D01*
X91413796Y-115092331D01*
X91417960Y-115081165D01*
X91459829Y-115025234D01*
X91525293Y-115000816D01*
X91534141Y-115000500D01*
X94718542Y-115000500D01*
X94737815Y-114996666D01*
X94815188Y-114981275D01*
X94911836Y-114962051D01*
X94989216Y-114929999D01*
X95093914Y-114886632D01*
X95257782Y-114777139D01*
X95397139Y-114637782D01*
X95397139Y-114637780D01*
X95407347Y-114627573D01*
X95407348Y-114627570D01*
X96198102Y-113836818D01*
X96259425Y-113803333D01*
X96285783Y-113800499D01*
X96720002Y-113800499D01*
X96720008Y-113800499D01*
X96822797Y-113789999D01*
X96989334Y-113734814D01*
X97138656Y-113642712D01*
X97262712Y-113518656D01*
X97354814Y-113369334D01*
X97409999Y-113202797D01*
X97420500Y-113100009D01*
X97420499Y-112665781D01*
X97429146Y-112636330D01*
X97435668Y-112606354D01*
X97439419Y-112601342D01*
X97440183Y-112598743D01*
X97456816Y-112578103D01*
X97498102Y-112536817D01*
X97559425Y-112503333D01*
X97585782Y-112500500D01*
X100744238Y-112500500D01*
X100811277Y-112520185D01*
X100817119Y-112524179D01*
X100938390Y-112612287D01*
X101049499Y-112668900D01*
X101120776Y-112705218D01*
X101120778Y-112705218D01*
X101120781Y-112705220D01*
X101225137Y-112739127D01*
X101315465Y-112768477D01*
X101392966Y-112780751D01*
X101463513Y-112791925D01*
X101526648Y-112821854D01*
X101531797Y-112826717D01*
X102402181Y-113697101D01*
X102435666Y-113758424D01*
X102438500Y-113784782D01*
X102438500Y-116367541D01*
X102446064Y-116405567D01*
X102476949Y-116560836D01*
X102490651Y-116593914D01*
X102499803Y-116616008D01*
X102552364Y-116742906D01*
X102552371Y-116742919D01*
X102661860Y-116906782D01*
X102805537Y-117050459D01*
X102805559Y-117050479D01*
X103713281Y-117958201D01*
X103746766Y-118019524D01*
X103748073Y-118026483D01*
X103771523Y-118174535D01*
X103834781Y-118369223D01*
X103867116Y-118432682D01*
X103922131Y-118540655D01*
X103927715Y-118551613D01*
X104048028Y-118717213D01*
X104192786Y-118861971D01*
X104318539Y-118953334D01*
X104358390Y-118982287D01*
X104449840Y-119028883D01*
X104451080Y-119029515D01*
X104501876Y-119077490D01*
X104518671Y-119145311D01*
X104496134Y-119211446D01*
X104451080Y-119250485D01*
X104358386Y-119297715D01*
X104237123Y-119385818D01*
X104171317Y-119409298D01*
X104164238Y-119409500D01*
X96589807Y-119409500D01*
X96522768Y-119389815D01*
X96509269Y-119379785D01*
X96507211Y-119378027D01*
X96341613Y-119257715D01*
X96341612Y-119257714D01*
X96341610Y-119257713D01*
X96284653Y-119228691D01*
X96159223Y-119164781D01*
X95964534Y-119101522D01*
X95789995Y-119073878D01*
X95762352Y-119069500D01*
X95557648Y-119069500D01*
X95536933Y-119072781D01*
X95355465Y-119101522D01*
X95160776Y-119164781D01*
X94978386Y-119257715D01*
X94812786Y-119378028D01*
X94668028Y-119522786D01*
X94547715Y-119688386D01*
X94454781Y-119870776D01*
X94391522Y-120065465D01*
X94359500Y-120267648D01*
X94359500Y-120472351D01*
X94391522Y-120674534D01*
X94454781Y-120869223D01*
X94508627Y-120974900D01*
X94537867Y-121032287D01*
X94547715Y-121051613D01*
X94668028Y-121217213D01*
X94812786Y-121361971D01*
X94958246Y-121467652D01*
X94978390Y-121482287D01*
X95094607Y-121541503D01*
X95160776Y-121575218D01*
X95160778Y-121575218D01*
X95160781Y-121575220D01*
X95263376Y-121608555D01*
X95355465Y-121638477D01*
X95456557Y-121654488D01*
X95557648Y-121670500D01*
X95557649Y-121670500D01*
X95762351Y-121670500D01*
X95762352Y-121670500D01*
X95964534Y-121638477D01*
X96159219Y-121575220D01*
X96341610Y-121482287D01*
X96385361Y-121450500D01*
X96407822Y-121434182D01*
X96473628Y-121410702D01*
X96480707Y-121410500D01*
X104164238Y-121410500D01*
X104231277Y-121430185D01*
X104237119Y-121434179D01*
X104358390Y-121522287D01*
X104449840Y-121568883D01*
X104451080Y-121569515D01*
X104501876Y-121617490D01*
X104518671Y-121685311D01*
X104496134Y-121751446D01*
X104451080Y-121790485D01*
X104358386Y-121837715D01*
X104275896Y-121897648D01*
X104244443Y-121920500D01*
X104237123Y-121925818D01*
X104171317Y-121949298D01*
X104164238Y-121949500D01*
X99425651Y-121949500D01*
X99358612Y-121929815D01*
X99352767Y-121925819D01*
X99351016Y-121924547D01*
X99341611Y-121917713D01*
X99159223Y-121824781D01*
X98964534Y-121761522D01*
X98789995Y-121733878D01*
X98762352Y-121729500D01*
X98557648Y-121729500D01*
X98533329Y-121733351D01*
X98355465Y-121761522D01*
X98160776Y-121824781D01*
X97978386Y-121917715D01*
X97812786Y-122038028D01*
X97668028Y-122182786D01*
X97547715Y-122348386D01*
X97454781Y-122530776D01*
X97391522Y-122725465D01*
X97359500Y-122927648D01*
X97359500Y-123132351D01*
X97391522Y-123334534D01*
X97454781Y-123529223D01*
X97504073Y-123625962D01*
X97525380Y-123667780D01*
X97547715Y-123711613D01*
X97668028Y-123877213D01*
X97812786Y-124021971D01*
X97959555Y-124128603D01*
X97978390Y-124142287D01*
X98076803Y-124192431D01*
X98160776Y-124235218D01*
X98160778Y-124235218D01*
X98160781Y-124235220D01*
X98259018Y-124267139D01*
X98355465Y-124298477D01*
X98456557Y-124314488D01*
X98557648Y-124330500D01*
X98557649Y-124330500D01*
X98762351Y-124330500D01*
X98762352Y-124330500D01*
X98964534Y-124298477D01*
X99159219Y-124235220D01*
X99341610Y-124142287D01*
X99434590Y-124074732D01*
X99507213Y-124021971D01*
X99507215Y-124021968D01*
X99507219Y-124021966D01*
X99542366Y-123986819D01*
X99603689Y-123953334D01*
X99630047Y-123950500D01*
X101283575Y-123950500D01*
X101350614Y-123970185D01*
X101396369Y-124022989D01*
X101406313Y-124092147D01*
X101377288Y-124155703D01*
X101321894Y-124192431D01*
X101160776Y-124244781D01*
X100978386Y-124337715D01*
X100812786Y-124458028D01*
X100668028Y-124602786D01*
X100547715Y-124768386D01*
X100454781Y-124950776D01*
X100391522Y-125145465D01*
X100359500Y-125347648D01*
X100359500Y-125552351D01*
X100391522Y-125754534D01*
X100454781Y-125949223D01*
X100504707Y-126047207D01*
X100543217Y-126122787D01*
X100547715Y-126131613D01*
X100668028Y-126297213D01*
X100812786Y-126441971D01*
X100929572Y-126526819D01*
X100978390Y-126562287D01*
X101094607Y-126621503D01*
X101160776Y-126655218D01*
X101160778Y-126655218D01*
X101160781Y-126655220D01*
X101251856Y-126684812D01*
X101355465Y-126718477D01*
X101432707Y-126730711D01*
X101557648Y-126750500D01*
X101557649Y-126750500D01*
X101762351Y-126750500D01*
X101762352Y-126750500D01*
X101964534Y-126718477D01*
X102159219Y-126655220D01*
X102341610Y-126562287D01*
X102390428Y-126526819D01*
X102407822Y-126514182D01*
X102473628Y-126490702D01*
X102480707Y-126490500D01*
X104164238Y-126490500D01*
X104231277Y-126510185D01*
X104237119Y-126514179D01*
X104358390Y-126602287D01*
X104451080Y-126649515D01*
X104540776Y-126695218D01*
X104540778Y-126695218D01*
X104540781Y-126695220D01*
X104612359Y-126718477D01*
X104735465Y-126758477D01*
X104754697Y-126761523D01*
X104937648Y-126790500D01*
X104937649Y-126790500D01*
X105142351Y-126790500D01*
X105142352Y-126790500D01*
X105344534Y-126758477D01*
X105539219Y-126695220D01*
X105721610Y-126602287D01*
X105848379Y-126510185D01*
X105887213Y-126481971D01*
X105887215Y-126481968D01*
X105887219Y-126481966D01*
X106031966Y-126337219D01*
X106031968Y-126337215D01*
X106031971Y-126337213D01*
X106108758Y-126231523D01*
X106152287Y-126171610D01*
X106245220Y-125989219D01*
X106308477Y-125794534D01*
X106340500Y-125592352D01*
X106340500Y-125387648D01*
X106325325Y-125291839D01*
X106308477Y-125185465D01*
X106248469Y-125000781D01*
X106245220Y-124990781D01*
X106245218Y-124990778D01*
X106245218Y-124990776D01*
X106199708Y-124901459D01*
X106152287Y-124808390D01*
X106098494Y-124734349D01*
X106031971Y-124642786D01*
X105887213Y-124498028D01*
X105721614Y-124377715D01*
X105715006Y-124374348D01*
X105628917Y-124330483D01*
X105578123Y-124282511D01*
X105561328Y-124214690D01*
X105583865Y-124148555D01*
X105628917Y-124109516D01*
X105721610Y-124062287D01*
X105755111Y-124037947D01*
X105887213Y-123941971D01*
X105887215Y-123941968D01*
X105887219Y-123941966D01*
X106031966Y-123797219D01*
X106031968Y-123797215D01*
X106031971Y-123797213D01*
X106126008Y-123667780D01*
X106152287Y-123631610D01*
X106245220Y-123449219D01*
X106308477Y-123254534D01*
X106340500Y-123052352D01*
X106340500Y-122847648D01*
X106308477Y-122645466D01*
X106245220Y-122450781D01*
X106245218Y-122450778D01*
X106245218Y-122450776D01*
X106170703Y-122304534D01*
X106152287Y-122268390D01*
X106117493Y-122220500D01*
X106031971Y-122102786D01*
X105887213Y-121958028D01*
X105721614Y-121837715D01*
X105697264Y-121825308D01*
X105628917Y-121790483D01*
X105578123Y-121742511D01*
X105561328Y-121674690D01*
X105583865Y-121608555D01*
X105628917Y-121569516D01*
X105721610Y-121522287D01*
X105776670Y-121482284D01*
X105887213Y-121401971D01*
X105887215Y-121401968D01*
X105887219Y-121401966D01*
X106031966Y-121257219D01*
X106031968Y-121257215D01*
X106031971Y-121257213D01*
X106084732Y-121184590D01*
X106152287Y-121091610D01*
X106245220Y-120909219D01*
X106308477Y-120714534D01*
X106340500Y-120512352D01*
X106340500Y-120307648D01*
X106324277Y-120205220D01*
X106308477Y-120105465D01*
X106250824Y-119928028D01*
X106245220Y-119910781D01*
X106245218Y-119910778D01*
X106245218Y-119910776D01*
X106189597Y-119801615D01*
X106152287Y-119728390D01*
X106106293Y-119665084D01*
X106031971Y-119562786D01*
X105887213Y-119418028D01*
X105721614Y-119297715D01*
X105697264Y-119285308D01*
X105628917Y-119250483D01*
X105578123Y-119202511D01*
X105561328Y-119134690D01*
X105583865Y-119068555D01*
X105628917Y-119029516D01*
X105721610Y-118982287D01*
X105761461Y-118953334D01*
X105887213Y-118861971D01*
X105887215Y-118861968D01*
X105887219Y-118861966D01*
X106031966Y-118717219D01*
X106031968Y-118717215D01*
X106031971Y-118717213D01*
X106122011Y-118593281D01*
X106152287Y-118551610D01*
X106245220Y-118369219D01*
X106308477Y-118174534D01*
X106340500Y-117972352D01*
X106340500Y-117767648D01*
X106308477Y-117565466D01*
X106306003Y-117557853D01*
X106258588Y-117411925D01*
X106245220Y-117370781D01*
X106245218Y-117370778D01*
X106245218Y-117370776D01*
X106201871Y-117285704D01*
X106152287Y-117188390D01*
X106123723Y-117149075D01*
X106031971Y-117022786D01*
X105887213Y-116878028D01*
X105721614Y-116757715D01*
X105692565Y-116742914D01*
X105628917Y-116710483D01*
X105578123Y-116662511D01*
X105561328Y-116594690D01*
X105583865Y-116528555D01*
X105628917Y-116489516D01*
X105721610Y-116442287D01*
X105775746Y-116402955D01*
X105887213Y-116321971D01*
X105887215Y-116321968D01*
X105887219Y-116321966D01*
X106031966Y-116177219D01*
X106031968Y-116177215D01*
X106031971Y-116177213D01*
X106086360Y-116102351D01*
X106152287Y-116011610D01*
X106245220Y-115829219D01*
X106308477Y-115634534D01*
X106340500Y-115432352D01*
X106340500Y-115227648D01*
X106327388Y-115144861D01*
X106308477Y-115025465D01*
X106267019Y-114897872D01*
X106245220Y-114830781D01*
X106245218Y-114830778D01*
X106245218Y-114830776D01*
X106194645Y-114731522D01*
X106152287Y-114648390D01*
X106137158Y-114627567D01*
X106031971Y-114482786D01*
X105887213Y-114338028D01*
X105721613Y-114217715D01*
X105721612Y-114217714D01*
X105721610Y-114217713D01*
X105664653Y-114188691D01*
X105539223Y-114124781D01*
X105344534Y-114061522D01*
X105169995Y-114033878D01*
X105142352Y-114029500D01*
X104937648Y-114029500D01*
X104870254Y-114040174D01*
X104735464Y-114061523D01*
X104735461Y-114061523D01*
X104601818Y-114104947D01*
X104531977Y-114106942D01*
X104472144Y-114070862D01*
X104441316Y-114008161D01*
X104439500Y-113987016D01*
X104439500Y-113354280D01*
X104459185Y-113287241D01*
X104511989Y-113241486D01*
X104581147Y-113231542D01*
X104644703Y-113260567D01*
X104661085Y-113278419D01*
X104661146Y-113278368D01*
X104662584Y-113280052D01*
X104663819Y-113281398D01*
X104664310Y-113282073D01*
X104797927Y-113415690D01*
X104950801Y-113526760D01*
X105030347Y-113567290D01*
X105119163Y-113612545D01*
X105119165Y-113612545D01*
X105119168Y-113612547D01*
X105168894Y-113628704D01*
X105298881Y-113670940D01*
X105485514Y-113700500D01*
X105485519Y-113700500D01*
X105674486Y-113700500D01*
X105861118Y-113670940D01*
X106040832Y-113612547D01*
X106209199Y-113526760D01*
X106362073Y-113415690D01*
X106495690Y-113282073D01*
X106606760Y-113129199D01*
X106692547Y-112960832D01*
X106750940Y-112781118D01*
X106762805Y-112706204D01*
X106780500Y-112594486D01*
X106780500Y-112405513D01*
X109459500Y-112405513D01*
X109459500Y-112594486D01*
X109489059Y-112781118D01*
X109547454Y-112960836D01*
X109619446Y-113102127D01*
X109633240Y-113129199D01*
X109635814Y-113132742D01*
X109659297Y-113198546D01*
X109659500Y-113205632D01*
X109659500Y-123588543D01*
X109675262Y-123667780D01*
X109675262Y-123667781D01*
X109697947Y-123781828D01*
X109697950Y-123781840D01*
X109717076Y-123828013D01*
X109773366Y-123963911D01*
X109773371Y-123963920D01*
X109882860Y-124127781D01*
X109882863Y-124127785D01*
X110026537Y-124271459D01*
X110026559Y-124271479D01*
X111333281Y-125578201D01*
X111366766Y-125639524D01*
X111368073Y-125646483D01*
X111391523Y-125794535D01*
X111454781Y-125989223D01*
X111512935Y-126103355D01*
X111538127Y-126152797D01*
X111547715Y-126171613D01*
X111668028Y-126337213D01*
X111812786Y-126481971D01*
X111923330Y-126562284D01*
X111978390Y-126602287D01*
X112069840Y-126648883D01*
X112071080Y-126649515D01*
X112121876Y-126697490D01*
X112138671Y-126765311D01*
X112116134Y-126831446D01*
X112071080Y-126870485D01*
X111978386Y-126917715D01*
X111812786Y-127038028D01*
X111668028Y-127182786D01*
X111547715Y-127348386D01*
X111454781Y-127530776D01*
X111391522Y-127725465D01*
X111365825Y-127887713D01*
X111359500Y-127927648D01*
X111359500Y-128132352D01*
X111384786Y-128291997D01*
X111391523Y-128334534D01*
X111391522Y-128334534D01*
X111454781Y-128529223D01*
X111497105Y-128612287D01*
X111544457Y-128705220D01*
X111547715Y-128711613D01*
X111668028Y-128877213D01*
X111668034Y-128877219D01*
X111812781Y-129021966D01*
X111906452Y-129090021D01*
X111949117Y-129145350D01*
X111955096Y-129214963D01*
X111922491Y-129276759D01*
X111872571Y-129308045D01*
X111790666Y-129335186D01*
X111790663Y-129335187D01*
X111641342Y-129427289D01*
X111517289Y-129551342D01*
X111425187Y-129700663D01*
X111425185Y-129700668D01*
X111405873Y-129758949D01*
X111370001Y-129867203D01*
X111370001Y-129867204D01*
X111370000Y-129867204D01*
X111359500Y-129969983D01*
X111359500Y-131170001D01*
X111359501Y-131170018D01*
X111370000Y-131272796D01*
X111370001Y-131272799D01*
X111401244Y-131367083D01*
X111425186Y-131439334D01*
X111517288Y-131588656D01*
X111641344Y-131712712D01*
X111790666Y-131804814D01*
X111957203Y-131859999D01*
X112059991Y-131870500D01*
X113260008Y-131870499D01*
X113362797Y-131859999D01*
X113529334Y-131804814D01*
X113678656Y-131712712D01*
X113784550Y-131606818D01*
X113845873Y-131573334D01*
X113872231Y-131570500D01*
X123720585Y-131570500D01*
X123787624Y-131590185D01*
X123793463Y-131594176D01*
X123818390Y-131612287D01*
X123899634Y-131653683D01*
X124000776Y-131705218D01*
X124000778Y-131705218D01*
X124000781Y-131705220D01*
X124105137Y-131739127D01*
X124195465Y-131768477D01*
X124296557Y-131784488D01*
X124397648Y-131800500D01*
X124397649Y-131800500D01*
X124602351Y-131800500D01*
X124602352Y-131800500D01*
X124804534Y-131768477D01*
X124999219Y-131705220D01*
X125181610Y-131612287D01*
X125274590Y-131544732D01*
X125347213Y-131491971D01*
X125347215Y-131491968D01*
X125347219Y-131491966D01*
X125491966Y-131347219D01*
X125491968Y-131347215D01*
X125491971Y-131347213D01*
X125561429Y-131251610D01*
X125612287Y-131181610D01*
X125705220Y-130999219D01*
X125768477Y-130804534D01*
X125800500Y-130602352D01*
X125800500Y-130397648D01*
X125782394Y-130283335D01*
X125768477Y-130195465D01*
X125727963Y-130070776D01*
X125705220Y-130000781D01*
X125705218Y-130000778D01*
X125705218Y-130000776D01*
X125671503Y-129934607D01*
X125612287Y-129818390D01*
X125600006Y-129801486D01*
X125491971Y-129652786D01*
X125347213Y-129508028D01*
X125181613Y-129387715D01*
X125181612Y-129387714D01*
X125181610Y-129387713D01*
X125124653Y-129358691D01*
X124999223Y-129294781D01*
X124804534Y-129231522D01*
X124616690Y-129201771D01*
X124602352Y-129199500D01*
X124397648Y-129199500D01*
X124383310Y-129201771D01*
X124195465Y-129231522D01*
X124000776Y-129294781D01*
X123818386Y-129387715D01*
X123652786Y-129508028D01*
X123652782Y-129508032D01*
X123627634Y-129533181D01*
X123566311Y-129566666D01*
X123539953Y-129569500D01*
X113872231Y-129569500D01*
X113805192Y-129549815D01*
X113784550Y-129533182D01*
X113750587Y-129499219D01*
X113678656Y-129427288D01*
X113603995Y-129381237D01*
X113529336Y-129335187D01*
X113529335Y-129335186D01*
X113529334Y-129335186D01*
X113447427Y-129308044D01*
X113437370Y-129301081D01*
X113425457Y-129298311D01*
X113409182Y-129281564D01*
X113389984Y-129268272D01*
X113385288Y-129256977D01*
X113376763Y-129248205D01*
X113372125Y-129225318D01*
X113363161Y-129203756D01*
X113365317Y-129191715D01*
X113362888Y-129179727D01*
X113371359Y-129157968D01*
X113375476Y-129134980D01*
X113384424Y-129124412D01*
X113388238Y-129114618D01*
X113413542Y-129090025D01*
X113462880Y-129054179D01*
X113528684Y-129030702D01*
X113535762Y-129030500D01*
X117394349Y-129030500D01*
X117461388Y-129050185D01*
X117467236Y-129054183D01*
X117478388Y-129062286D01*
X117660776Y-129155218D01*
X117660778Y-129155218D01*
X117660781Y-129155220D01*
X117736206Y-129179727D01*
X117855465Y-129218477D01*
X117937834Y-129231523D01*
X118057648Y-129250500D01*
X118057649Y-129250500D01*
X118262351Y-129250500D01*
X118262352Y-129250500D01*
X118464534Y-129218477D01*
X118659219Y-129155220D01*
X118841610Y-129062287D01*
X118962877Y-128974181D01*
X119028683Y-128950702D01*
X119035762Y-128950500D01*
X124148543Y-128950500D01*
X124179428Y-128944355D01*
X124271297Y-128926082D01*
X124341836Y-128912051D01*
X124395165Y-128889961D01*
X124523914Y-128836632D01*
X124547832Y-128820650D01*
X124597879Y-128803404D01*
X124597540Y-128801262D01*
X124602351Y-128800500D01*
X124602352Y-128800500D01*
X124804534Y-128768477D01*
X124999219Y-128705220D01*
X125181610Y-128612287D01*
X125295944Y-128529219D01*
X125347213Y-128491971D01*
X125347215Y-128491968D01*
X125347219Y-128491966D01*
X125491966Y-128347219D01*
X125491968Y-128347215D01*
X125491971Y-128347213D01*
X125577264Y-128229815D01*
X125612287Y-128181610D01*
X125705220Y-127999219D01*
X125768477Y-127804534D01*
X125800500Y-127602352D01*
X125800500Y-127397648D01*
X138439500Y-127397648D01*
X138439500Y-127602351D01*
X138471522Y-127804534D01*
X138534781Y-127999223D01*
X138598691Y-128124653D01*
X138613026Y-128152786D01*
X138627715Y-128181613D01*
X138748028Y-128347213D01*
X138892786Y-128491971D01*
X139047749Y-128604556D01*
X139058390Y-128612287D01*
X139174607Y-128671503D01*
X139240776Y-128705218D01*
X139240778Y-128705218D01*
X139240781Y-128705220D01*
X139345137Y-128739127D01*
X139435465Y-128768477D01*
X139536557Y-128784488D01*
X139637648Y-128800500D01*
X139637649Y-128800500D01*
X139725217Y-128800500D01*
X139746462Y-128806738D01*
X139768551Y-128808318D01*
X139779334Y-128816390D01*
X139792256Y-128820185D01*
X139806755Y-128836918D01*
X139824484Y-128850190D01*
X139829191Y-128862810D01*
X139838011Y-128872989D01*
X139841162Y-128894906D01*
X139848901Y-128915654D01*
X139846038Y-128928814D01*
X139847955Y-128942147D01*
X139838755Y-128962290D01*
X139834049Y-128983927D01*
X139820779Y-129001653D01*
X139818930Y-129005703D01*
X139812911Y-129012167D01*
X139722728Y-129102351D01*
X139651797Y-129173282D01*
X139590474Y-129206766D01*
X139583515Y-129208073D01*
X139435468Y-129231522D01*
X139240778Y-129294781D01*
X139058386Y-129387715D01*
X138892786Y-129508028D01*
X138748028Y-129652786D01*
X138627715Y-129818386D01*
X138534781Y-130000776D01*
X138471522Y-130195465D01*
X138439500Y-130397648D01*
X138439500Y-130602351D01*
X138471522Y-130804534D01*
X138534781Y-130999223D01*
X138571849Y-131071971D01*
X138621801Y-131170008D01*
X138627715Y-131181613D01*
X138748028Y-131347213D01*
X138892786Y-131491971D01*
X139004775Y-131573334D01*
X139058390Y-131612287D01*
X139160917Y-131664527D01*
X139240776Y-131705218D01*
X139240778Y-131705218D01*
X139240781Y-131705220D01*
X139345137Y-131739127D01*
X139435465Y-131768477D01*
X139536557Y-131784488D01*
X139637648Y-131800500D01*
X139637649Y-131800500D01*
X139842351Y-131800500D01*
X139842352Y-131800500D01*
X140044534Y-131768477D01*
X140239219Y-131705220D01*
X140421610Y-131612287D01*
X140514590Y-131544732D01*
X140587213Y-131491971D01*
X140587215Y-131491968D01*
X140587219Y-131491966D01*
X140731966Y-131347219D01*
X140731968Y-131347215D01*
X140731971Y-131347213D01*
X140801429Y-131251610D01*
X140852287Y-131181610D01*
X140945220Y-130999219D01*
X141008477Y-130804534D01*
X141031925Y-130656483D01*
X141061854Y-130593350D01*
X141066681Y-130588237D01*
X141338101Y-130316817D01*
X141399423Y-130283335D01*
X141425781Y-130280501D01*
X142365431Y-130280501D01*
X142432470Y-130300186D01*
X142478225Y-130352990D01*
X142488169Y-130422148D01*
X142475916Y-130460793D01*
X142466736Y-130478812D01*
X142414781Y-130580776D01*
X142351522Y-130775465D01*
X142319500Y-130977648D01*
X142319500Y-131182351D01*
X142351522Y-131384534D01*
X142414781Y-131579223D01*
X142482797Y-131712710D01*
X142507713Y-131761610D01*
X142595819Y-131882877D01*
X142619298Y-131948681D01*
X142619500Y-131955761D01*
X142619500Y-132375500D01*
X142599815Y-132442539D01*
X142547011Y-132488294D01*
X142495500Y-132499500D01*
X140995762Y-132499500D01*
X140928723Y-132479815D01*
X140922877Y-132475818D01*
X140801613Y-132387715D01*
X140801612Y-132387714D01*
X140801610Y-132387713D01*
X140713436Y-132342786D01*
X140619223Y-132294781D01*
X140424534Y-132231522D01*
X140249995Y-132203878D01*
X140222352Y-132199500D01*
X140017648Y-132199500D01*
X140008828Y-132200897D01*
X139815465Y-132231522D01*
X139620776Y-132294781D01*
X139438386Y-132387715D01*
X139272786Y-132508028D01*
X139128028Y-132652786D01*
X139007715Y-132818386D01*
X138914781Y-133000776D01*
X138851522Y-133195465D01*
X138819500Y-133397648D01*
X138819500Y-133602351D01*
X138851522Y-133804534D01*
X138914781Y-133999223D01*
X139007714Y-134181612D01*
X139128028Y-134347213D01*
X139272786Y-134491971D01*
X139427749Y-134604556D01*
X139438390Y-134612287D01*
X139554607Y-134671503D01*
X139620776Y-134705218D01*
X139620778Y-134705218D01*
X139620781Y-134705220D01*
X139725137Y-134739127D01*
X139815465Y-134768477D01*
X139916557Y-134784488D01*
X140017648Y-134800500D01*
X140017649Y-134800500D01*
X140222351Y-134800500D01*
X140222352Y-134800500D01*
X140424534Y-134768477D01*
X140619219Y-134705220D01*
X140801610Y-134612287D01*
X140922877Y-134524181D01*
X140988683Y-134500702D01*
X140995762Y-134500500D01*
X142744238Y-134500500D01*
X142811277Y-134520185D01*
X142817119Y-134524179D01*
X142938390Y-134612287D01*
X143054607Y-134671503D01*
X143120776Y-134705218D01*
X143120778Y-134705218D01*
X143120781Y-134705220D01*
X143225137Y-134739127D01*
X143315465Y-134768477D01*
X143416557Y-134784488D01*
X143517648Y-134800500D01*
X143517649Y-134800500D01*
X143722351Y-134800500D01*
X143722352Y-134800500D01*
X143924534Y-134768477D01*
X144119219Y-134705220D01*
X144301610Y-134612287D01*
X144395191Y-134544297D01*
X144467213Y-134491971D01*
X144467215Y-134491968D01*
X144467219Y-134491966D01*
X144611966Y-134347219D01*
X144611968Y-134347215D01*
X144611971Y-134347213D01*
X144732286Y-134181612D01*
X144825218Y-133999223D01*
X144825218Y-133999222D01*
X144825220Y-133999219D01*
X144888477Y-133804534D01*
X144920500Y-133602352D01*
X144920500Y-133397648D01*
X144904207Y-133294780D01*
X144888477Y-133195465D01*
X144849319Y-133074949D01*
X144825220Y-133000781D01*
X144825218Y-133000778D01*
X144825218Y-133000776D01*
X144787159Y-132926083D01*
X144732287Y-132818390D01*
X144706087Y-132782328D01*
X144644182Y-132697122D01*
X144620702Y-132631316D01*
X144620500Y-132624237D01*
X144620500Y-132204500D01*
X144640185Y-132137461D01*
X144692989Y-132091706D01*
X144744500Y-132080500D01*
X146645501Y-132080500D01*
X146712540Y-132100185D01*
X146758295Y-132152989D01*
X146769501Y-132204500D01*
X146769501Y-132587876D01*
X146775908Y-132647483D01*
X146826202Y-132782328D01*
X146826206Y-132782335D01*
X146912452Y-132897544D01*
X146912455Y-132897547D01*
X147027664Y-132983793D01*
X147027671Y-132983797D01*
X147159082Y-133032810D01*
X147215016Y-133074681D01*
X147239433Y-133140145D01*
X147224582Y-133208418D01*
X147203431Y-133236673D01*
X147089889Y-133350215D01*
X146964951Y-133522179D01*
X146868444Y-133711585D01*
X146802753Y-133913760D01*
X146777387Y-134073918D01*
X146769500Y-134123713D01*
X146769500Y-134336287D01*
X146772541Y-134355488D01*
X146802445Y-134544297D01*
X146802754Y-134546243D01*
X146867749Y-134746277D01*
X146868444Y-134748414D01*
X146964951Y-134937820D01*
X147089890Y-135109786D01*
X147240213Y-135260109D01*
X147412182Y-135385050D01*
X147420946Y-135389516D01*
X147471742Y-135437491D01*
X147488536Y-135505312D01*
X147465998Y-135571447D01*
X147420946Y-135610484D01*
X147412182Y-135614949D01*
X147240213Y-135739890D01*
X147089890Y-135890213D01*
X146964951Y-136062179D01*
X146868444Y-136251585D01*
X146802753Y-136453760D01*
X146794158Y-136508028D01*
X146769500Y-136663713D01*
X146769500Y-136876287D01*
X146802754Y-137086243D01*
X146867925Y-137286819D01*
X146868444Y-137288414D01*
X146964951Y-137477820D01*
X147089890Y-137649786D01*
X147240213Y-137800109D01*
X147412182Y-137925050D01*
X147420946Y-137929516D01*
X147471742Y-137977491D01*
X147488536Y-138045312D01*
X147465998Y-138111447D01*
X147420946Y-138150484D01*
X147412182Y-138154949D01*
X147240213Y-138279890D01*
X147089890Y-138430213D01*
X146964951Y-138602179D01*
X146868444Y-138791585D01*
X146802753Y-138993760D01*
X146769500Y-139203713D01*
X146769500Y-139416286D01*
X146802753Y-139626239D01*
X146868444Y-139828414D01*
X146964951Y-140017820D01*
X147089890Y-140189786D01*
X147240213Y-140340109D01*
X147412179Y-140465048D01*
X147412181Y-140465049D01*
X147412184Y-140465051D01*
X147601588Y-140561557D01*
X147803757Y-140627246D01*
X148013713Y-140660500D01*
X148013714Y-140660500D01*
X148226286Y-140660500D01*
X148226287Y-140660500D01*
X148436243Y-140627246D01*
X148638412Y-140561557D01*
X148827816Y-140465051D01*
X148903388Y-140410145D01*
X148999786Y-140340109D01*
X148999788Y-140340106D01*
X148999792Y-140340104D01*
X149150104Y-140189792D01*
X149150106Y-140189788D01*
X149150109Y-140189786D01*
X149275048Y-140017820D01*
X149275047Y-140017820D01*
X149275051Y-140017816D01*
X149371557Y-139828412D01*
X149437246Y-139626243D01*
X149470500Y-139416287D01*
X149470500Y-139203713D01*
X149455382Y-139108268D01*
X149464336Y-139038979D01*
X149490171Y-139001195D01*
X151204548Y-137286819D01*
X151265871Y-137253334D01*
X151292229Y-137250500D01*
X158957621Y-137250500D01*
X159024660Y-137270185D01*
X159070415Y-137322989D01*
X159080359Y-137392147D01*
X159080113Y-137393777D01*
X159079500Y-137397648D01*
X159079500Y-137397653D01*
X159079500Y-137602351D01*
X159111522Y-137804534D01*
X159174781Y-137999223D01*
X159206833Y-138062127D01*
X159251853Y-138150484D01*
X159267715Y-138181613D01*
X159388028Y-138347213D01*
X159532786Y-138491971D01*
X159684477Y-138602179D01*
X159698390Y-138612287D01*
X159814607Y-138671503D01*
X159880776Y-138705218D01*
X159880778Y-138705218D01*
X159880781Y-138705220D01*
X159985137Y-138739127D01*
X160075465Y-138768477D01*
X160176557Y-138784488D01*
X160277648Y-138800500D01*
X160277649Y-138800500D01*
X160482351Y-138800500D01*
X160482352Y-138800500D01*
X160684534Y-138768477D01*
X160879219Y-138705220D01*
X161061610Y-138612287D01*
X161154590Y-138544732D01*
X161227213Y-138491971D01*
X161227215Y-138491968D01*
X161227219Y-138491966D01*
X161371966Y-138347219D01*
X161371968Y-138347215D01*
X161371971Y-138347213D01*
X161424732Y-138274590D01*
X161492287Y-138181610D01*
X161585220Y-137999219D01*
X161648477Y-137804534D01*
X161680500Y-137602352D01*
X161680500Y-137397648D01*
X161663199Y-137288414D01*
X161648477Y-137195465D01*
X161585218Y-137000776D01*
X161521787Y-136876287D01*
X161492287Y-136818390D01*
X161484556Y-136807749D01*
X161371971Y-136652786D01*
X161227213Y-136508028D01*
X161061613Y-136387715D01*
X161061612Y-136387714D01*
X161061610Y-136387713D01*
X161004653Y-136358691D01*
X160879223Y-136294781D01*
X160684534Y-136231522D01*
X160509995Y-136203878D01*
X160482352Y-136199500D01*
X160482351Y-136199500D01*
X160432230Y-136199500D01*
X160402789Y-136190855D01*
X160372803Y-136184332D01*
X160367787Y-136180577D01*
X160365191Y-136179815D01*
X160344553Y-136163185D01*
X160193549Y-136012181D01*
X160160065Y-135950858D01*
X160165049Y-135881166D01*
X160206921Y-135825233D01*
X160272385Y-135800816D01*
X160281231Y-135800500D01*
X160482351Y-135800500D01*
X160482352Y-135800500D01*
X160684534Y-135768477D01*
X160879219Y-135705220D01*
X161061610Y-135612287D01*
X161154590Y-135544732D01*
X161227213Y-135491971D01*
X161227215Y-135491968D01*
X161227219Y-135491966D01*
X161371966Y-135347219D01*
X161371968Y-135347215D01*
X161371971Y-135347213D01*
X161424732Y-135274590D01*
X161492287Y-135181610D01*
X161585220Y-134999219D01*
X161648477Y-134804534D01*
X161680500Y-134602352D01*
X161680500Y-134397648D01*
X174319500Y-134397648D01*
X174319500Y-134602352D01*
X174323122Y-134625220D01*
X174351522Y-134804534D01*
X174414781Y-134999223D01*
X174507715Y-135181613D01*
X174628028Y-135347213D01*
X174772786Y-135491971D01*
X174882178Y-135571447D01*
X174938390Y-135612287D01*
X175054607Y-135671503D01*
X175120776Y-135705218D01*
X175120778Y-135705218D01*
X175120781Y-135705220D01*
X175225137Y-135739127D01*
X175315465Y-135768477D01*
X175399564Y-135781797D01*
X175517648Y-135800500D01*
X175517649Y-135800500D01*
X175722351Y-135800500D01*
X175722352Y-135800500D01*
X175924534Y-135768477D01*
X175924539Y-135768475D01*
X175924541Y-135768475D01*
X175974910Y-135752109D01*
X176044751Y-135750112D01*
X176104585Y-135786192D01*
X176135414Y-135848893D01*
X176127450Y-135918307D01*
X176100911Y-135957720D01*
X175885105Y-136173526D01*
X175823782Y-136207011D01*
X175778026Y-136208318D01*
X175722352Y-136199500D01*
X175517648Y-136199500D01*
X175493329Y-136203351D01*
X175315465Y-136231522D01*
X175120776Y-136294781D01*
X174938386Y-136387715D01*
X174772786Y-136508028D01*
X174628028Y-136652786D01*
X174507715Y-136818386D01*
X174414781Y-137000776D01*
X174351522Y-137195465D01*
X174319500Y-137397648D01*
X174319500Y-137602351D01*
X174351522Y-137804534D01*
X174414781Y-137999223D01*
X174446833Y-138062127D01*
X174491853Y-138150484D01*
X174507715Y-138181613D01*
X174628028Y-138347213D01*
X174772786Y-138491971D01*
X174924477Y-138602179D01*
X174938390Y-138612287D01*
X175054607Y-138671503D01*
X175120776Y-138705218D01*
X175120778Y-138705218D01*
X175120781Y-138705220D01*
X175225137Y-138739127D01*
X175315465Y-138768477D01*
X175416557Y-138784488D01*
X175517648Y-138800500D01*
X175517649Y-138800500D01*
X175722351Y-138800500D01*
X175722352Y-138800500D01*
X175924534Y-138768477D01*
X176119219Y-138705220D01*
X176301610Y-138612287D01*
X176394590Y-138544732D01*
X176467213Y-138491971D01*
X176467215Y-138491968D01*
X176467219Y-138491966D01*
X176611966Y-138347219D01*
X176611968Y-138347215D01*
X176611971Y-138347213D01*
X176664732Y-138274590D01*
X176732287Y-138181610D01*
X176825220Y-137999219D01*
X176888477Y-137804534D01*
X176920500Y-137602352D01*
X176920500Y-137397648D01*
X176911681Y-137341971D01*
X176920635Y-137272679D01*
X176946470Y-137234895D01*
X179702951Y-134478416D01*
X179785084Y-134355495D01*
X179841658Y-134218913D01*
X179849078Y-134181610D01*
X179870500Y-134073918D01*
X179870500Y-133625416D01*
X179890185Y-133558377D01*
X179921613Y-133525099D01*
X179967219Y-133491966D01*
X180111966Y-133347219D01*
X180111968Y-133347215D01*
X180111971Y-133347213D01*
X180183947Y-133248145D01*
X180232287Y-133181610D01*
X180325220Y-132999219D01*
X180388477Y-132804534D01*
X180420500Y-132602352D01*
X180420500Y-132397648D01*
X180389116Y-132199500D01*
X180388477Y-132195465D01*
X180325218Y-132000776D01*
X180268123Y-131888722D01*
X180232287Y-131818390D01*
X180219289Y-131800500D01*
X180144182Y-131697122D01*
X180120702Y-131631316D01*
X180120500Y-131624237D01*
X180120500Y-129875761D01*
X180140185Y-129808722D01*
X180144165Y-129802899D01*
X180232287Y-129681610D01*
X180325220Y-129499219D01*
X180388477Y-129304534D01*
X180420500Y-129102352D01*
X180420500Y-128897648D01*
X180397634Y-128753281D01*
X180388477Y-128695465D01*
X180325896Y-128502862D01*
X180325220Y-128500781D01*
X180325218Y-128500778D01*
X180325218Y-128500776D01*
X180270492Y-128393372D01*
X180232287Y-128318390D01*
X180182236Y-128249500D01*
X180111971Y-128152786D01*
X179967213Y-128008028D01*
X179801613Y-127887715D01*
X179801612Y-127887714D01*
X179801610Y-127887713D01*
X179716798Y-127844499D01*
X179619223Y-127794781D01*
X179424534Y-127731522D01*
X179249995Y-127703878D01*
X179222352Y-127699500D01*
X179017648Y-127699500D01*
X178993329Y-127703351D01*
X178815465Y-127731522D01*
X178620776Y-127794781D01*
X178438386Y-127887715D01*
X178272786Y-128008028D01*
X178128028Y-128152786D01*
X178094818Y-128198498D01*
X178039489Y-128241164D01*
X177969875Y-128247143D01*
X177908080Y-128214538D01*
X177873723Y-128153699D01*
X177870500Y-128125613D01*
X177870500Y-127862228D01*
X177890185Y-127795189D01*
X177906814Y-127774551D01*
X178854894Y-126826471D01*
X178916215Y-126792988D01*
X178961970Y-126791681D01*
X179017648Y-126800500D01*
X179017649Y-126800500D01*
X179222351Y-126800500D01*
X179222352Y-126800500D01*
X179424534Y-126768477D01*
X179619219Y-126705220D01*
X179801610Y-126612287D01*
X179919248Y-126526819D01*
X179967213Y-126491971D01*
X179967215Y-126491968D01*
X179967219Y-126491966D01*
X180111966Y-126347219D01*
X180111968Y-126347215D01*
X180111971Y-126347213D01*
X180196024Y-126231522D01*
X180232287Y-126181610D01*
X180325220Y-125999219D01*
X180388477Y-125804534D01*
X180420500Y-125602352D01*
X180420500Y-125397648D01*
X180388477Y-125195466D01*
X180385227Y-125185465D01*
X180325218Y-125000776D01*
X180274613Y-124901459D01*
X180232287Y-124818390D01*
X180197396Y-124770366D01*
X180111971Y-124652786D01*
X180076819Y-124617634D01*
X180043334Y-124556311D01*
X180040500Y-124529953D01*
X180040500Y-122875761D01*
X180060185Y-122808722D01*
X180064165Y-122802899D01*
X180152287Y-122681610D01*
X180245220Y-122499219D01*
X180308477Y-122304534D01*
X180340500Y-122102352D01*
X180340500Y-121897648D01*
X180318940Y-121761523D01*
X180308477Y-121695465D01*
X180267553Y-121569515D01*
X180245220Y-121500781D01*
X180245218Y-121500778D01*
X180245218Y-121500776D01*
X180209249Y-121430185D01*
X180152287Y-121318390D01*
X180129201Y-121286614D01*
X180031971Y-121152786D01*
X179887213Y-121008028D01*
X179721613Y-120887715D01*
X179721612Y-120887714D01*
X179721610Y-120887713D01*
X179664653Y-120858691D01*
X179539223Y-120794781D01*
X179344534Y-120731522D01*
X179169995Y-120703878D01*
X179142352Y-120699500D01*
X178937648Y-120699500D01*
X178913329Y-120703351D01*
X178735465Y-120731522D01*
X178540776Y-120794781D01*
X178358386Y-120887715D01*
X178192786Y-121008028D01*
X178048028Y-121152786D01*
X177927715Y-121318386D01*
X177834781Y-121500776D01*
X177771522Y-121695465D01*
X177739500Y-121897648D01*
X177739500Y-122102351D01*
X177771522Y-122304534D01*
X177834781Y-122499223D01*
X177917291Y-122661155D01*
X177927713Y-122681610D01*
X178015819Y-122802877D01*
X178039298Y-122868681D01*
X178039500Y-122875761D01*
X178039500Y-124734349D01*
X178019815Y-124801388D01*
X178015819Y-124807233D01*
X178007713Y-124818389D01*
X178007712Y-124818391D01*
X177914781Y-125000776D01*
X177851522Y-125195465D01*
X177827419Y-125347648D01*
X177819500Y-125397648D01*
X177819500Y-125602352D01*
X177825112Y-125637782D01*
X177828318Y-125658026D01*
X177819363Y-125727320D01*
X177793526Y-125765105D01*
X176537047Y-127021584D01*
X176537042Y-127021590D01*
X176509131Y-127063366D01*
X176509129Y-127063369D01*
X176487873Y-127095181D01*
X176454914Y-127144507D01*
X176398343Y-127281082D01*
X176398340Y-127281092D01*
X176369500Y-127426079D01*
X176369500Y-132637770D01*
X176349815Y-132704809D01*
X176333181Y-132725451D01*
X175885105Y-133173526D01*
X175823782Y-133207011D01*
X175778026Y-133208318D01*
X175722352Y-133199500D01*
X175517648Y-133199500D01*
X175493329Y-133203351D01*
X175315465Y-133231522D01*
X175120776Y-133294781D01*
X174938386Y-133387715D01*
X174772786Y-133508028D01*
X174628028Y-133652786D01*
X174507715Y-133818386D01*
X174414781Y-134000776D01*
X174351522Y-134195465D01*
X174319500Y-134397648D01*
X161680500Y-134397648D01*
X161648477Y-134195466D01*
X161585220Y-134000781D01*
X161585218Y-134000778D01*
X161585218Y-134000776D01*
X161547532Y-133926815D01*
X161492287Y-133818390D01*
X161482220Y-133804534D01*
X161371971Y-133652786D01*
X161227213Y-133508028D01*
X161061613Y-133387715D01*
X161061612Y-133387714D01*
X161061610Y-133387713D01*
X161004653Y-133358691D01*
X160879223Y-133294781D01*
X160684534Y-133231522D01*
X160507038Y-133203410D01*
X160482352Y-133199500D01*
X160277648Y-133199500D01*
X160253329Y-133203351D01*
X160075465Y-133231522D01*
X159880776Y-133294781D01*
X159698386Y-133387715D01*
X159532786Y-133508028D01*
X159388028Y-133652786D01*
X159267715Y-133818386D01*
X159174781Y-134000776D01*
X159111522Y-134195465D01*
X159079500Y-134397648D01*
X159079500Y-134602352D01*
X159080094Y-134606106D01*
X159071139Y-134675397D01*
X159026142Y-134728848D01*
X158959390Y-134749487D01*
X158957621Y-134749500D01*
X156994387Y-134749500D01*
X156927348Y-134729815D01*
X156881593Y-134677011D01*
X156871649Y-134607853D01*
X156900674Y-134544297D01*
X156921502Y-134525182D01*
X156967213Y-134491971D01*
X156967215Y-134491968D01*
X156967219Y-134491966D01*
X157111966Y-134347219D01*
X157111968Y-134347215D01*
X157111971Y-134347213D01*
X157232286Y-134181612D01*
X157325218Y-133999223D01*
X157325218Y-133999222D01*
X157325220Y-133999219D01*
X157388477Y-133804534D01*
X157420500Y-133602352D01*
X157420500Y-133397648D01*
X157404207Y-133294780D01*
X157388477Y-133195465D01*
X157349319Y-133074949D01*
X157325220Y-133000781D01*
X157325218Y-133000778D01*
X157325218Y-133000776D01*
X157287159Y-132926083D01*
X157232287Y-132818390D01*
X157206087Y-132782328D01*
X157111971Y-132652786D01*
X156967213Y-132508028D01*
X156801613Y-132387715D01*
X156801612Y-132387714D01*
X156801610Y-132387713D01*
X156713436Y-132342786D01*
X156619223Y-132294781D01*
X156424534Y-132231522D01*
X156249995Y-132203878D01*
X156222352Y-132199500D01*
X156017648Y-132199500D01*
X156008828Y-132200897D01*
X155815465Y-132231522D01*
X155620776Y-132294781D01*
X155438386Y-132387715D01*
X155317123Y-132475818D01*
X155251317Y-132499298D01*
X155244238Y-132499500D01*
X153744500Y-132499500D01*
X153677461Y-132479815D01*
X153631706Y-132427011D01*
X153620500Y-132375500D01*
X153620500Y-131955761D01*
X153640185Y-131888722D01*
X153644165Y-131882899D01*
X153732287Y-131761610D01*
X153825220Y-131579219D01*
X153888477Y-131384534D01*
X153920500Y-131182352D01*
X153920500Y-130977648D01*
X153888477Y-130775466D01*
X153825220Y-130580781D01*
X153825218Y-130580778D01*
X153825218Y-130580776D01*
X153773264Y-130478812D01*
X153764083Y-130460794D01*
X153751188Y-130392127D01*
X153777464Y-130327387D01*
X153834570Y-130287129D01*
X153874569Y-130280501D01*
X158729140Y-130280501D01*
X158796179Y-130300186D01*
X158841934Y-130352990D01*
X158850041Y-130379889D01*
X158850388Y-130379806D01*
X158851522Y-130384534D01*
X158914781Y-130579223D01*
X158978691Y-130704653D01*
X158992889Y-130732517D01*
X159007715Y-130761613D01*
X159128028Y-130927213D01*
X159272786Y-131071971D01*
X159427749Y-131184556D01*
X159438390Y-131192287D01*
X159554607Y-131251503D01*
X159620776Y-131285218D01*
X159620778Y-131285218D01*
X159620781Y-131285220D01*
X159705839Y-131312857D01*
X159815465Y-131348477D01*
X159916557Y-131364488D01*
X160017648Y-131380500D01*
X160017649Y-131380500D01*
X160222351Y-131380500D01*
X160222352Y-131380500D01*
X160424534Y-131348477D01*
X160619219Y-131285220D01*
X160801610Y-131192287D01*
X160894590Y-131124732D01*
X160967213Y-131071971D01*
X160967215Y-131071968D01*
X160967219Y-131071966D01*
X161111966Y-130927219D01*
X161111968Y-130927215D01*
X161111971Y-130927213D01*
X161201101Y-130804534D01*
X161232287Y-130761610D01*
X161325220Y-130579219D01*
X161388477Y-130384534D01*
X161420500Y-130182352D01*
X161420500Y-129977648D01*
X161406362Y-129888386D01*
X161388477Y-129775465D01*
X161325218Y-129580776D01*
X161283662Y-129499219D01*
X161232287Y-129398390D01*
X161186367Y-129335186D01*
X161111971Y-129232786D01*
X160967213Y-129088028D01*
X160801613Y-128967715D01*
X160801612Y-128967714D01*
X160801610Y-128967713D01*
X160725267Y-128928814D01*
X160619223Y-128874781D01*
X160424535Y-128811523D01*
X160276483Y-128788073D01*
X160257252Y-128778956D01*
X160236455Y-128774432D01*
X160217021Y-128759883D01*
X160213349Y-128758143D01*
X160208201Y-128753281D01*
X160104210Y-128649290D01*
X160104208Y-128649287D01*
X160104207Y-128649286D01*
X160104207Y-128649287D01*
X160097140Y-128642220D01*
X160097140Y-128642219D01*
X159957783Y-128502862D01*
X159957782Y-128502861D01*
X159957781Y-128502860D01*
X159793921Y-128393372D01*
X159793908Y-128393365D01*
X159659977Y-128337890D01*
X159659974Y-128337889D01*
X159651874Y-128334534D01*
X159611837Y-128317950D01*
X159484726Y-128292666D01*
X159481368Y-128291998D01*
X159481364Y-128291997D01*
X159418544Y-128279501D01*
X159418542Y-128279501D01*
X159054780Y-128279501D01*
X158987741Y-128259816D01*
X158941986Y-128207012D01*
X158932042Y-128137854D01*
X158961067Y-128074298D01*
X158967099Y-128067820D01*
X160379700Y-126655220D01*
X164777140Y-122257781D01*
X164839731Y-122164106D01*
X164886632Y-122093914D01*
X164942915Y-121958034D01*
X164958461Y-121920503D01*
X164961997Y-121911966D01*
X164962051Y-121911836D01*
X164964874Y-121897648D01*
X164982978Y-121806631D01*
X164982978Y-121806630D01*
X165000500Y-121718541D01*
X165000500Y-119875761D01*
X165020185Y-119808722D01*
X165024165Y-119802899D01*
X165112287Y-119681610D01*
X165205220Y-119499219D01*
X165268477Y-119304534D01*
X165300500Y-119102352D01*
X165300500Y-118897648D01*
X165286256Y-118807715D01*
X165268477Y-118695465D01*
X165231794Y-118582568D01*
X165205220Y-118500781D01*
X165205218Y-118500778D01*
X165205218Y-118500776D01*
X165168065Y-118427861D01*
X165112287Y-118318390D01*
X165060177Y-118246666D01*
X164991971Y-118152786D01*
X164847213Y-118008028D01*
X164681613Y-117887715D01*
X164681612Y-117887714D01*
X164681610Y-117887713D01*
X164624653Y-117858691D01*
X164499223Y-117794781D01*
X164304534Y-117731522D01*
X164129995Y-117703878D01*
X164102352Y-117699500D01*
X164054781Y-117699500D01*
X164033535Y-117693261D01*
X164011448Y-117691682D01*
X164000664Y-117683609D01*
X163987742Y-117679815D01*
X163973243Y-117663083D01*
X163955514Y-117649811D01*
X163950806Y-117637188D01*
X163941987Y-117627011D01*
X163938835Y-117605094D01*
X163931097Y-117584346D01*
X163933959Y-117571185D01*
X163932043Y-117557853D01*
X163941242Y-117537709D01*
X163945949Y-117516073D01*
X163959218Y-117498345D01*
X163961068Y-117494297D01*
X163967079Y-117487840D01*
X164135732Y-117319186D01*
X164197052Y-117285704D01*
X164203963Y-117284405D01*
X164304534Y-117268477D01*
X164499219Y-117205220D01*
X164681610Y-117112287D01*
X164804799Y-117022786D01*
X164847213Y-116991971D01*
X164847215Y-116991968D01*
X164847219Y-116991966D01*
X164991966Y-116847219D01*
X164991968Y-116847215D01*
X164991971Y-116847213D01*
X165066008Y-116745308D01*
X165112287Y-116681610D01*
X165205220Y-116499219D01*
X165268477Y-116304534D01*
X165300500Y-116102352D01*
X165300500Y-115897648D01*
X165287484Y-115815468D01*
X165268477Y-115695465D01*
X165205218Y-115500776D01*
X165170353Y-115432351D01*
X165112287Y-115318390D01*
X165094419Y-115293796D01*
X164991971Y-115152786D01*
X164847213Y-115008028D01*
X164681613Y-114887715D01*
X164681612Y-114887714D01*
X164681610Y-114887713D01*
X164610583Y-114851523D01*
X164499223Y-114794781D01*
X164304534Y-114731522D01*
X164129995Y-114703878D01*
X164102352Y-114699500D01*
X163897648Y-114699500D01*
X163873329Y-114703351D01*
X163695465Y-114731522D01*
X163500776Y-114794781D01*
X163318386Y-114887715D01*
X163152786Y-115008028D01*
X163008028Y-115152786D01*
X162887715Y-115318386D01*
X162794781Y-115500776D01*
X162731522Y-115695465D01*
X162700546Y-115891041D01*
X162670617Y-115954176D01*
X162665754Y-115959324D01*
X160031797Y-118593281D01*
X159970474Y-118626766D01*
X159963515Y-118628073D01*
X159815468Y-118651522D01*
X159620778Y-118714781D01*
X159438386Y-118807715D01*
X159272786Y-118928028D01*
X159128028Y-119072786D01*
X159007715Y-119238386D01*
X158914781Y-119420776D01*
X158851522Y-119615465D01*
X158819500Y-119817648D01*
X158819500Y-120022351D01*
X158851522Y-120224534D01*
X158914781Y-120419223D01*
X159007715Y-120601613D01*
X159128028Y-120767213D01*
X159272786Y-120911971D01*
X159427749Y-121024556D01*
X159438390Y-121032287D01*
X159527257Y-121077567D01*
X159620776Y-121125218D01*
X159620778Y-121125218D01*
X159620781Y-121125220D01*
X159710025Y-121154217D01*
X159815465Y-121188477D01*
X159916557Y-121204488D01*
X160017648Y-121220500D01*
X160017649Y-121220500D01*
X160222351Y-121220500D01*
X160222352Y-121220500D01*
X160424534Y-121188477D01*
X160619219Y-121125220D01*
X160801610Y-121032287D01*
X160956752Y-120919571D01*
X160967213Y-120911971D01*
X160967215Y-120911968D01*
X160967219Y-120911966D01*
X161111966Y-120767219D01*
X161111968Y-120767215D01*
X161111971Y-120767213D01*
X161179305Y-120674534D01*
X161232287Y-120601610D01*
X161325220Y-120419219D01*
X161388477Y-120224534D01*
X161411925Y-120076483D01*
X161441854Y-120013350D01*
X161446699Y-120008219D01*
X162487820Y-118967099D01*
X162549142Y-118933615D01*
X162618834Y-118938599D01*
X162674767Y-118980471D01*
X162699184Y-119045935D01*
X162699500Y-119054781D01*
X162699500Y-119102351D01*
X162731522Y-119304534D01*
X162794781Y-119499223D01*
X162879293Y-119665085D01*
X162887713Y-119681610D01*
X162975819Y-119802877D01*
X162999298Y-119868681D01*
X162999500Y-119875761D01*
X162999500Y-121154217D01*
X162979815Y-121221256D01*
X162963181Y-121241898D01*
X157741899Y-126463181D01*
X157680576Y-126496666D01*
X157654218Y-126499500D01*
X140615762Y-126499500D01*
X140548723Y-126479815D01*
X140542877Y-126475818D01*
X140496283Y-126441966D01*
X140421610Y-126387713D01*
X140364653Y-126358691D01*
X140239223Y-126294781D01*
X140044534Y-126231522D01*
X139869995Y-126203878D01*
X139842352Y-126199500D01*
X139637648Y-126199500D01*
X139613329Y-126203351D01*
X139435465Y-126231522D01*
X139240776Y-126294781D01*
X139058386Y-126387715D01*
X138892786Y-126508028D01*
X138748028Y-126652786D01*
X138627715Y-126818386D01*
X138534781Y-127000776D01*
X138471522Y-127195465D01*
X138439500Y-127397648D01*
X125800500Y-127397648D01*
X125782038Y-127281087D01*
X125768477Y-127195465D01*
X125714239Y-127028538D01*
X125705220Y-127000781D01*
X125705218Y-127000778D01*
X125705218Y-127000776D01*
X125662760Y-126917449D01*
X125612287Y-126818390D01*
X125592882Y-126791681D01*
X125491971Y-126652786D01*
X125347213Y-126508028D01*
X125181613Y-126387715D01*
X125181612Y-126387714D01*
X125181610Y-126387713D01*
X125124653Y-126358691D01*
X124999223Y-126294781D01*
X124838106Y-126242431D01*
X124780431Y-126202993D01*
X124753233Y-126138634D01*
X124765148Y-126069788D01*
X124812392Y-126018312D01*
X124876425Y-126000500D01*
X125218543Y-126000500D01*
X125348582Y-125974632D01*
X125411835Y-125962051D01*
X125593914Y-125886632D01*
X125757782Y-125777139D01*
X125897139Y-125637782D01*
X126006632Y-125473914D01*
X126082051Y-125291835D01*
X126101220Y-125195466D01*
X126120500Y-125098543D01*
X126120500Y-124901459D01*
X126109909Y-124848217D01*
X126116135Y-124778629D01*
X126158650Y-124723703D01*
X126162656Y-124720793D01*
X126340793Y-124542656D01*
X126488870Y-124338845D01*
X126603241Y-124114379D01*
X126681090Y-123874785D01*
X126720500Y-123625962D01*
X126720500Y-123374038D01*
X126681090Y-123125215D01*
X126603241Y-122885621D01*
X126603239Y-122885618D01*
X126603239Y-122885616D01*
X126521638Y-122725466D01*
X126488870Y-122661155D01*
X126394148Y-122530781D01*
X126340798Y-122457350D01*
X126340794Y-122457345D01*
X126162654Y-122279205D01*
X126162649Y-122279201D01*
X125958848Y-122131132D01*
X125958847Y-122131131D01*
X125958845Y-122131130D01*
X125885799Y-122093911D01*
X125734383Y-122016760D01*
X125494785Y-121938910D01*
X125412126Y-121925818D01*
X125245962Y-121899500D01*
X124994038Y-121899500D01*
X124879047Y-121917713D01*
X124745214Y-121938910D01*
X124505616Y-122016760D01*
X124281151Y-122131132D01*
X124077350Y-122279201D01*
X124077345Y-122279205D01*
X123899205Y-122457345D01*
X123899201Y-122457350D01*
X123751132Y-122661151D01*
X123636760Y-122885616D01*
X123558910Y-123125214D01*
X123546239Y-123205218D01*
X123519500Y-123374038D01*
X123519500Y-123625962D01*
X123533066Y-123711613D01*
X123555951Y-123856102D01*
X123546996Y-123925395D01*
X123502000Y-123978847D01*
X123435249Y-123999487D01*
X123433478Y-123999500D01*
X118511455Y-123999500D01*
X118414812Y-124018724D01*
X118318167Y-124037947D01*
X118318161Y-124037949D01*
X118264834Y-124060037D01*
X118264834Y-124060038D01*
X118259405Y-124062287D01*
X118136087Y-124113367D01*
X118124498Y-124121110D01*
X118114514Y-124127782D01*
X118113285Y-124128603D01*
X118046607Y-124149480D01*
X118044395Y-124149500D01*
X117559998Y-124149500D01*
X117559980Y-124149501D01*
X117457203Y-124160000D01*
X117457200Y-124160001D01*
X117290668Y-124215185D01*
X117290663Y-124215187D01*
X117141342Y-124307289D01*
X117017288Y-124431343D01*
X117012807Y-124437011D01*
X117011642Y-124436089D01*
X116965797Y-124477323D01*
X116912210Y-124489500D01*
X113535762Y-124489500D01*
X113468723Y-124469815D01*
X113462877Y-124465818D01*
X113341613Y-124377715D01*
X113341612Y-124377714D01*
X113341610Y-124377713D01*
X113248917Y-124330483D01*
X113198123Y-124282511D01*
X113181328Y-124214690D01*
X113203865Y-124148555D01*
X113248917Y-124109516D01*
X113341610Y-124062287D01*
X113375111Y-124037947D01*
X113507213Y-123941971D01*
X113507215Y-123941968D01*
X113507219Y-123941966D01*
X113651966Y-123797219D01*
X113651968Y-123797215D01*
X113651971Y-123797213D01*
X113746008Y-123667780D01*
X113772287Y-123631610D01*
X113865220Y-123449219D01*
X113928477Y-123254534D01*
X113960500Y-123052352D01*
X113960500Y-122847648D01*
X113928477Y-122645466D01*
X113865220Y-122450781D01*
X113865218Y-122450778D01*
X113865218Y-122450776D01*
X113790703Y-122304534D01*
X113772287Y-122268390D01*
X113737493Y-122220500D01*
X113651971Y-122102786D01*
X113507213Y-121958028D01*
X113341614Y-121837715D01*
X113317264Y-121825308D01*
X113248917Y-121790483D01*
X113198123Y-121742511D01*
X113181328Y-121674690D01*
X113203865Y-121608555D01*
X113248917Y-121569516D01*
X113341610Y-121522287D01*
X113462877Y-121434181D01*
X113528683Y-121410702D01*
X113535762Y-121410500D01*
X117230193Y-121410500D01*
X117297232Y-121430185D01*
X117310731Y-121440215D01*
X117312788Y-121441972D01*
X117423330Y-121522284D01*
X117478390Y-121562287D01*
X117555566Y-121601610D01*
X117660776Y-121655218D01*
X117660778Y-121655218D01*
X117660781Y-121655220D01*
X117753392Y-121685311D01*
X117855465Y-121718477D01*
X117925061Y-121729500D01*
X118057648Y-121750500D01*
X118057649Y-121750500D01*
X118262351Y-121750500D01*
X118262352Y-121750500D01*
X118464534Y-121718477D01*
X118659219Y-121655220D01*
X118841610Y-121562287D01*
X118962877Y-121474181D01*
X119028683Y-121450702D01*
X119035762Y-121450500D01*
X126388542Y-121450500D01*
X126419566Y-121444328D01*
X126485188Y-121431275D01*
X126581836Y-121412051D01*
X126635165Y-121389961D01*
X126763914Y-121336632D01*
X126927782Y-121227139D01*
X127067139Y-121087782D01*
X127067139Y-121087780D01*
X127077347Y-121077573D01*
X127077348Y-121077570D01*
X130708204Y-117446715D01*
X130769525Y-117413232D01*
X130776475Y-117411926D01*
X130924534Y-117388477D01*
X131119219Y-117325220D01*
X131301610Y-117232287D01*
X131416140Y-117149077D01*
X131467213Y-117111971D01*
X131467215Y-117111968D01*
X131467219Y-117111966D01*
X131611966Y-116967219D01*
X131611968Y-116967215D01*
X131611971Y-116967213D01*
X131676762Y-116878034D01*
X131732287Y-116801610D01*
X131825220Y-116619219D01*
X131888477Y-116424534D01*
X131920500Y-116222352D01*
X131920500Y-116017648D01*
X137319500Y-116017648D01*
X137319500Y-116222351D01*
X137351522Y-116424534D01*
X137414781Y-116619223D01*
X137463678Y-116715187D01*
X137503551Y-116793442D01*
X137507715Y-116801613D01*
X137628028Y-116967213D01*
X137772786Y-117111971D01*
X137877970Y-117188390D01*
X137938390Y-117232287D01*
X138009417Y-117268477D01*
X138120776Y-117325218D01*
X138120778Y-117325218D01*
X138120781Y-117325220D01*
X138225137Y-117359127D01*
X138315465Y-117388477D01*
X138392966Y-117400751D01*
X138463513Y-117411925D01*
X138526648Y-117441854D01*
X138531797Y-117446717D01*
X142350643Y-121265563D01*
X142380892Y-121314924D01*
X142382019Y-121318390D01*
X142414781Y-121419223D01*
X142456335Y-121500776D01*
X142487675Y-121562284D01*
X142507715Y-121601613D01*
X142628028Y-121767213D01*
X142772786Y-121911971D01*
X142917017Y-122016759D01*
X142938390Y-122032287D01*
X143054607Y-122091503D01*
X143120776Y-122125218D01*
X143120778Y-122125218D01*
X143120781Y-122125220D01*
X143225137Y-122159127D01*
X143315465Y-122188477D01*
X143416557Y-122204488D01*
X143517648Y-122220500D01*
X143517649Y-122220500D01*
X143722351Y-122220500D01*
X143722352Y-122220500D01*
X143924534Y-122188477D01*
X144119219Y-122125220D01*
X144301610Y-122032287D01*
X144403820Y-121958028D01*
X144467213Y-121911971D01*
X144467215Y-121911968D01*
X144467219Y-121911966D01*
X144611966Y-121767219D01*
X144611968Y-121767215D01*
X144611971Y-121767213D01*
X144693337Y-121655220D01*
X144732287Y-121601610D01*
X144822872Y-121423827D01*
X144825218Y-121419223D01*
X144825218Y-121419222D01*
X144825220Y-121419219D01*
X144888477Y-121224534D01*
X144920500Y-121022352D01*
X144920500Y-120817648D01*
X151319500Y-120817648D01*
X151319500Y-121022351D01*
X151351522Y-121224534D01*
X151414781Y-121419223D01*
X151456335Y-121500776D01*
X151487675Y-121562284D01*
X151507715Y-121601613D01*
X151628028Y-121767213D01*
X151772786Y-121911971D01*
X151917017Y-122016759D01*
X151938390Y-122032287D01*
X152054607Y-122091503D01*
X152120776Y-122125218D01*
X152120778Y-122125218D01*
X152120781Y-122125220D01*
X152225137Y-122159127D01*
X152315465Y-122188477D01*
X152416557Y-122204488D01*
X152517648Y-122220500D01*
X152517649Y-122220500D01*
X152722351Y-122220500D01*
X152722352Y-122220500D01*
X152924534Y-122188477D01*
X153119219Y-122125220D01*
X153301610Y-122032287D01*
X153403820Y-121958028D01*
X153467213Y-121911971D01*
X153467215Y-121911968D01*
X153467219Y-121911966D01*
X153611966Y-121767219D01*
X153611968Y-121767215D01*
X153611971Y-121767213D01*
X153693337Y-121655220D01*
X153732287Y-121601610D01*
X153822872Y-121423827D01*
X153825218Y-121419223D01*
X153825218Y-121419222D01*
X153825220Y-121419219D01*
X153888477Y-121224534D01*
X153920500Y-121022352D01*
X153920500Y-120817648D01*
X153888477Y-120615466D01*
X153826363Y-120424301D01*
X153824369Y-120354462D01*
X153856612Y-120298306D01*
X156708204Y-117446715D01*
X156769525Y-117413232D01*
X156776475Y-117411926D01*
X156924534Y-117388477D01*
X157119219Y-117325220D01*
X157301610Y-117232287D01*
X157416140Y-117149077D01*
X157467213Y-117111971D01*
X157467215Y-117111968D01*
X157467219Y-117111966D01*
X157611966Y-116967219D01*
X157611968Y-116967215D01*
X157611971Y-116967213D01*
X157676762Y-116878034D01*
X157732287Y-116801610D01*
X157825220Y-116619219D01*
X157888477Y-116424534D01*
X157920500Y-116222352D01*
X157920500Y-116017648D01*
X157910447Y-115954176D01*
X157888477Y-115815465D01*
X157847216Y-115688478D01*
X157825220Y-115620781D01*
X157825218Y-115620778D01*
X157825218Y-115620776D01*
X157791503Y-115554607D01*
X157732287Y-115438390D01*
X157724556Y-115427749D01*
X157611971Y-115272786D01*
X157467213Y-115128028D01*
X157301613Y-115007715D01*
X157301612Y-115007714D01*
X157301610Y-115007713D01*
X157239013Y-114975818D01*
X157119223Y-114914781D01*
X156924534Y-114851522D01*
X156749995Y-114823878D01*
X156722352Y-114819500D01*
X156517648Y-114819500D01*
X156493329Y-114823351D01*
X156315465Y-114851522D01*
X156120776Y-114914781D01*
X155938386Y-115007715D01*
X155772786Y-115128028D01*
X155628028Y-115272786D01*
X155507715Y-115438386D01*
X155414781Y-115620778D01*
X155351522Y-115815468D01*
X155328073Y-115963514D01*
X155298143Y-116026649D01*
X155293281Y-116031796D01*
X152805436Y-118519643D01*
X151982220Y-119342859D01*
X151982218Y-119342861D01*
X151947052Y-119378027D01*
X151842859Y-119482219D01*
X151733371Y-119646080D01*
X151733366Y-119646089D01*
X151701351Y-119723380D01*
X151701347Y-119723391D01*
X151699277Y-119728390D01*
X151657949Y-119828164D01*
X151641515Y-119910781D01*
X151640195Y-119917413D01*
X151640194Y-119917419D01*
X151619500Y-120021455D01*
X151619500Y-120044237D01*
X151599815Y-120111276D01*
X151595818Y-120117122D01*
X151507715Y-120238386D01*
X151414781Y-120420776D01*
X151351522Y-120615465D01*
X151319500Y-120817648D01*
X144920500Y-120817648D01*
X144888477Y-120615466D01*
X144825220Y-120420781D01*
X144825218Y-120420778D01*
X144825218Y-120420776D01*
X144791429Y-120354462D01*
X144732287Y-120238390D01*
X144708188Y-120205220D01*
X144611971Y-120072786D01*
X144467213Y-119928028D01*
X144301613Y-119807715D01*
X144301612Y-119807714D01*
X144301610Y-119807713D01*
X144244653Y-119778691D01*
X144119223Y-119714781D01*
X143924534Y-119651522D01*
X143749995Y-119623878D01*
X143722352Y-119619500D01*
X143722351Y-119619500D01*
X143585782Y-119619500D01*
X143518743Y-119599815D01*
X143498101Y-119583181D01*
X139946717Y-116031797D01*
X139913232Y-115970474D01*
X139911925Y-115963513D01*
X139888477Y-115815466D01*
X139888477Y-115815465D01*
X139847216Y-115688478D01*
X139825220Y-115620781D01*
X139825218Y-115620778D01*
X139825218Y-115620776D01*
X139791503Y-115554607D01*
X139732287Y-115438390D01*
X139724556Y-115427749D01*
X139611971Y-115272786D01*
X139467213Y-115128028D01*
X139301613Y-115007715D01*
X139301612Y-115007714D01*
X139301610Y-115007713D01*
X139239013Y-114975818D01*
X139119223Y-114914781D01*
X138924534Y-114851522D01*
X138749995Y-114823878D01*
X138722352Y-114819500D01*
X138517648Y-114819500D01*
X138493329Y-114823351D01*
X138315465Y-114851522D01*
X138120776Y-114914781D01*
X137938386Y-115007715D01*
X137772786Y-115128028D01*
X137628028Y-115272786D01*
X137507715Y-115438386D01*
X137414781Y-115620776D01*
X137351522Y-115815465D01*
X137319500Y-116017648D01*
X131920500Y-116017648D01*
X131910447Y-115954176D01*
X131888477Y-115815465D01*
X131847216Y-115688478D01*
X131825220Y-115620781D01*
X131825218Y-115620778D01*
X131825218Y-115620776D01*
X131791503Y-115554607D01*
X131732287Y-115438390D01*
X131724556Y-115427749D01*
X131611971Y-115272786D01*
X131467213Y-115128028D01*
X131301613Y-115007715D01*
X131301612Y-115007714D01*
X131301610Y-115007713D01*
X131239013Y-114975818D01*
X131119223Y-114914781D01*
X130924534Y-114851522D01*
X130749995Y-114823878D01*
X130722352Y-114819500D01*
X130517648Y-114819500D01*
X130493329Y-114823351D01*
X130315465Y-114851522D01*
X130120776Y-114914781D01*
X129938386Y-115007715D01*
X129772786Y-115128028D01*
X129628028Y-115272786D01*
X129507715Y-115438386D01*
X129414781Y-115620778D01*
X129351522Y-115815468D01*
X129328073Y-115963514D01*
X129298143Y-116026649D01*
X129293281Y-116031796D01*
X125911899Y-119413181D01*
X125850576Y-119446666D01*
X125824218Y-119449500D01*
X119035762Y-119449500D01*
X119015341Y-119443503D01*
X118994092Y-119442289D01*
X118972621Y-119430959D01*
X118968723Y-119429815D01*
X118962877Y-119425818D01*
X118951358Y-119417449D01*
X118908692Y-119362119D01*
X118902713Y-119292506D01*
X118935318Y-119230711D01*
X118985236Y-119199426D01*
X119029334Y-119184814D01*
X119178656Y-119092712D01*
X119284550Y-118986818D01*
X119345873Y-118953334D01*
X119372231Y-118950500D01*
X122108543Y-118950500D01*
X122139428Y-118944355D01*
X122231297Y-118926082D01*
X122301836Y-118912051D01*
X122355165Y-118889961D01*
X122483914Y-118836632D01*
X122647782Y-118727139D01*
X122787139Y-118587782D01*
X122787140Y-118587779D01*
X122794206Y-118580714D01*
X122794208Y-118580710D01*
X125897139Y-115477781D01*
X126006631Y-115313914D01*
X126082051Y-115131836D01*
X126108072Y-115001015D01*
X126140456Y-114939107D01*
X126190683Y-114907503D01*
X126289335Y-114874814D01*
X126438656Y-114782712D01*
X126562712Y-114658656D01*
X126654814Y-114509335D01*
X126709999Y-114342798D01*
X126720500Y-114240010D01*
X126720500Y-112439990D01*
X126709999Y-112337202D01*
X126654814Y-112170665D01*
X126562712Y-112021344D01*
X126438656Y-111897288D01*
X126289335Y-111805186D01*
X126122798Y-111750001D01*
X126122796Y-111750000D01*
X126020017Y-111739500D01*
X126020010Y-111739500D01*
X124219990Y-111739500D01*
X124219982Y-111739500D01*
X124117203Y-111750000D01*
X124117202Y-111750001D01*
X124034669Y-111777349D01*
X123950667Y-111805185D01*
X123950662Y-111805187D01*
X123801342Y-111897289D01*
X123677289Y-112021342D01*
X123585187Y-112170662D01*
X123585186Y-112170665D01*
X123530001Y-112337202D01*
X123530001Y-112337203D01*
X123530000Y-112337203D01*
X123519500Y-112439982D01*
X123519500Y-114240017D01*
X123530000Y-114342796D01*
X123579823Y-114493150D01*
X123585186Y-114509335D01*
X123670953Y-114648386D01*
X123677289Y-114658657D01*
X123694175Y-114675543D01*
X123727660Y-114736866D01*
X123722676Y-114806558D01*
X123694175Y-114850905D01*
X121631899Y-116913181D01*
X121570576Y-116946666D01*
X121544218Y-116949500D01*
X119372231Y-116949500D01*
X119305192Y-116929815D01*
X119284550Y-116913182D01*
X119238034Y-116866666D01*
X119178656Y-116807288D01*
X119074276Y-116742906D01*
X119029336Y-116715187D01*
X119029331Y-116715185D01*
X119015147Y-116710485D01*
X118862797Y-116660001D01*
X118862795Y-116660000D01*
X118760010Y-116649500D01*
X117559998Y-116649500D01*
X117559981Y-116649501D01*
X117457203Y-116660000D01*
X117457200Y-116660001D01*
X117290668Y-116715185D01*
X117290663Y-116715187D01*
X117141342Y-116807289D01*
X117115451Y-116833181D01*
X117054128Y-116866666D01*
X117027770Y-116869500D01*
X113535762Y-116869500D01*
X113468723Y-116849815D01*
X113462877Y-116845818D01*
X113442539Y-116831042D01*
X113341610Y-116757713D01*
X113248917Y-116710483D01*
X113198123Y-116662511D01*
X113181328Y-116594690D01*
X113203865Y-116528555D01*
X113248917Y-116489516D01*
X113341610Y-116442287D01*
X113395746Y-116402955D01*
X113507213Y-116321971D01*
X113507215Y-116321968D01*
X113507219Y-116321966D01*
X113651966Y-116177219D01*
X113651968Y-116177215D01*
X113651971Y-116177213D01*
X113706360Y-116102351D01*
X113772287Y-116011610D01*
X113865220Y-115829219D01*
X113928477Y-115634534D01*
X113960500Y-115432352D01*
X113960500Y-115227648D01*
X113947388Y-115144861D01*
X113928477Y-115025465D01*
X113887019Y-114897872D01*
X113865220Y-114830781D01*
X113865218Y-114830778D01*
X113865218Y-114830776D01*
X113814645Y-114731522D01*
X113772287Y-114648390D01*
X113757158Y-114627567D01*
X113651971Y-114482786D01*
X113507213Y-114338028D01*
X113341613Y-114217715D01*
X113341612Y-114217714D01*
X113341610Y-114217713D01*
X113284653Y-114188691D01*
X113159223Y-114124781D01*
X112964534Y-114061522D01*
X112789995Y-114033878D01*
X112762352Y-114029500D01*
X112557648Y-114029500D01*
X112533329Y-114033351D01*
X112355465Y-114061522D01*
X112160776Y-114124781D01*
X111978390Y-114217712D01*
X111857385Y-114305627D01*
X111791578Y-114329106D01*
X111723524Y-114313280D01*
X111674830Y-114263174D01*
X111660500Y-114205308D01*
X111660500Y-113205632D01*
X111680185Y-113138593D01*
X111684177Y-113132753D01*
X111686760Y-113129199D01*
X111772547Y-112960832D01*
X111830940Y-112781118D01*
X111842805Y-112706204D01*
X111860500Y-112594486D01*
X111860500Y-112405513D01*
X111830940Y-112218881D01*
X111772545Y-112039163D01*
X111700256Y-111897289D01*
X111686760Y-111870801D01*
X111575690Y-111717927D01*
X111442073Y-111584310D01*
X111289199Y-111473240D01*
X111120836Y-111387454D01*
X110941118Y-111329059D01*
X110754486Y-111299500D01*
X110754481Y-111299500D01*
X110565519Y-111299500D01*
X110565514Y-111299500D01*
X110378881Y-111329059D01*
X110199163Y-111387454D01*
X110030800Y-111473240D01*
X109943579Y-111536610D01*
X109877927Y-111584310D01*
X109877925Y-111584312D01*
X109877924Y-111584312D01*
X109744312Y-111717924D01*
X109744312Y-111717925D01*
X109744310Y-111717927D01*
X109721007Y-111750001D01*
X109633240Y-111870800D01*
X109547454Y-112039163D01*
X109489059Y-112218881D01*
X109459500Y-112405513D01*
X106780500Y-112405513D01*
X106750940Y-112218881D01*
X106692545Y-112039163D01*
X106620256Y-111897289D01*
X106606760Y-111870801D01*
X106606758Y-111870798D01*
X106606757Y-111870796D01*
X106604179Y-111867247D01*
X106580702Y-111801439D01*
X106580500Y-111794366D01*
X106580500Y-109861457D01*
X106569776Y-109807548D01*
X106569776Y-109807547D01*
X106569776Y-109807546D01*
X106542052Y-109668165D01*
X106466632Y-109486086D01*
X106466631Y-109486085D01*
X106466628Y-109486079D01*
X106357140Y-109322219D01*
X106357137Y-109322215D01*
X102404209Y-105369289D01*
X102404206Y-105369285D01*
X102404206Y-105369286D01*
X102397139Y-105362219D01*
X102397139Y-105362218D01*
X102257782Y-105222861D01*
X102257781Y-105222860D01*
X102257780Y-105222859D01*
X102093920Y-105113371D01*
X102093911Y-105113366D01*
X102011481Y-105079223D01*
X101965165Y-105060038D01*
X101911836Y-105037949D01*
X101753968Y-105006547D01*
X101750545Y-105005866D01*
X101750537Y-105005864D01*
X101718542Y-104999500D01*
X101718541Y-104999500D01*
X97021459Y-104999500D01*
X97021458Y-104999500D01*
X97003745Y-105003023D01*
X96986032Y-105006547D01*
X96986031Y-105006547D01*
X96828167Y-105037947D01*
X96828159Y-105037950D01*
X96774834Y-105060037D01*
X96774834Y-105060038D01*
X96729315Y-105078892D01*
X96646089Y-105113366D01*
X96646079Y-105113371D01*
X96482219Y-105222859D01*
X96443469Y-105261610D01*
X96342861Y-105362218D01*
X94802855Y-106902223D01*
X94801251Y-106904178D01*
X94800153Y-106904925D01*
X94798554Y-106906525D01*
X94798250Y-106906221D01*
X94743500Y-106943505D01*
X94705410Y-106949500D01*
X94579630Y-106949500D01*
X94579623Y-106949501D01*
X94520016Y-106955908D01*
X94424104Y-106991682D01*
X94380771Y-106999500D01*
X92744500Y-106999500D01*
X92677461Y-106979815D01*
X92631706Y-106927011D01*
X92620500Y-106875500D01*
X92620500Y-106205632D01*
X92640185Y-106138593D01*
X92644177Y-106132753D01*
X92646760Y-106129199D01*
X92732547Y-105960832D01*
X92790940Y-105781118D01*
X92820500Y-105594486D01*
X92820500Y-105405513D01*
X92790940Y-105218881D01*
X92756656Y-105113368D01*
X92732547Y-105039168D01*
X92732545Y-105039165D01*
X92732545Y-105039163D01*
X92646759Y-104870800D01*
X92535690Y-104717927D01*
X92402073Y-104584310D01*
X92401106Y-104583607D01*
X92386658Y-104573109D01*
X92386640Y-104573097D01*
X92255266Y-104477648D01*
X110819500Y-104477648D01*
X110819500Y-104682351D01*
X110851522Y-104884534D01*
X110914781Y-105079223D01*
X110932181Y-105113371D01*
X110987969Y-105222861D01*
X111007715Y-105261613D01*
X111128028Y-105427213D01*
X111272786Y-105571971D01*
X111427749Y-105684556D01*
X111438390Y-105692287D01*
X111554607Y-105751503D01*
X111620776Y-105785218D01*
X111620778Y-105785218D01*
X111620781Y-105785220D01*
X111725137Y-105819127D01*
X111815465Y-105848477D01*
X111916557Y-105864488D01*
X112017648Y-105880500D01*
X112017649Y-105880500D01*
X112222351Y-105880500D01*
X112222352Y-105880500D01*
X112424534Y-105848477D01*
X112619219Y-105785220D01*
X112801610Y-105692287D01*
X112936230Y-105594481D01*
X112967213Y-105571971D01*
X112967215Y-105571968D01*
X112967219Y-105571966D01*
X113111966Y-105427219D01*
X113111968Y-105427215D01*
X113111971Y-105427213D01*
X113164732Y-105354590D01*
X113232287Y-105261610D01*
X113325220Y-105079219D01*
X113388477Y-104884534D01*
X113420500Y-104682352D01*
X113420500Y-104477648D01*
X113419802Y-104473240D01*
X113388477Y-104275465D01*
X113325218Y-104080776D01*
X113291503Y-104014607D01*
X113232287Y-103898390D01*
X113224556Y-103887749D01*
X113111971Y-103732786D01*
X112967213Y-103588028D01*
X112801613Y-103467715D01*
X112801612Y-103467714D01*
X112801610Y-103467713D01*
X112744653Y-103438691D01*
X112619223Y-103374781D01*
X112424534Y-103311522D01*
X112249995Y-103283878D01*
X112222352Y-103279500D01*
X112017648Y-103279500D01*
X111993329Y-103283351D01*
X111815465Y-103311522D01*
X111620776Y-103374781D01*
X111438386Y-103467715D01*
X111272786Y-103588028D01*
X111128028Y-103732786D01*
X111007715Y-103898386D01*
X110914781Y-104080776D01*
X110851522Y-104275465D01*
X110819500Y-104477648D01*
X92255266Y-104477648D01*
X92249199Y-104473240D01*
X92080836Y-104387454D01*
X91901118Y-104329059D01*
X91714486Y-104299500D01*
X91714481Y-104299500D01*
X91525519Y-104299500D01*
X91525514Y-104299500D01*
X91338881Y-104329059D01*
X91159163Y-104387454D01*
X90990800Y-104473240D01*
X90903579Y-104536610D01*
X90837927Y-104584310D01*
X90837925Y-104584312D01*
X90837924Y-104584312D01*
X90704312Y-104717924D01*
X90704312Y-104717925D01*
X90704310Y-104717927D01*
X90656610Y-104783579D01*
X90593240Y-104870800D01*
X90507454Y-105039163D01*
X90449059Y-105218881D01*
X90419500Y-105405513D01*
X90419500Y-105594486D01*
X90449059Y-105781118D01*
X90507454Y-105960836D01*
X90593239Y-106129198D01*
X90593240Y-106129199D01*
X90595814Y-106132742D01*
X90619297Y-106198546D01*
X90619500Y-106205632D01*
X90619500Y-107124237D01*
X90599815Y-107191276D01*
X90595818Y-107197122D01*
X90507715Y-107318386D01*
X90414781Y-107500776D01*
X90351522Y-107695465D01*
X90327879Y-107844744D01*
X90319500Y-107897648D01*
X90319500Y-108102352D01*
X90323878Y-108129995D01*
X90351522Y-108304534D01*
X90414781Y-108499223D01*
X90507715Y-108681613D01*
X90628028Y-108847213D01*
X90772786Y-108991971D01*
X90927749Y-109104556D01*
X90938390Y-109112287D01*
X91054607Y-109171503D01*
X91120776Y-109205218D01*
X91120778Y-109205218D01*
X91120781Y-109205220D01*
X91225137Y-109239127D01*
X91315465Y-109268477D01*
X91416557Y-109284488D01*
X91517648Y-109300500D01*
X91517649Y-109300500D01*
X91722351Y-109300500D01*
X91722352Y-109300500D01*
X91924534Y-109268477D01*
X92119219Y-109205220D01*
X92301610Y-109112287D01*
X92422877Y-109024181D01*
X92488683Y-109000702D01*
X92495762Y-109000500D01*
X94003001Y-109000500D01*
X94070040Y-109020185D01*
X94115795Y-109072989D01*
X94127001Y-109124500D01*
X94127001Y-109497876D01*
X94133408Y-109557483D01*
X94183702Y-109692328D01*
X94183706Y-109692335D01*
X94269952Y-109807544D01*
X94269955Y-109807547D01*
X94385164Y-109893793D01*
X94385171Y-109893797D01*
X94520017Y-109944091D01*
X94520016Y-109944091D01*
X94526944Y-109944835D01*
X94579627Y-109950500D01*
X96580372Y-109950499D01*
X96639983Y-109944091D01*
X96774831Y-109893796D01*
X96890046Y-109807546D01*
X96976296Y-109692331D01*
X97026591Y-109557483D01*
X97033000Y-109497873D01*
X97032999Y-107553281D01*
X97052684Y-107486243D01*
X97069318Y-107465601D01*
X97498101Y-107036819D01*
X97559424Y-107003334D01*
X97585782Y-107000500D01*
X99736064Y-107000500D01*
X99803103Y-107020185D01*
X99848858Y-107072989D01*
X99858802Y-107142147D01*
X99829777Y-107205703D01*
X99808953Y-107224815D01*
X99735860Y-107277920D01*
X99713431Y-107294216D01*
X99551716Y-107455931D01*
X99551716Y-107455932D01*
X99551714Y-107455934D01*
X99519131Y-107500781D01*
X99417283Y-107640961D01*
X99313450Y-107844744D01*
X99242778Y-108062250D01*
X99242778Y-108062253D01*
X99207000Y-108288146D01*
X99207000Y-108611853D01*
X99242778Y-108837746D01*
X99242778Y-108837749D01*
X99313450Y-109055255D01*
X99359853Y-109146326D01*
X99417283Y-109259038D01*
X99551714Y-109444066D01*
X99713434Y-109605786D01*
X99898462Y-109740217D01*
X100030599Y-109807544D01*
X100102244Y-109844049D01*
X100319750Y-109914721D01*
X100319755Y-109914722D01*
X100514899Y-109945630D01*
X100578032Y-109975558D01*
X100614964Y-110034869D01*
X100619500Y-110068102D01*
X100619500Y-110375500D01*
X100599815Y-110442539D01*
X100547011Y-110488294D01*
X100495500Y-110499500D01*
X97224675Y-110499500D01*
X97224655Y-110499499D01*
X97218541Y-110499499D01*
X97021460Y-110499499D01*
X97021457Y-110499499D01*
X96828172Y-110537946D01*
X96828164Y-110537948D01*
X96646088Y-110613366D01*
X96646079Y-110613371D01*
X96482219Y-110722859D01*
X96482215Y-110722862D01*
X96041896Y-111163181D01*
X95980573Y-111196666D01*
X95954215Y-111199500D01*
X95519998Y-111199500D01*
X95519980Y-111199501D01*
X95417203Y-111210000D01*
X95417200Y-111210001D01*
X95250668Y-111265185D01*
X95250663Y-111265187D01*
X95101342Y-111357289D01*
X94977289Y-111481342D01*
X94885187Y-111630663D01*
X94885186Y-111630666D01*
X94830001Y-111797203D01*
X94830001Y-111797204D01*
X94830000Y-111797204D01*
X94819500Y-111899983D01*
X94819500Y-112334216D01*
X94799815Y-112401255D01*
X94783181Y-112421897D01*
X94638618Y-112566461D01*
X94359994Y-112845086D01*
X94241899Y-112963181D01*
X94180576Y-112996666D01*
X94154218Y-112999500D01*
X91534141Y-112999500D01*
X91467102Y-112979815D01*
X91421347Y-112927011D01*
X91417969Y-112918859D01*
X91413796Y-112907669D01*
X91413793Y-112907665D01*
X91413793Y-112907664D01*
X91327547Y-112792455D01*
X91327544Y-112792452D01*
X91212335Y-112706206D01*
X91212328Y-112706202D01*
X91077482Y-112655908D01*
X91077483Y-112655908D01*
X91017883Y-112649501D01*
X91017881Y-112649500D01*
X91017873Y-112649500D01*
X91017864Y-112649500D01*
X89222129Y-112649500D01*
X89222123Y-112649501D01*
X89162516Y-112655908D01*
X89027671Y-112706202D01*
X89027664Y-112706206D01*
X88912455Y-112792452D01*
X88912452Y-112792455D01*
X88826206Y-112907664D01*
X88826202Y-112907671D01*
X88775908Y-113042517D01*
X88769501Y-113102116D01*
X88769500Y-113102135D01*
X79120500Y-113102135D01*
X79120500Y-98219983D01*
X82519500Y-98219983D01*
X82519500Y-101020001D01*
X82519501Y-101020018D01*
X82530000Y-101122796D01*
X82530001Y-101122799D01*
X82580007Y-101273706D01*
X82585186Y-101289334D01*
X82677288Y-101438656D01*
X82801344Y-101562712D01*
X82950666Y-101654814D01*
X83117203Y-101709999D01*
X83219991Y-101720500D01*
X86020008Y-101720499D01*
X86122797Y-101709999D01*
X86289334Y-101654814D01*
X86438656Y-101562712D01*
X86562712Y-101438656D01*
X86654814Y-101289334D01*
X86682595Y-101205495D01*
X86722368Y-101148051D01*
X86786884Y-101121228D01*
X86800301Y-101120500D01*
X90581862Y-101120500D01*
X90648901Y-101140185D01*
X90682179Y-101171613D01*
X90704310Y-101202073D01*
X90837927Y-101335690D01*
X90990801Y-101446760D01*
X91070347Y-101487290D01*
X91159163Y-101532545D01*
X91159165Y-101532545D01*
X91159168Y-101532547D01*
X91248614Y-101561610D01*
X91338881Y-101590940D01*
X91525514Y-101620500D01*
X91525519Y-101620500D01*
X91714486Y-101620500D01*
X91901118Y-101590940D01*
X92080832Y-101532547D01*
X92249199Y-101446760D01*
X92402073Y-101335690D01*
X92535690Y-101202073D01*
X92557821Y-101171613D01*
X92613152Y-101128948D01*
X92658138Y-101120500D01*
X106215434Y-101120500D01*
X106277433Y-101137112D01*
X106366274Y-101188405D01*
X106572219Y-101273710D01*
X106787537Y-101331404D01*
X107008543Y-101360500D01*
X107008550Y-101360500D01*
X107231450Y-101360500D01*
X107231457Y-101360500D01*
X107452463Y-101331404D01*
X107667781Y-101273710D01*
X107873726Y-101188405D01*
X108066774Y-101076948D01*
X108243624Y-100941247D01*
X108401247Y-100783624D01*
X108536948Y-100606774D01*
X108648405Y-100413726D01*
X108733710Y-100207781D01*
X108791404Y-99992463D01*
X108820500Y-99771457D01*
X108820500Y-99548543D01*
X108791404Y-99327537D01*
X108733710Y-99112219D01*
X108648405Y-98906274D01*
X108536948Y-98713226D01*
X108401247Y-98536376D01*
X108401242Y-98536370D01*
X108243629Y-98378757D01*
X108243622Y-98378751D01*
X108066782Y-98243058D01*
X108066780Y-98243057D01*
X108066774Y-98243052D01*
X107873726Y-98131595D01*
X107873722Y-98131593D01*
X107667790Y-98046293D01*
X107667783Y-98046291D01*
X107667781Y-98046290D01*
X107452463Y-97988596D01*
X107452457Y-97988595D01*
X107452452Y-97988594D01*
X107231466Y-97959501D01*
X107231463Y-97959500D01*
X107231457Y-97959500D01*
X107008543Y-97959500D01*
X107008537Y-97959500D01*
X107008533Y-97959501D01*
X106787547Y-97988594D01*
X106787540Y-97988595D01*
X106787537Y-97988596D01*
X106616205Y-98034504D01*
X106572219Y-98046290D01*
X106572209Y-98046293D01*
X106418262Y-98110061D01*
X106370809Y-98119500D01*
X103139047Y-98119500D01*
X103072008Y-98099815D01*
X103026253Y-98047011D01*
X103016309Y-97977853D01*
X103045334Y-97914297D01*
X103051366Y-97907819D01*
X103111966Y-97847219D01*
X103111968Y-97847215D01*
X103111971Y-97847213D01*
X103164732Y-97774590D01*
X103232287Y-97681610D01*
X103325220Y-97499219D01*
X103388477Y-97304534D01*
X103420500Y-97102352D01*
X103420500Y-96897648D01*
X103389335Y-96700880D01*
X103388477Y-96695465D01*
X103330343Y-96516549D01*
X103325220Y-96500781D01*
X103325218Y-96500778D01*
X103325218Y-96500776D01*
X103254760Y-96362496D01*
X103232287Y-96318390D01*
X103221007Y-96302864D01*
X103111971Y-96152786D01*
X102967213Y-96008028D01*
X102801613Y-95887715D01*
X102801612Y-95887714D01*
X102801610Y-95887713D01*
X102744653Y-95858691D01*
X102619223Y-95794781D01*
X102424534Y-95731522D01*
X102249995Y-95703878D01*
X102222352Y-95699500D01*
X102017648Y-95699500D01*
X101993329Y-95703351D01*
X101815465Y-95731522D01*
X101620776Y-95794781D01*
X101438386Y-95887715D01*
X101272786Y-96008028D01*
X101128028Y-96152786D01*
X101007715Y-96318386D01*
X100914781Y-96500776D01*
X100851522Y-96695465D01*
X100819500Y-96897648D01*
X100819500Y-97102351D01*
X100851522Y-97304534D01*
X100914781Y-97499223D01*
X100948862Y-97566109D01*
X101005511Y-97677289D01*
X101007715Y-97681613D01*
X101128028Y-97847213D01*
X101188634Y-97907819D01*
X101222119Y-97969142D01*
X101217135Y-98038834D01*
X101175263Y-98094767D01*
X101109799Y-98119184D01*
X101100953Y-98119500D01*
X96602419Y-98119500D01*
X96535380Y-98099815D01*
X96489625Y-98047011D01*
X96480802Y-98019691D01*
X96475287Y-97991966D01*
X96471091Y-97970873D01*
X96393786Y-97784244D01*
X96340094Y-97703889D01*
X96319217Y-97637214D01*
X96337701Y-97569834D01*
X96340078Y-97566134D01*
X96393786Y-97485756D01*
X96471091Y-97299127D01*
X96510500Y-97101003D01*
X96510500Y-96898997D01*
X96471091Y-96700873D01*
X96437673Y-96620198D01*
X96430205Y-96550730D01*
X96449964Y-96505340D01*
X96449547Y-96505112D01*
X96452095Y-96500444D01*
X96452972Y-96498431D01*
X96453796Y-96497331D01*
X96504091Y-96362483D01*
X96510500Y-96302873D01*
X96510499Y-95157128D01*
X96504091Y-95097517D01*
X96453796Y-94962669D01*
X96453795Y-94962668D01*
X96453793Y-94962664D01*
X96367547Y-94847455D01*
X96367544Y-94847452D01*
X96252335Y-94761206D01*
X96252328Y-94761202D01*
X96117482Y-94710908D01*
X96117483Y-94710908D01*
X96057883Y-94704501D01*
X96057881Y-94704500D01*
X96057873Y-94704500D01*
X96057864Y-94704500D01*
X94462129Y-94704500D01*
X94462123Y-94704501D01*
X94402516Y-94710908D01*
X94267671Y-94761202D01*
X94267664Y-94761206D01*
X94152455Y-94847452D01*
X94152452Y-94847455D01*
X94066206Y-94962664D01*
X94066202Y-94962671D01*
X94015908Y-95097517D01*
X94009501Y-95157116D01*
X94009501Y-95157123D01*
X94009500Y-95157135D01*
X94009500Y-96302870D01*
X94009501Y-96302876D01*
X94015908Y-96362483D01*
X94066202Y-96497328D01*
X94066203Y-96497330D01*
X94066204Y-96497331D01*
X94067028Y-96498432D01*
X94067509Y-96499721D01*
X94070454Y-96505114D01*
X94069678Y-96505537D01*
X94091448Y-96563895D01*
X94082325Y-96620198D01*
X94048910Y-96700868D01*
X94048907Y-96700880D01*
X94009500Y-96898992D01*
X94009500Y-97101007D01*
X94048907Y-97299119D01*
X94048909Y-97299127D01*
X94126213Y-97485755D01*
X94179904Y-97566109D01*
X94200782Y-97632787D01*
X94182297Y-97700167D01*
X94179904Y-97703891D01*
X94126213Y-97784244D01*
X94048909Y-97970872D01*
X94048907Y-97970880D01*
X94039198Y-98019691D01*
X94006813Y-98081602D01*
X93946098Y-98116176D01*
X93917581Y-98119500D01*
X86800301Y-98119500D01*
X86733262Y-98099815D01*
X86687507Y-98047011D01*
X86682595Y-98034504D01*
X86654814Y-97950666D01*
X86562712Y-97801344D01*
X86438656Y-97677288D01*
X86289334Y-97585186D01*
X86122797Y-97530001D01*
X86122795Y-97530000D01*
X86020010Y-97519500D01*
X83219998Y-97519500D01*
X83219981Y-97519501D01*
X83117203Y-97530000D01*
X83117200Y-97530001D01*
X82950668Y-97585185D01*
X82950663Y-97585187D01*
X82801342Y-97677289D01*
X82677289Y-97801342D01*
X82585187Y-97950663D01*
X82585185Y-97950668D01*
X82562313Y-98019691D01*
X82530001Y-98117203D01*
X82530001Y-98117204D01*
X82530000Y-98117204D01*
X82519500Y-98219983D01*
X79120500Y-98219983D01*
X79120500Y-92397648D01*
X87739500Y-92397648D01*
X87739500Y-92602351D01*
X87771522Y-92804534D01*
X87834781Y-92999223D01*
X87848010Y-93025185D01*
X87905595Y-93138202D01*
X87927715Y-93181613D01*
X88048028Y-93347213D01*
X88192786Y-93491971D01*
X88304014Y-93572781D01*
X88358390Y-93612287D01*
X88474607Y-93671503D01*
X88540776Y-93705218D01*
X88540778Y-93705218D01*
X88540781Y-93705220D01*
X88642855Y-93738386D01*
X88735465Y-93768477D01*
X88831806Y-93783736D01*
X88937648Y-93800500D01*
X88937649Y-93800500D01*
X89142351Y-93800500D01*
X89142352Y-93800500D01*
X89344534Y-93768477D01*
X89539219Y-93705220D01*
X89721610Y-93612287D01*
X89814590Y-93544732D01*
X89887213Y-93491971D01*
X89887215Y-93491968D01*
X89887219Y-93491966D01*
X90031966Y-93347219D01*
X90034650Y-93343524D01*
X90065100Y-93301615D01*
X90120429Y-93258949D01*
X90165418Y-93250500D01*
X94693920Y-93250500D01*
X94791462Y-93231096D01*
X94838913Y-93221658D01*
X94975495Y-93165084D01*
X95024729Y-93132186D01*
X95098416Y-93082952D01*
X95783720Y-92397648D01*
X97899500Y-92397648D01*
X97899500Y-92602351D01*
X97931522Y-92804534D01*
X97994781Y-92999223D01*
X98008010Y-93025185D01*
X98065595Y-93138202D01*
X98087715Y-93181613D01*
X98208028Y-93347213D01*
X98352786Y-93491971D01*
X98464014Y-93572781D01*
X98518390Y-93612287D01*
X98634607Y-93671503D01*
X98700776Y-93705218D01*
X98700778Y-93705218D01*
X98700781Y-93705220D01*
X98802855Y-93738386D01*
X98895465Y-93768477D01*
X98991806Y-93783736D01*
X99097648Y-93800500D01*
X99097649Y-93800500D01*
X99302351Y-93800500D01*
X99302352Y-93800500D01*
X99504534Y-93768477D01*
X99699219Y-93705220D01*
X99881610Y-93612287D01*
X99974590Y-93544732D01*
X100047213Y-93491971D01*
X100047215Y-93491968D01*
X100047219Y-93491966D01*
X100191966Y-93347219D01*
X100191968Y-93347215D01*
X100191971Y-93347213D01*
X100269875Y-93239985D01*
X100312287Y-93181610D01*
X100405220Y-92999219D01*
X100468477Y-92804534D01*
X100500500Y-92602352D01*
X100500500Y-92397648D01*
X100468477Y-92195466D01*
X100405220Y-92000781D01*
X100405218Y-92000778D01*
X100405218Y-92000776D01*
X100353062Y-91898415D01*
X100312287Y-91818390D01*
X100260177Y-91746666D01*
X100191971Y-91652786D01*
X100047213Y-91508028D01*
X99881613Y-91387715D01*
X99881612Y-91387714D01*
X99881610Y-91387713D01*
X99824653Y-91358691D01*
X99699223Y-91294781D01*
X99504534Y-91231522D01*
X99329995Y-91203878D01*
X99302352Y-91199500D01*
X99097648Y-91199500D01*
X99073329Y-91203351D01*
X98895465Y-91231522D01*
X98700776Y-91294781D01*
X98518386Y-91387715D01*
X98352786Y-91508028D01*
X98208028Y-91652786D01*
X98087715Y-91818386D01*
X97994781Y-92000776D01*
X97931522Y-92195465D01*
X97899500Y-92397648D01*
X95783720Y-92397648D01*
X97702952Y-90478416D01*
X97752186Y-90404729D01*
X97785084Y-90355495D01*
X97841658Y-90218913D01*
X97870500Y-90073918D01*
X97870500Y-88749024D01*
X97890185Y-88681985D01*
X97921616Y-88648705D01*
X98032361Y-88568245D01*
X98032361Y-88568244D01*
X98032365Y-88568242D01*
X98188242Y-88412365D01*
X98317815Y-88234022D01*
X98417895Y-88037606D01*
X98486015Y-87827951D01*
X98520500Y-87610222D01*
X98520500Y-87389778D01*
X98486015Y-87172049D01*
X98435722Y-87017260D01*
X98417896Y-86962396D01*
X98417895Y-86962393D01*
X98383237Y-86894375D01*
X98317815Y-86765978D01*
X98301260Y-86743192D01*
X98188247Y-86587641D01*
X98188243Y-86587636D01*
X98032363Y-86431756D01*
X98032358Y-86431752D01*
X97854025Y-86302187D01*
X97854024Y-86302186D01*
X97854022Y-86302185D01*
X97786772Y-86267919D01*
X97657606Y-86202104D01*
X97657603Y-86202103D01*
X97447952Y-86133985D01*
X97339086Y-86116742D01*
X97230222Y-86099500D01*
X97009778Y-86099500D01*
X96937201Y-86110995D01*
X96792047Y-86133985D01*
X96582396Y-86202103D01*
X96582393Y-86202104D01*
X96385974Y-86302187D01*
X96207641Y-86431752D01*
X96207636Y-86431756D01*
X96051756Y-86587636D01*
X96051752Y-86587641D01*
X95922187Y-86765974D01*
X95822104Y-86962393D01*
X95822103Y-86962396D01*
X95753985Y-87172047D01*
X95747393Y-87213667D01*
X95719500Y-87389778D01*
X95719500Y-87610222D01*
X95721684Y-87624010D01*
X95753985Y-87827952D01*
X95822103Y-88037603D01*
X95822104Y-88037606D01*
X95922187Y-88234025D01*
X96051752Y-88412358D01*
X96051756Y-88412363D01*
X96207638Y-88568245D01*
X96318384Y-88648705D01*
X96361051Y-88704035D01*
X96369500Y-88749024D01*
X96369500Y-89637770D01*
X96349815Y-89704809D01*
X96333181Y-89725451D01*
X94345451Y-91713181D01*
X94284128Y-91746666D01*
X94257770Y-91749500D01*
X90165418Y-91749500D01*
X90098379Y-91729815D01*
X90065100Y-91698385D01*
X90031971Y-91652787D01*
X90031967Y-91652782D01*
X89887213Y-91508028D01*
X89721613Y-91387715D01*
X89721612Y-91387714D01*
X89721610Y-91387713D01*
X89664653Y-91358691D01*
X89539223Y-91294781D01*
X89344534Y-91231522D01*
X89169995Y-91203878D01*
X89142352Y-91199500D01*
X88937648Y-91199500D01*
X88913329Y-91203351D01*
X88735465Y-91231522D01*
X88540776Y-91294781D01*
X88358386Y-91387715D01*
X88192786Y-91508028D01*
X88048028Y-91652786D01*
X87927715Y-91818386D01*
X87834781Y-92000776D01*
X87771522Y-92195465D01*
X87739500Y-92397648D01*
X79120500Y-92397648D01*
X79120500Y-78625435D01*
X82252000Y-78625435D01*
X82252000Y-78874565D01*
X82284518Y-79121565D01*
X82348998Y-79362207D01*
X82444330Y-79592361D01*
X82444337Y-79592376D01*
X82568897Y-79808122D01*
X82568901Y-79808127D01*
X82626376Y-79883031D01*
X82651570Y-79948199D01*
X82652000Y-79958516D01*
X82652000Y-83617635D01*
X82642561Y-83665088D01*
X82626708Y-83703358D01*
X82626705Y-83703368D01*
X82555441Y-83969331D01*
X82555438Y-83969344D01*
X82519501Y-84242315D01*
X82519500Y-84242332D01*
X82519500Y-84517667D01*
X82519501Y-84517684D01*
X82555438Y-84790655D01*
X82555439Y-84790660D01*
X82555440Y-84790666D01*
X82555441Y-84790668D01*
X82626704Y-85056630D01*
X82732075Y-85311017D01*
X82732080Y-85311028D01*
X82814861Y-85454407D01*
X82869751Y-85549479D01*
X82869753Y-85549482D01*
X82869754Y-85549483D01*
X83037370Y-85767926D01*
X83037376Y-85767933D01*
X83232066Y-85962623D01*
X83232072Y-85962628D01*
X83450521Y-86130249D01*
X83574979Y-86202105D01*
X83688971Y-86267919D01*
X83688976Y-86267921D01*
X83688979Y-86267923D01*
X83943368Y-86373295D01*
X84209334Y-86444560D01*
X84482326Y-86480500D01*
X84482333Y-86480500D01*
X84757667Y-86480500D01*
X84757674Y-86480500D01*
X85030666Y-86444560D01*
X85296632Y-86373295D01*
X85551021Y-86267923D01*
X85789479Y-86130249D01*
X86007928Y-85962628D01*
X86202628Y-85767928D01*
X86370249Y-85549479D01*
X86507923Y-85311021D01*
X86613295Y-85056632D01*
X86684560Y-84790666D01*
X86720500Y-84517674D01*
X86720500Y-84242326D01*
X86684560Y-83969334D01*
X86613295Y-83703368D01*
X86507923Y-83448979D01*
X86507921Y-83448976D01*
X86507919Y-83448971D01*
X86458732Y-83363778D01*
X86370249Y-83210521D01*
X86202628Y-82992072D01*
X86202623Y-82992066D01*
X86007933Y-82797376D01*
X86007926Y-82797370D01*
X85789487Y-82629757D01*
X85789485Y-82629756D01*
X85789479Y-82629751D01*
X85714997Y-82586748D01*
X85666784Y-82536182D01*
X85653000Y-82479363D01*
X85653000Y-80889778D01*
X95759500Y-80889778D01*
X95759500Y-81110221D01*
X95793985Y-81327952D01*
X95862103Y-81537603D01*
X95862104Y-81537606D01*
X95962187Y-81734025D01*
X96091752Y-81912358D01*
X96091756Y-81912363D01*
X96247636Y-82068243D01*
X96247641Y-82068247D01*
X96403192Y-82181260D01*
X96425978Y-82197815D01*
X96554375Y-82263237D01*
X96622393Y-82297895D01*
X96622396Y-82297896D01*
X96727221Y-82331955D01*
X96832049Y-82366015D01*
X97049778Y-82400500D01*
X97049779Y-82400500D01*
X97270221Y-82400500D01*
X97270222Y-82400500D01*
X97487951Y-82366015D01*
X97697606Y-82297895D01*
X97894022Y-82197815D01*
X98072365Y-82068242D01*
X98228242Y-81912365D01*
X98357815Y-81734022D01*
X98457895Y-81537606D01*
X98526015Y-81327951D01*
X98560500Y-81110222D01*
X98560500Y-80889778D01*
X98526015Y-80672049D01*
X98457895Y-80462394D01*
X98457895Y-80462393D01*
X98423237Y-80394375D01*
X98357815Y-80265978D01*
X98341260Y-80243192D01*
X98228247Y-80087641D01*
X98228243Y-80087636D01*
X98072365Y-79931758D01*
X98051259Y-79916424D01*
X97921613Y-79822231D01*
X97878949Y-79766903D01*
X97870500Y-79721914D01*
X97870500Y-76625416D01*
X97890185Y-76558377D01*
X97921613Y-76525099D01*
X97967219Y-76491966D01*
X98111966Y-76347219D01*
X98111968Y-76347215D01*
X98111971Y-76347213D01*
X98164732Y-76274590D01*
X98232287Y-76181610D01*
X98325220Y-75999219D01*
X98388477Y-75804534D01*
X98420500Y-75602352D01*
X98420500Y-75397648D01*
X98388477Y-75195466D01*
X98325220Y-75000781D01*
X98325218Y-75000778D01*
X98325218Y-75000776D01*
X98291503Y-74934607D01*
X98232287Y-74818390D01*
X98224556Y-74807749D01*
X98111971Y-74652786D01*
X97967213Y-74508028D01*
X97801613Y-74387715D01*
X97801612Y-74387714D01*
X97801610Y-74387713D01*
X97744653Y-74358691D01*
X97619223Y-74294781D01*
X97424534Y-74231522D01*
X97249995Y-74203878D01*
X97222352Y-74199500D01*
X97017648Y-74199500D01*
X96993329Y-74203351D01*
X96815465Y-74231522D01*
X96620776Y-74294781D01*
X96438386Y-74387715D01*
X96272786Y-74508028D01*
X96128028Y-74652786D01*
X96007715Y-74818386D01*
X95914781Y-75000776D01*
X95851522Y-75195465D01*
X95819500Y-75397648D01*
X95819500Y-75602351D01*
X95851522Y-75804534D01*
X95914781Y-75999223D01*
X96007715Y-76181613D01*
X96128028Y-76347213D01*
X96128034Y-76347219D01*
X96272781Y-76491966D01*
X96318384Y-76525098D01*
X96361050Y-76580425D01*
X96369500Y-76625416D01*
X96369500Y-79780037D01*
X96349815Y-79847076D01*
X96318385Y-79880355D01*
X96247638Y-79931755D01*
X96247632Y-79931760D01*
X96091756Y-80087636D01*
X96091752Y-80087641D01*
X95962187Y-80265974D01*
X95862104Y-80462393D01*
X95862103Y-80462396D01*
X95793985Y-80672047D01*
X95759500Y-80889778D01*
X85653000Y-80889778D01*
X85653000Y-79958516D01*
X85672685Y-79891477D01*
X85678615Y-79883041D01*
X85736099Y-79808127D01*
X85860664Y-79592373D01*
X85956002Y-79362207D01*
X86020482Y-79121565D01*
X86053000Y-78874565D01*
X86053000Y-78625435D01*
X86020482Y-78378435D01*
X85956002Y-78137793D01*
X85890848Y-77980498D01*
X85860669Y-77907638D01*
X85860662Y-77907623D01*
X85736099Y-77691873D01*
X85584439Y-77494225D01*
X85584433Y-77494218D01*
X85408281Y-77318066D01*
X85408274Y-77318060D01*
X85210626Y-77166400D01*
X84994876Y-77041837D01*
X84994861Y-77041830D01*
X84764707Y-76946498D01*
X84524061Y-76882017D01*
X84277075Y-76849501D01*
X84277070Y-76849500D01*
X84277065Y-76849500D01*
X84027935Y-76849500D01*
X84027929Y-76849500D01*
X84027924Y-76849501D01*
X83780938Y-76882017D01*
X83540292Y-76946498D01*
X83310138Y-77041830D01*
X83310123Y-77041837D01*
X83094373Y-77166400D01*
X82896725Y-77318060D01*
X82896718Y-77318066D01*
X82720566Y-77494218D01*
X82720560Y-77494225D01*
X82568900Y-77691873D01*
X82444337Y-77907623D01*
X82444330Y-77907638D01*
X82348998Y-78137792D01*
X82284517Y-78378438D01*
X82254593Y-78605739D01*
X82252000Y-78625435D01*
X79120500Y-78625435D01*
X79120500Y-58124001D01*
X94114500Y-58124001D01*
X94114500Y-63968387D01*
X94130174Y-64093285D01*
X94145313Y-64152654D01*
X94145313Y-64152655D01*
X94145315Y-64152660D01*
X94191365Y-64269818D01*
X100044617Y-75000781D01*
X100099359Y-75101140D01*
X100114500Y-75160518D01*
X100114500Y-87921533D01*
X100133993Y-88060553D01*
X100133993Y-88060554D01*
X100152747Y-88126118D01*
X100152751Y-88126127D01*
X100209725Y-88254426D01*
X100209727Y-88254429D01*
X100302410Y-88364462D01*
X100302425Y-88364478D01*
X100354571Y-88410954D01*
X100354578Y-88410960D01*
X100426718Y-88458759D01*
X100474518Y-88490431D01*
X104671376Y-90478416D01*
X109878402Y-92944902D01*
X109983896Y-92981247D01*
X109983908Y-92981250D01*
X110014307Y-92988085D01*
X110036979Y-92993184D01*
X110036981Y-92993184D01*
X110036986Y-92993185D01*
X110091323Y-92999219D01*
X110147883Y-93005500D01*
X111515018Y-93005500D01*
X111582057Y-93025185D01*
X111627812Y-93077989D01*
X111637756Y-93147147D01*
X111608731Y-93210703D01*
X111571313Y-93239985D01*
X111438386Y-93307715D01*
X111272786Y-93428028D01*
X111128028Y-93572786D01*
X111007715Y-93738386D01*
X110914781Y-93920776D01*
X110851522Y-94115465D01*
X110819500Y-94317648D01*
X110819500Y-94522351D01*
X110851522Y-94724534D01*
X110914781Y-94919223D01*
X111007715Y-95101613D01*
X111128028Y-95267213D01*
X111272786Y-95411971D01*
X111427749Y-95524556D01*
X111438390Y-95532287D01*
X111554607Y-95591503D01*
X111620776Y-95625218D01*
X111620778Y-95625218D01*
X111620781Y-95625220D01*
X111725137Y-95659127D01*
X111815465Y-95688477D01*
X111885061Y-95699500D01*
X112017648Y-95720500D01*
X112017649Y-95720500D01*
X112222351Y-95720500D01*
X112222352Y-95720500D01*
X112424534Y-95688477D01*
X112619219Y-95625220D01*
X112801610Y-95532287D01*
X112894590Y-95464732D01*
X112967213Y-95411971D01*
X112967215Y-95411968D01*
X112967219Y-95411966D01*
X113111966Y-95267219D01*
X113111968Y-95267215D01*
X113111971Y-95267213D01*
X113191952Y-95157127D01*
X113232287Y-95101610D01*
X113325220Y-94919219D01*
X113388477Y-94724534D01*
X113420500Y-94522352D01*
X113420500Y-94317648D01*
X113411681Y-94261971D01*
X113420635Y-94192679D01*
X113446470Y-94154895D01*
X115702952Y-91898415D01*
X115745380Y-91834916D01*
X115785084Y-91775495D01*
X115815532Y-91701987D01*
X115841659Y-91638912D01*
X115858786Y-91552806D01*
X115873501Y-91524674D01*
X115886690Y-91495796D01*
X115889578Y-91493939D01*
X115891170Y-91490897D01*
X115918757Y-91475187D01*
X115945468Y-91458022D01*
X115950062Y-91457361D01*
X115951886Y-91456323D01*
X115980403Y-91452999D01*
X115990500Y-91452999D01*
X116057539Y-91472684D01*
X116103294Y-91525488D01*
X116114500Y-91576999D01*
X116114500Y-100376000D01*
X116115014Y-100380781D01*
X116126052Y-100483450D01*
X116126054Y-100483462D01*
X116137260Y-100534972D01*
X116171383Y-100637497D01*
X116171386Y-100637503D01*
X116249171Y-100758537D01*
X116249179Y-100758548D01*
X116294923Y-100811340D01*
X116294926Y-100811343D01*
X116294930Y-100811347D01*
X116403664Y-100905567D01*
X116403667Y-100905568D01*
X116403668Y-100905569D01*
X116481792Y-100941248D01*
X116534541Y-100965338D01*
X116601580Y-100985023D01*
X116601584Y-100985024D01*
X116744000Y-101005500D01*
X129217261Y-101005500D01*
X129284300Y-101025185D01*
X129330055Y-101077989D01*
X129339734Y-101110102D01*
X129351522Y-101184530D01*
X129351522Y-101184531D01*
X129351523Y-101184534D01*
X129414780Y-101379219D01*
X129449193Y-101446759D01*
X129507715Y-101561613D01*
X129628028Y-101727213D01*
X129772786Y-101871971D01*
X129903644Y-101967043D01*
X129938390Y-101992287D01*
X130054607Y-102051503D01*
X130120776Y-102085218D01*
X130120778Y-102085218D01*
X130120781Y-102085220D01*
X130225137Y-102119127D01*
X130315465Y-102148477D01*
X130416557Y-102164488D01*
X130517648Y-102180500D01*
X130517649Y-102180500D01*
X130722351Y-102180500D01*
X130722352Y-102180500D01*
X130924534Y-102148477D01*
X131119219Y-102085220D01*
X131301610Y-101992287D01*
X131394590Y-101924732D01*
X131467213Y-101871971D01*
X131467215Y-101871968D01*
X131467219Y-101871966D01*
X131611966Y-101727219D01*
X131611968Y-101727215D01*
X131611971Y-101727213D01*
X131689501Y-101620500D01*
X131732287Y-101561610D01*
X131825220Y-101379219D01*
X131888477Y-101184534D01*
X131900266Y-101110101D01*
X131930195Y-101046967D01*
X131989507Y-101010036D01*
X132022739Y-101005500D01*
X137217261Y-101005500D01*
X137284300Y-101025185D01*
X137330055Y-101077989D01*
X137339734Y-101110102D01*
X137351522Y-101184530D01*
X137351522Y-101184531D01*
X137351523Y-101184534D01*
X137414780Y-101379219D01*
X137449193Y-101446759D01*
X137507715Y-101561613D01*
X137628028Y-101727213D01*
X137772786Y-101871971D01*
X137903644Y-101967043D01*
X137938390Y-101992287D01*
X138054607Y-102051503D01*
X138120776Y-102085218D01*
X138120778Y-102085218D01*
X138120781Y-102085220D01*
X138225137Y-102119127D01*
X138315465Y-102148477D01*
X138416557Y-102164488D01*
X138517648Y-102180500D01*
X138517649Y-102180500D01*
X138722351Y-102180500D01*
X138722352Y-102180500D01*
X138924534Y-102148477D01*
X139119219Y-102085220D01*
X139301610Y-101992287D01*
X139394590Y-101924732D01*
X139467213Y-101871971D01*
X139467215Y-101871968D01*
X139467219Y-101871966D01*
X139611966Y-101727219D01*
X139611968Y-101727215D01*
X139611971Y-101727213D01*
X139689501Y-101620500D01*
X139732287Y-101561610D01*
X139825220Y-101379219D01*
X139888477Y-101184534D01*
X139920500Y-100982352D01*
X139920500Y-100777648D01*
X155319500Y-100777648D01*
X155319500Y-100982351D01*
X155351522Y-101184534D01*
X155414781Y-101379223D01*
X155507715Y-101561613D01*
X155628028Y-101727213D01*
X155772786Y-101871971D01*
X155903644Y-101967043D01*
X155938390Y-101992287D01*
X156054607Y-102051503D01*
X156120776Y-102085218D01*
X156120778Y-102085218D01*
X156120781Y-102085220D01*
X156225137Y-102119127D01*
X156315465Y-102148477D01*
X156416557Y-102164488D01*
X156517648Y-102180500D01*
X156517649Y-102180500D01*
X156722351Y-102180500D01*
X156722352Y-102180500D01*
X156924534Y-102148477D01*
X157119219Y-102085220D01*
X157249153Y-102019014D01*
X157305448Y-102005500D01*
X176576523Y-102005500D01*
X176602637Y-102004824D01*
X176602654Y-102004823D01*
X176602658Y-102004823D01*
X176615474Y-102004159D01*
X176641565Y-102002129D01*
X176781102Y-101967043D01*
X176845748Y-101940535D01*
X176845749Y-101940534D01*
X176845749Y-101940533D01*
X176846261Y-101940324D01*
X176848690Y-101938802D01*
X176969748Y-101867557D01*
X179263354Y-100032671D01*
X179328000Y-100006164D01*
X179340816Y-100005500D01*
X182668870Y-100005500D01*
X182668873Y-100005500D01*
X182793886Y-99989798D01*
X182853314Y-99974630D01*
X182950099Y-99936549D01*
X183019690Y-99930320D01*
X183081602Y-99962705D01*
X183116176Y-100023420D01*
X183119500Y-100051938D01*
X183119500Y-113034218D01*
X183099815Y-113101257D01*
X183083181Y-113121899D01*
X181241899Y-114963181D01*
X181180576Y-114996666D01*
X181154218Y-114999500D01*
X180115762Y-114999500D01*
X180048723Y-114979815D01*
X180042877Y-114975818D01*
X180021036Y-114959950D01*
X179921610Y-114887713D01*
X179850583Y-114851523D01*
X179739223Y-114794781D01*
X179544534Y-114731522D01*
X179369995Y-114703878D01*
X179342352Y-114699500D01*
X179137648Y-114699500D01*
X179113329Y-114703351D01*
X178935465Y-114731522D01*
X178740776Y-114794781D01*
X178558386Y-114887715D01*
X178392786Y-115008028D01*
X178248028Y-115152786D01*
X178127715Y-115318386D01*
X178034781Y-115500776D01*
X177971522Y-115695465D01*
X177939500Y-115897648D01*
X177939500Y-116102351D01*
X177971522Y-116304534D01*
X178034781Y-116499223D01*
X178094287Y-116616008D01*
X178122534Y-116671446D01*
X178127715Y-116681613D01*
X178248028Y-116847213D01*
X178392786Y-116991971D01*
X178505557Y-117073902D01*
X178558390Y-117112287D01*
X178646252Y-117157055D01*
X178740776Y-117205218D01*
X178740778Y-117205218D01*
X178740781Y-117205220D01*
X178824085Y-117232287D01*
X178935465Y-117268477D01*
X179035973Y-117284396D01*
X179137648Y-117300500D01*
X179137649Y-117300500D01*
X179342351Y-117300500D01*
X179342352Y-117300500D01*
X179544534Y-117268477D01*
X179739219Y-117205220D01*
X179921610Y-117112287D01*
X180042877Y-117024181D01*
X180108683Y-117000702D01*
X180115762Y-117000500D01*
X181718543Y-117000500D01*
X181754369Y-116993373D01*
X181874387Y-116969500D01*
X181911836Y-116962051D01*
X181965165Y-116939961D01*
X182093914Y-116886632D01*
X182257782Y-116777139D01*
X182397139Y-116637782D01*
X182397140Y-116637779D01*
X182404206Y-116630714D01*
X182404209Y-116630710D01*
X184757778Y-114277141D01*
X184757782Y-114277139D01*
X184897139Y-114137782D01*
X184897721Y-114136910D01*
X184902734Y-114131888D01*
X184928298Y-114117896D01*
X184952385Y-114101487D01*
X184958583Y-114101320D01*
X184964024Y-114098343D01*
X184993097Y-114100394D01*
X185022230Y-114099612D01*
X185027535Y-114102823D01*
X185033721Y-114103260D01*
X185057071Y-114120704D01*
X185082000Y-114135796D01*
X185084726Y-114141364D01*
X185089695Y-114145077D01*
X185099906Y-114172375D01*
X185112720Y-114198550D01*
X185113608Y-114209004D01*
X185114175Y-114210518D01*
X185113860Y-114211968D01*
X185114500Y-114219484D01*
X185114500Y-115392770D01*
X185094815Y-115459809D01*
X185078181Y-115480451D01*
X182345451Y-118213181D01*
X182284128Y-118246666D01*
X182257770Y-118249500D01*
X180365418Y-118249500D01*
X180298379Y-118229815D01*
X180265100Y-118198385D01*
X180231971Y-118152787D01*
X180231967Y-118152782D01*
X180087213Y-118008028D01*
X179921613Y-117887715D01*
X179921612Y-117887714D01*
X179921610Y-117887713D01*
X179864653Y-117858691D01*
X179739223Y-117794781D01*
X179544534Y-117731522D01*
X179369995Y-117703878D01*
X179342352Y-117699500D01*
X179137648Y-117699500D01*
X179113329Y-117703351D01*
X178935465Y-117731522D01*
X178740776Y-117794781D01*
X178558386Y-117887715D01*
X178392786Y-118008028D01*
X178248028Y-118152786D01*
X178127715Y-118318386D01*
X178034781Y-118500776D01*
X177971522Y-118695465D01*
X177939500Y-118897648D01*
X177939500Y-119102351D01*
X177971522Y-119304534D01*
X178034781Y-119499223D01*
X178086036Y-119599815D01*
X178112382Y-119651522D01*
X178127715Y-119681613D01*
X178248028Y-119847213D01*
X178392786Y-119991971D01*
X178504014Y-120072781D01*
X178558390Y-120112287D01*
X178674607Y-120171503D01*
X178740776Y-120205218D01*
X178740778Y-120205218D01*
X178740781Y-120205220D01*
X178842855Y-120238386D01*
X178935465Y-120268477D01*
X179036557Y-120284488D01*
X179137648Y-120300500D01*
X179137649Y-120300500D01*
X179342351Y-120300500D01*
X179342352Y-120300500D01*
X179544534Y-120268477D01*
X179739219Y-120205220D01*
X179921610Y-120112287D01*
X180045396Y-120022352D01*
X180087213Y-119991971D01*
X180087215Y-119991968D01*
X180087219Y-119991966D01*
X180231966Y-119847219D01*
X180240501Y-119835472D01*
X180265100Y-119801615D01*
X180320429Y-119758949D01*
X180365418Y-119750500D01*
X182693920Y-119750500D01*
X182791462Y-119731096D01*
X182838913Y-119721658D01*
X182975495Y-119665084D01*
X183030750Y-119628164D01*
X183030750Y-119628163D01*
X183030752Y-119628163D01*
X183098073Y-119583181D01*
X183098416Y-119582952D01*
X186139548Y-116541818D01*
X186200871Y-116508334D01*
X186227229Y-116505500D01*
X188180667Y-116505500D01*
X188247706Y-116525185D01*
X188293461Y-116577989D01*
X188303405Y-116647147D01*
X188298598Y-116667819D01*
X188242446Y-116840631D01*
X188205500Y-117073902D01*
X188205500Y-117310097D01*
X188242446Y-117543368D01*
X188315433Y-117767996D01*
X188422658Y-117978436D01*
X188425815Y-117982780D01*
X188449297Y-118048585D01*
X188449500Y-118055669D01*
X188449500Y-120874582D01*
X188429815Y-120941621D01*
X188398385Y-120974900D01*
X188352787Y-121008028D01*
X188352782Y-121008032D01*
X188208028Y-121152786D01*
X188087715Y-121318386D01*
X187994781Y-121500776D01*
X187931522Y-121695465D01*
X187899500Y-121897648D01*
X187899500Y-122102351D01*
X187931522Y-122304534D01*
X187994781Y-122499223D01*
X188087715Y-122681613D01*
X188208028Y-122847213D01*
X188352786Y-122991971D01*
X188507749Y-123104556D01*
X188518390Y-123112287D01*
X188634607Y-123171503D01*
X188700776Y-123205218D01*
X188700778Y-123205218D01*
X188700781Y-123205220D01*
X188805137Y-123239127D01*
X188895465Y-123268477D01*
X188996557Y-123284488D01*
X189097648Y-123300500D01*
X189097649Y-123300500D01*
X189302351Y-123300500D01*
X189302352Y-123300500D01*
X189504534Y-123268477D01*
X189699219Y-123205220D01*
X189881610Y-123112287D01*
X189974590Y-123044732D01*
X190047213Y-122991971D01*
X190047215Y-122991968D01*
X190047219Y-122991966D01*
X190191966Y-122847219D01*
X190191968Y-122847215D01*
X190191971Y-122847213D01*
X190280424Y-122725466D01*
X190312287Y-122681610D01*
X190405220Y-122499219D01*
X190468477Y-122304534D01*
X190491027Y-122162159D01*
X190520956Y-122099025D01*
X190580268Y-122062094D01*
X190650130Y-122063092D01*
X190708363Y-122101702D01*
X190736477Y-122165665D01*
X190737500Y-122181558D01*
X190737500Y-125989290D01*
X190737500Y-126082000D01*
X190737500Y-126208056D01*
X190747817Y-126279814D01*
X190773379Y-126457601D01*
X190773380Y-126457605D01*
X190844404Y-126699495D01*
X190844407Y-126699503D01*
X190844408Y-126699504D01*
X190853073Y-126718477D01*
X190949138Y-126928833D01*
X190949141Y-126928838D01*
X191085441Y-127140924D01*
X191250540Y-127331459D01*
X191441075Y-127496558D01*
X191605691Y-127602351D01*
X191653166Y-127632861D01*
X191882496Y-127737592D01*
X191882500Y-127737593D01*
X191882504Y-127737595D01*
X192031029Y-127781205D01*
X192124397Y-127808620D01*
X192373944Y-127844500D01*
X192373945Y-127844500D01*
X192626055Y-127844500D01*
X192626056Y-127844500D01*
X192875603Y-127808620D01*
X193005245Y-127770553D01*
X193117495Y-127737595D01*
X193117497Y-127737593D01*
X193117504Y-127737592D01*
X193346834Y-127632861D01*
X193558925Y-127496558D01*
X193749459Y-127331459D01*
X193914558Y-127140925D01*
X193919685Y-127132947D01*
X193972488Y-127087193D01*
X194041647Y-127077249D01*
X194105202Y-127106274D01*
X194128314Y-127132945D01*
X194133442Y-127140925D01*
X194133443Y-127140926D01*
X194298540Y-127331459D01*
X194489075Y-127496558D01*
X194653691Y-127602351D01*
X194701166Y-127632861D01*
X194930496Y-127737592D01*
X194930500Y-127737593D01*
X194930504Y-127737595D01*
X195079029Y-127781205D01*
X195172397Y-127808620D01*
X195421944Y-127844500D01*
X195421945Y-127844500D01*
X195674055Y-127844500D01*
X195674056Y-127844500D01*
X195923603Y-127808620D01*
X196053245Y-127770553D01*
X196165495Y-127737595D01*
X196165497Y-127737593D01*
X196165504Y-127737592D01*
X196394834Y-127632861D01*
X196606925Y-127496558D01*
X196797459Y-127331459D01*
X196962558Y-127140925D01*
X196967685Y-127132947D01*
X197020488Y-127087193D01*
X197089647Y-127077249D01*
X197153202Y-127106274D01*
X197176314Y-127132945D01*
X197181442Y-127140925D01*
X197181443Y-127140926D01*
X197346540Y-127331459D01*
X197537075Y-127496558D01*
X197701691Y-127602351D01*
X197749166Y-127632861D01*
X197978496Y-127737592D01*
X197978500Y-127737593D01*
X197978504Y-127737595D01*
X198127029Y-127781205D01*
X198220397Y-127808620D01*
X198469944Y-127844500D01*
X198469945Y-127844500D01*
X198722055Y-127844500D01*
X198722056Y-127844500D01*
X198971603Y-127808620D01*
X199101245Y-127770553D01*
X199213495Y-127737595D01*
X199213497Y-127737593D01*
X199213504Y-127737592D01*
X199442834Y-127632861D01*
X199654925Y-127496558D01*
X199845459Y-127331459D01*
X200010558Y-127140925D01*
X200015685Y-127132947D01*
X200068488Y-127087193D01*
X200137647Y-127077249D01*
X200201202Y-127106274D01*
X200224314Y-127132945D01*
X200229442Y-127140925D01*
X200229443Y-127140926D01*
X200394540Y-127331459D01*
X200585075Y-127496558D01*
X200749691Y-127602351D01*
X200797166Y-127632861D01*
X201026496Y-127737592D01*
X201026500Y-127737593D01*
X201026504Y-127737595D01*
X201175029Y-127781205D01*
X201268397Y-127808620D01*
X201517944Y-127844500D01*
X201517945Y-127844500D01*
X201770055Y-127844500D01*
X201770056Y-127844500D01*
X202019603Y-127808620D01*
X202149245Y-127770553D01*
X202261495Y-127737595D01*
X202261497Y-127737593D01*
X202261504Y-127737592D01*
X202490834Y-127632861D01*
X202702925Y-127496558D01*
X202893459Y-127331459D01*
X203058558Y-127140925D01*
X203063685Y-127132947D01*
X203116488Y-127087193D01*
X203185647Y-127077249D01*
X203249202Y-127106274D01*
X203272314Y-127132945D01*
X203277442Y-127140925D01*
X203277443Y-127140926D01*
X203442540Y-127331459D01*
X203633075Y-127496558D01*
X203797691Y-127602351D01*
X203845166Y-127632861D01*
X204074496Y-127737592D01*
X204074500Y-127737593D01*
X204074504Y-127737595D01*
X204223029Y-127781205D01*
X204316397Y-127808620D01*
X204565944Y-127844500D01*
X204565945Y-127844500D01*
X204818055Y-127844500D01*
X204818056Y-127844500D01*
X205067603Y-127808620D01*
X205197245Y-127770553D01*
X205309495Y-127737595D01*
X205309497Y-127737593D01*
X205309504Y-127737592D01*
X205538834Y-127632861D01*
X205750925Y-127496558D01*
X205941459Y-127331459D01*
X206106558Y-127140925D01*
X206111685Y-127132947D01*
X206164488Y-127087193D01*
X206233647Y-127077249D01*
X206297202Y-127106274D01*
X206320314Y-127132945D01*
X206325442Y-127140925D01*
X206325443Y-127140926D01*
X206490540Y-127331459D01*
X206681075Y-127496558D01*
X206845691Y-127602351D01*
X206893166Y-127632861D01*
X207122496Y-127737592D01*
X207122500Y-127737593D01*
X207122504Y-127737595D01*
X207271029Y-127781205D01*
X207364397Y-127808620D01*
X207613944Y-127844500D01*
X207613945Y-127844500D01*
X207866055Y-127844500D01*
X207866056Y-127844500D01*
X208115603Y-127808620D01*
X208245245Y-127770553D01*
X208357495Y-127737595D01*
X208357497Y-127737593D01*
X208357504Y-127737592D01*
X208543706Y-127652557D01*
X208585488Y-127633476D01*
X208654646Y-127623532D01*
X208718202Y-127652557D01*
X208755976Y-127711335D01*
X208755976Y-127781205D01*
X208724680Y-127833951D01*
X208345451Y-128213181D01*
X208284128Y-128246666D01*
X208257770Y-128249500D01*
X190405418Y-128249500D01*
X190338379Y-128229815D01*
X190305100Y-128198385D01*
X190271971Y-128152787D01*
X190271967Y-128152782D01*
X190127213Y-128008028D01*
X189961613Y-127887715D01*
X189961612Y-127887714D01*
X189961610Y-127887713D01*
X189876798Y-127844499D01*
X189779223Y-127794781D01*
X189584534Y-127731522D01*
X189409995Y-127703878D01*
X189382352Y-127699500D01*
X189177648Y-127699500D01*
X189153329Y-127703351D01*
X188975465Y-127731522D01*
X188780776Y-127794781D01*
X188598386Y-127887715D01*
X188432786Y-128008028D01*
X188288028Y-128152786D01*
X188167715Y-128318386D01*
X188074781Y-128500776D01*
X188011522Y-128695465D01*
X187979500Y-128897648D01*
X187979500Y-129102351D01*
X188011522Y-129304534D01*
X188074781Y-129499223D01*
X188109146Y-129566666D01*
X188153026Y-129652786D01*
X188167715Y-129681613D01*
X188288028Y-129847213D01*
X188432786Y-129991971D01*
X188541261Y-130070781D01*
X188598390Y-130112287D01*
X188714607Y-130171503D01*
X188780776Y-130205218D01*
X188780778Y-130205218D01*
X188780781Y-130205220D01*
X188843089Y-130225465D01*
X188975465Y-130268477D01*
X189051381Y-130280501D01*
X189177648Y-130300500D01*
X189177649Y-130300500D01*
X189382351Y-130300500D01*
X189382352Y-130300500D01*
X189584534Y-130268477D01*
X189779219Y-130205220D01*
X189961610Y-130112287D01*
X190054590Y-130044732D01*
X190127213Y-129991971D01*
X190127215Y-129991968D01*
X190127219Y-129991966D01*
X190271966Y-129847219D01*
X190280501Y-129835472D01*
X190305100Y-129801615D01*
X190360429Y-129758949D01*
X190405418Y-129750500D01*
X208693920Y-129750500D01*
X208791462Y-129731096D01*
X208838913Y-129721658D01*
X208975495Y-129665084D01*
X209028750Y-129629500D01*
X209098416Y-129582952D01*
X211116952Y-127564416D01*
X211192879Y-127450781D01*
X211199084Y-127441495D01*
X211226227Y-127375965D01*
X211255659Y-127304912D01*
X211284500Y-127159917D01*
X211284500Y-127012082D01*
X211284500Y-118564631D01*
X211304185Y-118497592D01*
X211335614Y-118464313D01*
X211368614Y-118440337D01*
X211511510Y-118336517D01*
X211678517Y-118169510D01*
X211817343Y-117978433D01*
X211924568Y-117767992D01*
X211997553Y-117543368D01*
X212017373Y-117418228D01*
X212034500Y-117310097D01*
X212034500Y-117073902D01*
X211997553Y-116840631D01*
X211956793Y-116715185D01*
X211924568Y-116616008D01*
X211924566Y-116616005D01*
X211924566Y-116616003D01*
X211837690Y-116445500D01*
X211817343Y-116405567D01*
X211678517Y-116214490D01*
X211511510Y-116047483D01*
X211320433Y-115908657D01*
X211268997Y-115882449D01*
X211109996Y-115801433D01*
X210885368Y-115728446D01*
X210652097Y-115691500D01*
X210652092Y-115691500D01*
X210415908Y-115691500D01*
X210415903Y-115691500D01*
X210182631Y-115728446D01*
X209958000Y-115801434D01*
X209850023Y-115856452D01*
X209849488Y-115856552D01*
X209849088Y-115856924D01*
X209815173Y-115862996D01*
X209781354Y-115869348D01*
X209780668Y-115869175D01*
X209780312Y-115869239D01*
X209746126Y-115860466D01*
X209737606Y-115856924D01*
X209670977Y-115829223D01*
X209549664Y-115778787D01*
X209495318Y-115734874D01*
X209475651Y-115688483D01*
X209464051Y-115630165D01*
X209402038Y-115480451D01*
X209388635Y-115448092D01*
X209388628Y-115448079D01*
X209279139Y-115284218D01*
X209279136Y-115284214D01*
X209139785Y-115144863D01*
X209139781Y-115144860D01*
X208975920Y-115035371D01*
X208975907Y-115035364D01*
X208793839Y-114959950D01*
X208793829Y-114959947D01*
X208600543Y-114921500D01*
X208600541Y-114921500D01*
X208403459Y-114921500D01*
X208403457Y-114921500D01*
X208210170Y-114959947D01*
X208210160Y-114959950D01*
X208028092Y-115035364D01*
X208028079Y-115035371D01*
X207864218Y-115144860D01*
X207864214Y-115144863D01*
X207724863Y-115284214D01*
X207724860Y-115284218D01*
X207615371Y-115448079D01*
X207615364Y-115448092D01*
X207539950Y-115630160D01*
X207539947Y-115630170D01*
X207501500Y-115823456D01*
X207501500Y-116718248D01*
X207481815Y-116785287D01*
X207429011Y-116831042D01*
X207359853Y-116840986D01*
X207296298Y-116811961D01*
X207274931Y-116793447D01*
X207274924Y-116793441D01*
X207062838Y-116657141D01*
X207062833Y-116657138D01*
X206833495Y-116552404D01*
X206591605Y-116481380D01*
X206591601Y-116481379D01*
X206405980Y-116454691D01*
X206342056Y-116445500D01*
X206089944Y-116445500D01*
X206068293Y-116448613D01*
X205840398Y-116481379D01*
X205840394Y-116481380D01*
X205598504Y-116552404D01*
X205369166Y-116657138D01*
X205369161Y-116657141D01*
X205157075Y-116793441D01*
X204966540Y-116958540D01*
X204801441Y-117149075D01*
X204801440Y-117149077D01*
X204796313Y-117157055D01*
X204743507Y-117202808D01*
X204674349Y-117212749D01*
X204610794Y-117183722D01*
X204587687Y-117157055D01*
X204582559Y-117149077D01*
X204582558Y-117149075D01*
X204417459Y-116958540D01*
X204226924Y-116793441D01*
X204014838Y-116657141D01*
X204014833Y-116657138D01*
X203785495Y-116552404D01*
X203543605Y-116481380D01*
X203543601Y-116481379D01*
X203357980Y-116454691D01*
X203294056Y-116445500D01*
X203041944Y-116445500D01*
X203020293Y-116448613D01*
X202792398Y-116481379D01*
X202792394Y-116481380D01*
X202550504Y-116552404D01*
X202321166Y-116657138D01*
X202321161Y-116657141D01*
X202109075Y-116793441D01*
X201918540Y-116958540D01*
X201753441Y-117149075D01*
X201753440Y-117149077D01*
X201748313Y-117157055D01*
X201695507Y-117202808D01*
X201626349Y-117212749D01*
X201562794Y-117183722D01*
X201539687Y-117157055D01*
X201534559Y-117149077D01*
X201534558Y-117149075D01*
X201369459Y-116958540D01*
X201178924Y-116793441D01*
X200966838Y-116657141D01*
X200966833Y-116657138D01*
X200737495Y-116552404D01*
X200495605Y-116481380D01*
X200495601Y-116481379D01*
X200309980Y-116454691D01*
X200246056Y-116445500D01*
X199993944Y-116445500D01*
X199972293Y-116448613D01*
X199744398Y-116481379D01*
X199744394Y-116481380D01*
X199502504Y-116552404D01*
X199273166Y-116657138D01*
X199273161Y-116657141D01*
X199061075Y-116793441D01*
X198870540Y-116958540D01*
X198705441Y-117149075D01*
X198705440Y-117149077D01*
X198700313Y-117157055D01*
X198647507Y-117202808D01*
X198578349Y-117212749D01*
X198514794Y-117183722D01*
X198491687Y-117157055D01*
X198486559Y-117149077D01*
X198486558Y-117149075D01*
X198321459Y-116958540D01*
X198130924Y-116793441D01*
X197918838Y-116657141D01*
X197918833Y-116657138D01*
X197689495Y-116552404D01*
X197447605Y-116481380D01*
X197447601Y-116481379D01*
X197261980Y-116454691D01*
X197198056Y-116445500D01*
X196945944Y-116445500D01*
X196924293Y-116448613D01*
X196696398Y-116481379D01*
X196696394Y-116481380D01*
X196454504Y-116552404D01*
X196225166Y-116657138D01*
X196225161Y-116657141D01*
X196013075Y-116793441D01*
X195822540Y-116958540D01*
X195657441Y-117149075D01*
X195657440Y-117149077D01*
X195652313Y-117157055D01*
X195599507Y-117202808D01*
X195530349Y-117212749D01*
X195466794Y-117183722D01*
X195443687Y-117157055D01*
X195438559Y-117149077D01*
X195438558Y-117149075D01*
X195273459Y-116958540D01*
X195082924Y-116793441D01*
X194870838Y-116657141D01*
X194870833Y-116657138D01*
X194641497Y-116552405D01*
X194502068Y-116511465D01*
X194443290Y-116473691D01*
X194414265Y-116410135D01*
X194424209Y-116340976D01*
X194443285Y-116311292D01*
X194525567Y-116216336D01*
X194585338Y-116085459D01*
X194605023Y-116018420D01*
X194605024Y-116018416D01*
X194625500Y-115876000D01*
X194625500Y-96624000D01*
X194613947Y-96516544D01*
X194602741Y-96465033D01*
X194602637Y-96464722D01*
X194568616Y-96362502D01*
X194568613Y-96362496D01*
X194540265Y-96318386D01*
X194490825Y-96241457D01*
X194490820Y-96241451D01*
X194445076Y-96188659D01*
X194445072Y-96188656D01*
X194445070Y-96188653D01*
X194336336Y-96094433D01*
X194336333Y-96094431D01*
X194336331Y-96094430D01*
X194205465Y-96034664D01*
X194205460Y-96034662D01*
X194205459Y-96034662D01*
X194138420Y-96014977D01*
X194138422Y-96014977D01*
X194138417Y-96014976D01*
X194090091Y-96008028D01*
X193996000Y-95994500D01*
X193995998Y-95994500D01*
X190749500Y-95994500D01*
X190682461Y-95974815D01*
X190636706Y-95922011D01*
X190625500Y-95870500D01*
X190625500Y-87624010D01*
X190625500Y-87624000D01*
X190613947Y-87516544D01*
X190602741Y-87465033D01*
X190602637Y-87464722D01*
X190568616Y-87362502D01*
X190568613Y-87362496D01*
X190490828Y-87241462D01*
X190490825Y-87241457D01*
X190466733Y-87213653D01*
X190445076Y-87188659D01*
X190445072Y-87188656D01*
X190445070Y-87188653D01*
X190336336Y-87094433D01*
X190336333Y-87094431D01*
X190336331Y-87094430D01*
X190205465Y-87034664D01*
X190205460Y-87034662D01*
X190205459Y-87034662D01*
X190138420Y-87014977D01*
X190138422Y-87014977D01*
X190138417Y-87014976D01*
X190076347Y-87006052D01*
X189996000Y-86994500D01*
X156744000Y-86994500D01*
X156743991Y-86994500D01*
X156743990Y-86994501D01*
X156636549Y-87006052D01*
X156636537Y-87006054D01*
X156585027Y-87017260D01*
X156482502Y-87051383D01*
X156482496Y-87051386D01*
X156361462Y-87129171D01*
X156361451Y-87129179D01*
X156308659Y-87174923D01*
X156214433Y-87283664D01*
X156214430Y-87283668D01*
X156154664Y-87414534D01*
X156134976Y-87481582D01*
X156127454Y-87533900D01*
X156114502Y-87623990D01*
X156114500Y-87624001D01*
X156114500Y-99601992D01*
X156094815Y-99669031D01*
X156046796Y-99712476D01*
X155938388Y-99767713D01*
X155772786Y-99888028D01*
X155628028Y-100032786D01*
X155507715Y-100198386D01*
X155414781Y-100380776D01*
X155351522Y-100575465D01*
X155319500Y-100777648D01*
X139920500Y-100777648D01*
X139888477Y-100575466D01*
X139825220Y-100380781D01*
X139825218Y-100380778D01*
X139825218Y-100380776D01*
X139791503Y-100314607D01*
X139732287Y-100198390D01*
X139720288Y-100181875D01*
X139649182Y-100084004D01*
X139625702Y-100018198D01*
X139625500Y-100011119D01*
X139625500Y-87533902D01*
X139625500Y-87533898D01*
X139607608Y-87400599D01*
X139590363Y-87337517D01*
X139567578Y-87283668D01*
X139537960Y-87213667D01*
X139537950Y-87213647D01*
X135238547Y-79937735D01*
X135203669Y-79878711D01*
X145769500Y-79878711D01*
X145769500Y-80121288D01*
X145801161Y-80361785D01*
X145863947Y-80596104D01*
X145895404Y-80672047D01*
X145956776Y-80820212D01*
X146078064Y-81030289D01*
X146078066Y-81030292D01*
X146078067Y-81030293D01*
X146225733Y-81222736D01*
X146225739Y-81222743D01*
X146397256Y-81394260D01*
X146397262Y-81394265D01*
X146589711Y-81541936D01*
X146799788Y-81663224D01*
X147023900Y-81756054D01*
X147258211Y-81818838D01*
X147438586Y-81842584D01*
X147498711Y-81850500D01*
X147498712Y-81850500D01*
X147741289Y-81850500D01*
X147789388Y-81844167D01*
X147981789Y-81818838D01*
X148216100Y-81756054D01*
X148440212Y-81663224D01*
X148650289Y-81541936D01*
X148842738Y-81394265D01*
X149014265Y-81222738D01*
X149161936Y-81030289D01*
X149283224Y-80820212D01*
X149376054Y-80596100D01*
X149438838Y-80361789D01*
X149470500Y-80121288D01*
X149470500Y-79878712D01*
X149438838Y-79638211D01*
X149376054Y-79403900D01*
X149283224Y-79179788D01*
X149161936Y-78969711D01*
X149014265Y-78777262D01*
X149014260Y-78777256D01*
X148842743Y-78605739D01*
X148842736Y-78605733D01*
X148650293Y-78458067D01*
X148650292Y-78458066D01*
X148650289Y-78458064D01*
X148440212Y-78336776D01*
X148440205Y-78336773D01*
X148216104Y-78243947D01*
X147981785Y-78181161D01*
X147741289Y-78149500D01*
X147741288Y-78149500D01*
X147498712Y-78149500D01*
X147498711Y-78149500D01*
X147258214Y-78181161D01*
X147023895Y-78243947D01*
X146799794Y-78336773D01*
X146799785Y-78336777D01*
X146589706Y-78458067D01*
X146397263Y-78605733D01*
X146397256Y-78605739D01*
X146225739Y-78777256D01*
X146225733Y-78777263D01*
X146078067Y-78969706D01*
X145956777Y-79179785D01*
X145956773Y-79179794D01*
X145863947Y-79403895D01*
X145801161Y-79638214D01*
X145769500Y-79878711D01*
X135203669Y-79878711D01*
X134451455Y-78605733D01*
X133320955Y-76692580D01*
X133303798Y-76624852D01*
X133325982Y-76558598D01*
X133380463Y-76514854D01*
X133427711Y-76505500D01*
X185395501Y-76505500D01*
X185462540Y-76525185D01*
X185508295Y-76577989D01*
X185519501Y-76629500D01*
X185519501Y-77280018D01*
X185530000Y-77382796D01*
X185530001Y-77382799D01*
X185585185Y-77549331D01*
X185585186Y-77549334D01*
X185677288Y-77698656D01*
X185801344Y-77822712D01*
X185950666Y-77914814D01*
X186117203Y-77969999D01*
X186219991Y-77980500D01*
X189020008Y-77980499D01*
X189122797Y-77969999D01*
X189289334Y-77914814D01*
X189438656Y-77822712D01*
X189562712Y-77698656D01*
X189654814Y-77549334D01*
X189709999Y-77382797D01*
X189720500Y-77280009D01*
X189720500Y-76629500D01*
X189740185Y-76562461D01*
X189792989Y-76516706D01*
X189844500Y-76505500D01*
X193573394Y-76505500D01*
X193573408Y-76505500D01*
X193610692Y-76504123D01*
X193610870Y-76504109D01*
X193628910Y-76502776D01*
X193628920Y-76502774D01*
X193628932Y-76502774D01*
X193666000Y-76498653D01*
X193803855Y-76457452D01*
X193864330Y-76429480D01*
X193866200Y-76428675D01*
X193867255Y-76428127D01*
X193867270Y-76428121D01*
X193867275Y-76428119D01*
X193987937Y-76349747D01*
X201910529Y-69417478D01*
X201960497Y-69367145D01*
X201983157Y-69340864D01*
X202025567Y-69284067D01*
X202085338Y-69153190D01*
X202105023Y-69086151D01*
X202105024Y-69086147D01*
X202125500Y-68943731D01*
X202125500Y-58124000D01*
X202113947Y-58016544D01*
X202102741Y-57965033D01*
X202102637Y-57964722D01*
X202068616Y-57862502D01*
X202068613Y-57862496D01*
X201990828Y-57741462D01*
X201990825Y-57741457D01*
X201950123Y-57694484D01*
X201945076Y-57688659D01*
X201945072Y-57688656D01*
X201945070Y-57688653D01*
X201836336Y-57594433D01*
X201836333Y-57594431D01*
X201836331Y-57594430D01*
X201705465Y-57534664D01*
X201705460Y-57534662D01*
X201705459Y-57534662D01*
X201638420Y-57514977D01*
X201638422Y-57514977D01*
X201638417Y-57514976D01*
X201576347Y-57506052D01*
X201496000Y-57494500D01*
X127673884Y-57494500D01*
X127630786Y-57497182D01*
X127611192Y-57498402D01*
X127580693Y-57502214D01*
X127580672Y-57502217D01*
X127518962Y-57513861D01*
X127518960Y-57513861D01*
X127385960Y-57568758D01*
X127325847Y-57604324D01*
X127325833Y-57604333D01*
X127325830Y-57604336D01*
X127325827Y-57604338D01*
X127291910Y-57631601D01*
X127213683Y-57694481D01*
X120437101Y-64955107D01*
X120376968Y-64990686D01*
X120346450Y-64994500D01*
X109893549Y-64994500D01*
X109826510Y-64974815D01*
X109802898Y-64955107D01*
X103026319Y-57694484D01*
X103005642Y-57674923D01*
X102980681Y-57651308D01*
X102957070Y-57631601D01*
X102953761Y-57629171D01*
X102906454Y-57594434D01*
X102775578Y-57534663D01*
X102708533Y-57514976D01*
X102646463Y-57506052D01*
X102566116Y-57494500D01*
X94744000Y-57494500D01*
X94743991Y-57494500D01*
X94743990Y-57494501D01*
X94636549Y-57506052D01*
X94636537Y-57506054D01*
X94585027Y-57517260D01*
X94482502Y-57551383D01*
X94482496Y-57551386D01*
X94361462Y-57629171D01*
X94361451Y-57629179D01*
X94308659Y-57674923D01*
X94214433Y-57783664D01*
X94214430Y-57783668D01*
X94154664Y-57914534D01*
X94134976Y-57981582D01*
X94129949Y-58016549D01*
X94114502Y-58123990D01*
X94114500Y-58124001D01*
X79120500Y-58124001D01*
X79120500Y-41878711D01*
X80769500Y-41878711D01*
X80769500Y-42121288D01*
X80801161Y-42361785D01*
X80863947Y-42596104D01*
X80956773Y-42820205D01*
X80956776Y-42820212D01*
X81078064Y-43030289D01*
X81078066Y-43030292D01*
X81078067Y-43030293D01*
X81225733Y-43222736D01*
X81225739Y-43222743D01*
X81397256Y-43394260D01*
X81397262Y-43394265D01*
X81589711Y-43541936D01*
X81799788Y-43663224D01*
X82023900Y-43756054D01*
X82258211Y-43818838D01*
X82438586Y-43842584D01*
X82498711Y-43850500D01*
X82498712Y-43850500D01*
X82741289Y-43850500D01*
X82789388Y-43844167D01*
X82981789Y-43818838D01*
X83216100Y-43756054D01*
X83440212Y-43663224D01*
X83650289Y-43541936D01*
X83842738Y-43394265D01*
X84014265Y-43222738D01*
X84161936Y-43030289D01*
X84283224Y-42820212D01*
X84376054Y-42596100D01*
X84438838Y-42361789D01*
X84470500Y-42121288D01*
X84470500Y-41878712D01*
X84470500Y-41878711D01*
X210769500Y-41878711D01*
X210769500Y-42121288D01*
X210801161Y-42361785D01*
X210863947Y-42596104D01*
X210956773Y-42820205D01*
X210956776Y-42820212D01*
X211078064Y-43030289D01*
X211078066Y-43030292D01*
X211078067Y-43030293D01*
X211225733Y-43222736D01*
X211225739Y-43222743D01*
X211397256Y-43394260D01*
X211397262Y-43394265D01*
X211589711Y-43541936D01*
X211799788Y-43663224D01*
X212023900Y-43756054D01*
X212258211Y-43818838D01*
X212438586Y-43842584D01*
X212498711Y-43850500D01*
X212498712Y-43850500D01*
X212741289Y-43850500D01*
X212789388Y-43844167D01*
X212981789Y-43818838D01*
X213216100Y-43756054D01*
X213440212Y-43663224D01*
X213650289Y-43541936D01*
X213842738Y-43394265D01*
X214014265Y-43222738D01*
X214161936Y-43030289D01*
X214283224Y-42820212D01*
X214376054Y-42596100D01*
X214438838Y-42361789D01*
X214470500Y-42121288D01*
X214470500Y-41878712D01*
X214438838Y-41638211D01*
X214376054Y-41403900D01*
X214283224Y-41179788D01*
X214161936Y-40969711D01*
X214014265Y-40777262D01*
X214014260Y-40777256D01*
X213842743Y-40605739D01*
X213842736Y-40605733D01*
X213650293Y-40458067D01*
X213650292Y-40458066D01*
X213650289Y-40458064D01*
X213440212Y-40336776D01*
X213440205Y-40336773D01*
X213216104Y-40243947D01*
X212981785Y-40181161D01*
X212741289Y-40149500D01*
X212741288Y-40149500D01*
X212498712Y-40149500D01*
X212498711Y-40149500D01*
X212258214Y-40181161D01*
X212023895Y-40243947D01*
X211799794Y-40336773D01*
X211799785Y-40336777D01*
X211589706Y-40458067D01*
X211397263Y-40605733D01*
X211397256Y-40605739D01*
X211225739Y-40777256D01*
X211225733Y-40777263D01*
X211078067Y-40969706D01*
X210956777Y-41179785D01*
X210956773Y-41179794D01*
X210863947Y-41403895D01*
X210801161Y-41638214D01*
X210769500Y-41878711D01*
X84470500Y-41878711D01*
X84438838Y-41638211D01*
X84376054Y-41403900D01*
X84283224Y-41179788D01*
X84161936Y-40969711D01*
X84014265Y-40777262D01*
X84014260Y-40777256D01*
X83842743Y-40605739D01*
X83842736Y-40605733D01*
X83650293Y-40458067D01*
X83650292Y-40458066D01*
X83650289Y-40458064D01*
X83440212Y-40336776D01*
X83440205Y-40336773D01*
X83216104Y-40243947D01*
X82981785Y-40181161D01*
X82741289Y-40149500D01*
X82741288Y-40149500D01*
X82498712Y-40149500D01*
X82498711Y-40149500D01*
X82258214Y-40181161D01*
X82023895Y-40243947D01*
X81799794Y-40336773D01*
X81799785Y-40336777D01*
X81589706Y-40458067D01*
X81397263Y-40605733D01*
X81397256Y-40605739D01*
X81225739Y-40777256D01*
X81225733Y-40777263D01*
X81078067Y-40969706D01*
X80956777Y-41179785D01*
X80956773Y-41179794D01*
X80863947Y-41403895D01*
X80801161Y-41638214D01*
X80769500Y-41878711D01*
X79120500Y-41878711D01*
X79120500Y-38624500D01*
X79140185Y-38557461D01*
X79192989Y-38511706D01*
X79244500Y-38500500D01*
X215995500Y-38500500D01*
X216062539Y-38520185D01*
G37*
%TD.AperFunction*%
%TD*%
%TA.AperFunction,Conductor*%
%TO.N,/vbus*%
G36*
X102633155Y-58019685D02*
G01*
X102656766Y-58039392D01*
X103756224Y-59217383D01*
X109619998Y-65499999D01*
X109620000Y-65500000D01*
X120620000Y-65500000D01*
X120620001Y-65499999D01*
X122360809Y-63634847D01*
X127583233Y-58039392D01*
X127643366Y-58003814D01*
X127673884Y-58000000D01*
X201496000Y-58000000D01*
X201563039Y-58019685D01*
X201608794Y-58072489D01*
X201620000Y-58124000D01*
X201620000Y-68943731D01*
X201600315Y-69010770D01*
X201577655Y-69037051D01*
X193655063Y-75969320D01*
X193591648Y-75998651D01*
X193573408Y-76000000D01*
X112620000Y-76000000D01*
X112620000Y-86500000D01*
X115996000Y-86500000D01*
X116063039Y-86519685D01*
X116108794Y-86572489D01*
X116120000Y-86624000D01*
X116120000Y-88376000D01*
X116100315Y-88443039D01*
X116047511Y-88488794D01*
X115996000Y-88500000D01*
X113620000Y-88500000D01*
X113620000Y-88988326D01*
X113619572Y-88996298D01*
X113619678Y-88996304D01*
X113619500Y-88999628D01*
X113619500Y-91000363D01*
X113619679Y-91003680D01*
X113619572Y-91003685D01*
X113620000Y-91011656D01*
X113620000Y-91807270D01*
X113600315Y-91874309D01*
X113583681Y-91894951D01*
X113014951Y-92463681D01*
X112953628Y-92497166D01*
X112927270Y-92500000D01*
X110147883Y-92500000D01*
X110094800Y-92488063D01*
X100690917Y-88033592D01*
X100638758Y-87987104D01*
X100620000Y-87921529D01*
X100620000Y-75000001D01*
X100620000Y-75000000D01*
X94635141Y-64027758D01*
X94620000Y-63968380D01*
X94620000Y-58124000D01*
X94639685Y-58056961D01*
X94692489Y-58011206D01*
X94744000Y-58000000D01*
X102566116Y-58000000D01*
X102633155Y-58019685D01*
G37*
%TD.AperFunction*%
%TD*%
%TA.AperFunction,Conductor*%
%TO.N,/high_nmos_s*%
G36*
X132616281Y-76519685D02*
G01*
X132655997Y-76560918D01*
X139102755Y-87470816D01*
X139120000Y-87533898D01*
X139120000Y-100376000D01*
X139100315Y-100443039D01*
X139047511Y-100488794D01*
X138996000Y-100500000D01*
X116744000Y-100500000D01*
X116676961Y-100480315D01*
X116631206Y-100427511D01*
X116620000Y-100376000D01*
X116620000Y-91011667D01*
X116620427Y-91003688D01*
X116620322Y-91003683D01*
X116620497Y-91000398D01*
X116620500Y-91000373D01*
X116620499Y-88999628D01*
X116620498Y-88999627D01*
X116620321Y-88996304D01*
X116620426Y-88996298D01*
X116620000Y-88988336D01*
X116620000Y-87585577D01*
X116620383Y-87575843D01*
X116620500Y-87574357D01*
X116620500Y-87345640D01*
X116620382Y-87344140D01*
X116620000Y-87334417D01*
X116620000Y-86000000D01*
X113244000Y-86000000D01*
X113176961Y-85980315D01*
X113131206Y-85927511D01*
X113120000Y-85876000D01*
X113120000Y-76624000D01*
X113139685Y-76556961D01*
X113192489Y-76511206D01*
X113244000Y-76500000D01*
X132549242Y-76500000D01*
X132616281Y-76519685D01*
G37*
%TD.AperFunction*%
%TD*%
%TA.AperFunction,Conductor*%
%TO.N,/low_nmos_s*%
G36*
X194063039Y-96519685D02*
G01*
X194108794Y-96572489D01*
X194120000Y-96624000D01*
X194120000Y-115876000D01*
X194100315Y-115943039D01*
X194047511Y-115988794D01*
X193996000Y-116000000D01*
X192862500Y-116000000D01*
X192795461Y-115980315D01*
X192749706Y-115927511D01*
X192738500Y-115876000D01*
X192738500Y-115807456D01*
X192700052Y-115614170D01*
X192700051Y-115614169D01*
X192700051Y-115614165D01*
X192700049Y-115614160D01*
X192624635Y-115432092D01*
X192624628Y-115432079D01*
X192515139Y-115268218D01*
X192515136Y-115268214D01*
X192375785Y-115128863D01*
X192375781Y-115128860D01*
X192211920Y-115019371D01*
X192211907Y-115019364D01*
X192029839Y-114943950D01*
X192029829Y-114943947D01*
X191836543Y-114905500D01*
X191836541Y-114905500D01*
X191639459Y-114905500D01*
X191639457Y-114905500D01*
X191446170Y-114943947D01*
X191446160Y-114943950D01*
X191264092Y-115019364D01*
X191264079Y-115019371D01*
X191100218Y-115128860D01*
X191100214Y-115128863D01*
X190960863Y-115268214D01*
X190960860Y-115268218D01*
X190851371Y-115432079D01*
X190851364Y-115432092D01*
X190775950Y-115614160D01*
X190775947Y-115614170D01*
X190760879Y-115689922D01*
X190757237Y-115696884D01*
X190756967Y-115704735D01*
X190741275Y-115727399D01*
X190728494Y-115751833D01*
X190720656Y-115757178D01*
X190717194Y-115762180D01*
X190686864Y-115780229D01*
X190493871Y-115860465D01*
X190424412Y-115868024D01*
X190389975Y-115856451D01*
X190281999Y-115801434D01*
X190057368Y-115728446D01*
X189824097Y-115691500D01*
X189824092Y-115691500D01*
X189587908Y-115691500D01*
X189587903Y-115691500D01*
X189354631Y-115728446D01*
X189130003Y-115801433D01*
X188919566Y-115908657D01*
X188826440Y-115976318D01*
X188760633Y-115999798D01*
X188753554Y-116000000D01*
X185744000Y-116000000D01*
X185676961Y-115980315D01*
X185631206Y-115927511D01*
X185620000Y-115876000D01*
X185620000Y-99331266D01*
X185639685Y-99264227D01*
X185692489Y-99218472D01*
X185761647Y-99208528D01*
X185816884Y-99230947D01*
X185898462Y-99290217D01*
X186102242Y-99394048D01*
X186102244Y-99394049D01*
X186319751Y-99464721D01*
X186319752Y-99464721D01*
X186319755Y-99464722D01*
X186545646Y-99500500D01*
X186545647Y-99500500D01*
X186774353Y-99500500D01*
X186774354Y-99500500D01*
X187000245Y-99464722D01*
X187000248Y-99464721D01*
X187000249Y-99464721D01*
X187217755Y-99394049D01*
X187217755Y-99394048D01*
X187217758Y-99394048D01*
X187421538Y-99290217D01*
X187606566Y-99155786D01*
X187768286Y-98994066D01*
X187902717Y-98809038D01*
X188006548Y-98605258D01*
X188077222Y-98387745D01*
X188113000Y-98161854D01*
X188113000Y-97838146D01*
X188077222Y-97612255D01*
X188077221Y-97612251D01*
X188077221Y-97612250D01*
X188006549Y-97394744D01*
X187902716Y-97190961D01*
X187768286Y-97005934D01*
X187606566Y-96844214D01*
X187441544Y-96724318D01*
X187398879Y-96668988D01*
X187392900Y-96599374D01*
X187425506Y-96537579D01*
X187486345Y-96503222D01*
X187514430Y-96500000D01*
X193996000Y-96500000D01*
X194063039Y-96519685D01*
G37*
%TD.AperFunction*%
%TD*%
%TA.AperFunction,Conductor*%
%TO.N,/low_nmos_d*%
G36*
X190063039Y-87519685D02*
G01*
X190108794Y-87572489D01*
X190120000Y-87624000D01*
X190120000Y-95870500D01*
X190100315Y-95937539D01*
X190047511Y-95983294D01*
X189996000Y-95994500D01*
X187514418Y-95994500D01*
X187456817Y-95997793D01*
X187428718Y-96001017D01*
X187371856Y-96010856D01*
X187371854Y-96010857D01*
X187237777Y-96063058D01*
X187237771Y-96063061D01*
X187186988Y-96091739D01*
X187180565Y-96094617D01*
X187062995Y-96185276D01*
X187062992Y-96185279D01*
X186978423Y-96301681D01*
X186945818Y-96363475D01*
X186897469Y-96498980D01*
X186897468Y-96498981D01*
X186889253Y-96642630D01*
X186895233Y-96712245D01*
X186927820Y-96852383D01*
X186998570Y-96977667D01*
X186998573Y-96977671D01*
X186998575Y-96977674D01*
X187038626Y-97029614D01*
X187039917Y-97031414D01*
X187041235Y-97032997D01*
X187041237Y-97033000D01*
X187144418Y-97133276D01*
X187269367Y-97224057D01*
X187284162Y-97236694D01*
X187375807Y-97328339D01*
X187388444Y-97343134D01*
X187464637Y-97448004D01*
X187474804Y-97464595D01*
X187533653Y-97580093D01*
X187541099Y-97598070D01*
X187581152Y-97721342D01*
X187585694Y-97740261D01*
X187605973Y-97868287D01*
X187607500Y-97887686D01*
X187607500Y-98112313D01*
X187605973Y-98131712D01*
X187585695Y-98259734D01*
X187581153Y-98278652D01*
X187541100Y-98401926D01*
X187533654Y-98419904D01*
X187474805Y-98535401D01*
X187464638Y-98551992D01*
X187388441Y-98656867D01*
X187375804Y-98671662D01*
X187284162Y-98763304D01*
X187269367Y-98775941D01*
X187164492Y-98852138D01*
X187147901Y-98862305D01*
X187032406Y-98921153D01*
X187014428Y-98928599D01*
X186891154Y-98968652D01*
X186872237Y-98973194D01*
X186779869Y-98987825D01*
X186744210Y-98993473D01*
X186724813Y-98995000D01*
X186595185Y-98995000D01*
X186575788Y-98993473D01*
X186550151Y-98989412D01*
X186447764Y-98973195D01*
X186428845Y-98968653D01*
X186305570Y-98928599D01*
X186287594Y-98921153D01*
X186172100Y-98862307D01*
X186155508Y-98852139D01*
X186114023Y-98821998D01*
X186114017Y-98821994D01*
X186114010Y-98821989D01*
X186114002Y-98821984D01*
X186113995Y-98821980D01*
X186006992Y-98762556D01*
X186006991Y-98762555D01*
X185951760Y-98740139D01*
X185951735Y-98740131D01*
X185833586Y-98708173D01*
X185696999Y-98708173D01*
X185629960Y-98688488D01*
X185584205Y-98635684D01*
X185572999Y-98584173D01*
X185572999Y-96952129D01*
X185572998Y-96952123D01*
X185572997Y-96952116D01*
X185566591Y-96892517D01*
X185516296Y-96757669D01*
X185516295Y-96757668D01*
X185516293Y-96757664D01*
X185430047Y-96642455D01*
X185430044Y-96642452D01*
X185314835Y-96556206D01*
X185314828Y-96556202D01*
X185179982Y-96505908D01*
X185179983Y-96505908D01*
X185120383Y-96499501D01*
X185120381Y-96499500D01*
X185120373Y-96499500D01*
X185120364Y-96499500D01*
X183119629Y-96499500D01*
X183119623Y-96499501D01*
X183060016Y-96505908D01*
X182925171Y-96556202D01*
X182925164Y-96556206D01*
X182809955Y-96642452D01*
X182809952Y-96642455D01*
X182723706Y-96757664D01*
X182723702Y-96757671D01*
X182673408Y-96892517D01*
X182667001Y-96952116D01*
X182667001Y-96952123D01*
X182667000Y-96952135D01*
X182667000Y-99047870D01*
X182667001Y-99047876D01*
X182673408Y-99107483D01*
X182723702Y-99242328D01*
X182723704Y-99242331D01*
X182768139Y-99301688D01*
X182792557Y-99367153D01*
X182777706Y-99435426D01*
X182728301Y-99484832D01*
X182668873Y-99500000D01*
X179120000Y-99500000D01*
X176653965Y-101472828D01*
X176589319Y-101499336D01*
X176576503Y-101500000D01*
X156744000Y-101500000D01*
X156676961Y-101480315D01*
X156631206Y-101427511D01*
X156620000Y-101376000D01*
X156620000Y-87624000D01*
X156639685Y-87556961D01*
X156692489Y-87511206D01*
X156744000Y-87500000D01*
X189996000Y-87500000D01*
X190063039Y-87519685D01*
G37*
%TD.AperFunction*%
%TD*%
M02*
