M48
; DRILL file {KiCad 9.0.6} date 2025-12-11T13:58:51+0100
; FORMAT={-:-/ absolute / metric / decimal}
; #@! TF.CreationDate,2025-12-11T13:58:51+01:00
; #@! TF.GenerationSoftware,Kicad,Pcbnew,9.0.6
; #@! TF.FileFunction,Plated,1,2,PTH
FMAT,2
METRIC
; #@! TA.AperFunction,Plated,PTH,ComponentDrill
T1C0.700
; #@! TA.AperFunction,Plated,PTH,ComponentDrill
T2C0.750
; #@! TA.AperFunction,Plated,PTH,ComponentDrill
T3C0.800
; #@! TA.AperFunction,Plated,PTH,ComponentDrill
T4C0.900
; #@! TA.AperFunction,Plated,PTH,ComponentDrill
T5C1.000
; #@! TA.AperFunction,Plated,PTH,ComponentDrill
T6C1.100
; #@! TA.AperFunction,Plated,PTH,ComponentDrill
T7C1.200
; #@! TA.AperFunction,Plated,PTH,ComponentDrill
T8C1.300
; #@! TA.AperFunction,Plated,PTH,ComponentDrill
T9C1.600
; #@! TA.AperFunction,Plated,PTH,ComponentDrill
T10C2.000
; #@! TA.AperFunction,Plated,PTH,ComponentDrill
T11C6.100
%
G90
G05
T1
X91.62Y-100.42
X91.62Y-105.5
X105.58Y-112.5
X110.66Y-112.5
T2
X95.26Y-95.73
X95.26Y-97.0
X95.26Y-98.27
T3
X86.62Y-108.0
X89.04Y-92.5
X91.62Y-108.0
X95.58Y-138.53
X95.66Y-120.37
X95.66Y-130.53
X96.12Y-112.5
X96.12Y-115.0
X97.12Y-75.5
X98.66Y-123.03
X98.66Y-133.19
X98.66Y-141.53
X99.2Y-92.5
X101.62Y-111.5
X101.62Y-116.5
X101.66Y-125.45
X101.66Y-135.61
X101.66Y-144.53
X102.12Y-86.84
X102.12Y-97.0
X105.04Y-115.33
X105.04Y-117.87
X105.04Y-120.41
X105.04Y-122.95
X105.04Y-125.49
X105.04Y-128.03
X105.04Y-130.57
X105.74Y-138.53
X107.28Y-75.5
X108.82Y-141.53
X111.82Y-144.53
X112.12Y-94.42
X112.12Y-104.58
X112.66Y-115.33
X112.66Y-117.87
X112.66Y-120.41
X112.66Y-122.95
X112.66Y-125.49
X112.66Y-128.03
X112.66Y-130.57
X118.16Y-117.95
X118.16Y-120.45
X118.16Y-125.45
X118.16Y-127.95
X124.5Y-127.5
X124.5Y-130.5
X130.62Y-100.88
X130.62Y-116.12
X138.62Y-100.88
X138.62Y-116.12
X139.74Y-127.5
X139.74Y-130.5
X140.12Y-133.5
X140.12Y-138.5
X143.62Y-120.92
X143.62Y-131.08
X143.62Y-133.5
X143.62Y-143.66
X152.62Y-120.92
X152.62Y-131.08
X152.62Y-133.42
X152.62Y-143.58
X156.12Y-133.5
X156.12Y-138.5
X156.62Y-100.88
X156.62Y-116.12
X160.12Y-119.92
X160.12Y-130.08
X160.38Y-134.5
X160.38Y-137.5
X164.0Y-116.0
X164.0Y-119.0
X175.62Y-134.5
X175.62Y-137.5
X179.04Y-122.0
X179.12Y-125.5
X179.12Y-129.0
X179.12Y-132.5
X179.24Y-116.0
X179.24Y-119.0
X184.12Y-125.5
X184.12Y-132.5
X189.2Y-122.0
X189.28Y-129.0
X189.706Y-117.192
X191.738Y-114.906
X208.502Y-114.906
X210.534Y-117.192
T4
X94.58Y-87.5
X94.62Y-81.0
X97.12Y-87.5
X97.16Y-81.0
T5
X90.12Y-111.46
X90.12Y-114.0
X91.12Y-138.96
X91.12Y-141.5
X91.12Y-144.04
X148.12Y-131.69
X148.12Y-134.23
X148.12Y-136.77
X148.12Y-139.31
T6
X95.58Y-108.45
X98.12Y-108.45
X100.66Y-108.45
X115.12Y-84.92
X115.12Y-87.46
X115.12Y-90.0
X125.12Y-113.34
X125.12Y-123.5
X184.12Y-98.0
X186.66Y-98.0
X189.2Y-98.0
T7
X107.12Y-79.34
X107.12Y-99.66
T8
X84.152Y-73.75
X84.152Y-78.75
T9
X84.62Y-84.38
X84.62Y-99.62
X115.12Y-63.26
X115.12Y-78.5
X187.62Y-75.88
X187.62Y-91.12
T10
X97.62Y-51.0
X97.62Y-61.0
X132.62Y-51.0
X132.62Y-61.0
X165.62Y-51.0
X165.62Y-61.0
X198.62Y-51.018
X198.62Y-61.018
T11
X132.62Y-93.5
X162.59Y-93.5
M30
