%TF.GenerationSoftware,KiCad,Pcbnew,9.0.6*%
%TF.CreationDate,2025-12-11T16:12:32+01:00*%
%TF.ProjectId,saturation_meter,73617475-7261-4746-996f-6e5f6d657465,1.0.0*%
%TF.SameCoordinates,Original*%
%TF.FileFunction,Profile,NP*%
%FSLAX46Y46*%
G04 Gerber Fmt 4.6, Leading zero omitted, Abs format (unit mm)*
G04 Created by KiCad (PCBNEW 9.0.6) date 2025-12-11 16:12:32*
%MOMM*%
%LPD*%
G01*
G04 APERTURE LIST*
%TA.AperFunction,Profile*%
%ADD10C,0.050000*%
%TD*%
%ADD11C,0.150000*%
G04 APERTURE END LIST*
D10*
X78500000Y-38000000D02*
X216500000Y-38000000D01*
X216500000Y-149000000D01*
X78500000Y-149000000D01*
X78500000Y-38000000D01*
D11*
X67304819Y-92630952D02*
X67304819Y-93202380D01*
X67304819Y-92916666D02*
X66304819Y-92916666D01*
X66304819Y-92916666D02*
X66447676Y-93011904D01*
X66447676Y-93011904D02*
X66542914Y-93107142D01*
X66542914Y-93107142D02*
X66590533Y-93202380D01*
X67304819Y-91678571D02*
X67304819Y-92249999D01*
X67304819Y-91964285D02*
X66304819Y-91964285D01*
X66304819Y-91964285D02*
X66447676Y-92059523D01*
X66447676Y-92059523D02*
X66542914Y-92154761D01*
X66542914Y-92154761D02*
X66590533Y-92249999D01*
X66304819Y-90773809D02*
X66304819Y-91249999D01*
X66304819Y-91249999D02*
X66781009Y-91297618D01*
X66781009Y-91297618D02*
X66733390Y-91249999D01*
X66733390Y-91249999D02*
X66685771Y-91154761D01*
X66685771Y-91154761D02*
X66685771Y-90916666D01*
X66685771Y-90916666D02*
X66733390Y-90821428D01*
X66733390Y-90821428D02*
X66781009Y-90773809D01*
X66781009Y-90773809D02*
X66876247Y-90726190D01*
X66876247Y-90726190D02*
X67114342Y-90726190D01*
X67114342Y-90726190D02*
X67209580Y-90773809D01*
X67209580Y-90773809D02*
X67257200Y-90821428D01*
X67257200Y-90821428D02*
X67304819Y-90916666D01*
X67304819Y-90916666D02*
X67304819Y-91154761D01*
X67304819Y-91154761D02*
X67257200Y-91249999D01*
X67257200Y-91249999D02*
X67209580Y-91297618D01*
X67209580Y-90297618D02*
X67257200Y-90249999D01*
X67257200Y-90249999D02*
X67304819Y-90297618D01*
X67304819Y-90297618D02*
X67257200Y-90345237D01*
X67257200Y-90345237D02*
X67209580Y-90297618D01*
X67209580Y-90297618D02*
X67304819Y-90297618D01*
X66304819Y-89345238D02*
X66304819Y-89821428D01*
X66304819Y-89821428D02*
X66781009Y-89869047D01*
X66781009Y-89869047D02*
X66733390Y-89821428D01*
X66733390Y-89821428D02*
X66685771Y-89726190D01*
X66685771Y-89726190D02*
X66685771Y-89488095D01*
X66685771Y-89488095D02*
X66733390Y-89392857D01*
X66733390Y-89392857D02*
X66781009Y-89345238D01*
X66781009Y-89345238D02*
X66876247Y-89297619D01*
X66876247Y-89297619D02*
X67114342Y-89297619D01*
X67114342Y-89297619D02*
X67209580Y-89345238D01*
X67209580Y-89345238D02*
X67257200Y-89392857D01*
X67257200Y-89392857D02*
X67304819Y-89488095D01*
X67304819Y-89488095D02*
X67304819Y-89726190D01*
X67304819Y-89726190D02*
X67257200Y-89821428D01*
X67257200Y-89821428D02*
X67209580Y-89869047D01*
D10*
X78000000Y-33500000D02*
X67413580Y-33500000D01*
X67413580Y-149000000D02*
X78000000Y-149000000D01*
X68000000Y-33500000D02*
X68000000Y-149000000D01*
X68000000Y-33500000D02*
X68586421Y-34626504D01*
X68000000Y-33500000D02*
X67413579Y-34626504D01*
X68000000Y-149000000D02*
X67413579Y-147873496D01*
X68000000Y-149000000D02*
X68586421Y-147873496D01*
D11*
X146833333Y-30304819D02*
X146261905Y-30304819D01*
X146547619Y-30304819D02*
X146547619Y-29304819D01*
X146547619Y-29304819D02*
X146452381Y-29447676D01*
X146452381Y-29447676D02*
X146357143Y-29542914D01*
X146357143Y-29542914D02*
X146261905Y-29590533D01*
X147166667Y-29304819D02*
X147785714Y-29304819D01*
X147785714Y-29304819D02*
X147452381Y-29685771D01*
X147452381Y-29685771D02*
X147595238Y-29685771D01*
X147595238Y-29685771D02*
X147690476Y-29733390D01*
X147690476Y-29733390D02*
X147738095Y-29781009D01*
X147738095Y-29781009D02*
X147785714Y-29876247D01*
X147785714Y-29876247D02*
X147785714Y-30114342D01*
X147785714Y-30114342D02*
X147738095Y-30209580D01*
X147738095Y-30209580D02*
X147690476Y-30257200D01*
X147690476Y-30257200D02*
X147595238Y-30304819D01*
X147595238Y-30304819D02*
X147309524Y-30304819D01*
X147309524Y-30304819D02*
X147214286Y-30257200D01*
X147214286Y-30257200D02*
X147166667Y-30209580D01*
X148357143Y-29733390D02*
X148261905Y-29685771D01*
X148261905Y-29685771D02*
X148214286Y-29638152D01*
X148214286Y-29638152D02*
X148166667Y-29542914D01*
X148166667Y-29542914D02*
X148166667Y-29495295D01*
X148166667Y-29495295D02*
X148214286Y-29400057D01*
X148214286Y-29400057D02*
X148261905Y-29352438D01*
X148261905Y-29352438D02*
X148357143Y-29304819D01*
X148357143Y-29304819D02*
X148547619Y-29304819D01*
X148547619Y-29304819D02*
X148642857Y-29352438D01*
X148642857Y-29352438D02*
X148690476Y-29400057D01*
X148690476Y-29400057D02*
X148738095Y-29495295D01*
X148738095Y-29495295D02*
X148738095Y-29542914D01*
X148738095Y-29542914D02*
X148690476Y-29638152D01*
X148690476Y-29638152D02*
X148642857Y-29685771D01*
X148642857Y-29685771D02*
X148547619Y-29733390D01*
X148547619Y-29733390D02*
X148357143Y-29733390D01*
X148357143Y-29733390D02*
X148261905Y-29781009D01*
X148261905Y-29781009D02*
X148214286Y-29828628D01*
X148214286Y-29828628D02*
X148166667Y-29923866D01*
X148166667Y-29923866D02*
X148166667Y-30114342D01*
X148166667Y-30114342D02*
X148214286Y-30209580D01*
X148214286Y-30209580D02*
X148261905Y-30257200D01*
X148261905Y-30257200D02*
X148357143Y-30304819D01*
X148357143Y-30304819D02*
X148547619Y-30304819D01*
X148547619Y-30304819D02*
X148642857Y-30257200D01*
X148642857Y-30257200D02*
X148690476Y-30209580D01*
X148690476Y-30209580D02*
X148738095Y-30114342D01*
X148738095Y-30114342D02*
X148738095Y-29923866D01*
X148738095Y-29923866D02*
X148690476Y-29828628D01*
X148690476Y-29828628D02*
X148642857Y-29781009D01*
X148642857Y-29781009D02*
X148547619Y-29733390D01*
D10*
X78500000Y-37500000D02*
X78500000Y-30413580D01*
X216500000Y-30413580D02*
X216500000Y-37500000D01*
X78500000Y-31000000D02*
X216500000Y-31000000D01*
X78500000Y-31000000D02*
X79626504Y-30413579D01*
X78500000Y-31000000D02*
X79626504Y-31586421D01*
X216500000Y-31000000D02*
X215373496Y-31586421D01*
X216500000Y-31000000D02*
X215373496Y-30413579D01*
M02*
