%TF.GenerationSoftware,KiCad,Pcbnew,9.0.6*%
%TF.CreationDate,2025-12-11T13:58:46+01:00*%
%TF.ProjectId,saturation_meter,73617475-7261-4746-996f-6e5f6d657465,1.0.0*%
%TF.SameCoordinates,Original*%
%TF.FileFunction,Profile,NP*%
%FSLAX46Y46*%
G04 Gerber Fmt 4.6, Leading zero omitted, Abs format (unit mm)*
G04 Created by KiCad (PCBNEW 9.0.6) date 2025-12-11 13:58:46*
%MOMM*%
%LPD*%
G01*
G04 APERTURE LIST*
%TA.AperFunction,Profile*%
%ADD10C,0.050000*%
%TD*%
%ADD11C,0.150000*%
G04 APERTURE END LIST*
D10*
X78620000Y-38000000D02*
X216620000Y-38000000D01*
X216620000Y-149000000D01*
X78620000Y-149000000D01*
X78620000Y-38000000D01*
D11*
X67424819Y-92630952D02*
X67424819Y-93202380D01*
X67424819Y-92916666D02*
X66424819Y-92916666D01*
X66424819Y-92916666D02*
X66567676Y-93011904D01*
X66567676Y-93011904D02*
X66662914Y-93107142D01*
X66662914Y-93107142D02*
X66710533Y-93202380D01*
X67424819Y-91678571D02*
X67424819Y-92249999D01*
X67424819Y-91964285D02*
X66424819Y-91964285D01*
X66424819Y-91964285D02*
X66567676Y-92059523D01*
X66567676Y-92059523D02*
X66662914Y-92154761D01*
X66662914Y-92154761D02*
X66710533Y-92249999D01*
X66424819Y-90773809D02*
X66424819Y-91249999D01*
X66424819Y-91249999D02*
X66901009Y-91297618D01*
X66901009Y-91297618D02*
X66853390Y-91249999D01*
X66853390Y-91249999D02*
X66805771Y-91154761D01*
X66805771Y-91154761D02*
X66805771Y-90916666D01*
X66805771Y-90916666D02*
X66853390Y-90821428D01*
X66853390Y-90821428D02*
X66901009Y-90773809D01*
X66901009Y-90773809D02*
X66996247Y-90726190D01*
X66996247Y-90726190D02*
X67234342Y-90726190D01*
X67234342Y-90726190D02*
X67329580Y-90773809D01*
X67329580Y-90773809D02*
X67377200Y-90821428D01*
X67377200Y-90821428D02*
X67424819Y-90916666D01*
X67424819Y-90916666D02*
X67424819Y-91154761D01*
X67424819Y-91154761D02*
X67377200Y-91249999D01*
X67377200Y-91249999D02*
X67329580Y-91297618D01*
X67329580Y-90297618D02*
X67377200Y-90249999D01*
X67377200Y-90249999D02*
X67424819Y-90297618D01*
X67424819Y-90297618D02*
X67377200Y-90345237D01*
X67377200Y-90345237D02*
X67329580Y-90297618D01*
X67329580Y-90297618D02*
X67424819Y-90297618D01*
X66424819Y-89345238D02*
X66424819Y-89821428D01*
X66424819Y-89821428D02*
X66901009Y-89869047D01*
X66901009Y-89869047D02*
X66853390Y-89821428D01*
X66853390Y-89821428D02*
X66805771Y-89726190D01*
X66805771Y-89726190D02*
X66805771Y-89488095D01*
X66805771Y-89488095D02*
X66853390Y-89392857D01*
X66853390Y-89392857D02*
X66901009Y-89345238D01*
X66901009Y-89345238D02*
X66996247Y-89297619D01*
X66996247Y-89297619D02*
X67234342Y-89297619D01*
X67234342Y-89297619D02*
X67329580Y-89345238D01*
X67329580Y-89345238D02*
X67377200Y-89392857D01*
X67377200Y-89392857D02*
X67424819Y-89488095D01*
X67424819Y-89488095D02*
X67424819Y-89726190D01*
X67424819Y-89726190D02*
X67377200Y-89821428D01*
X67377200Y-89821428D02*
X67329580Y-89869047D01*
D10*
X78120000Y-33500000D02*
X67533580Y-33500000D01*
X67533580Y-149000000D02*
X78120000Y-149000000D01*
X68120000Y-33500000D02*
X68120000Y-149000000D01*
X68120000Y-33500000D02*
X68706421Y-34626504D01*
X68120000Y-33500000D02*
X67533579Y-34626504D01*
X68120000Y-149000000D02*
X67533579Y-147873496D01*
X68120000Y-149000000D02*
X68706421Y-147873496D01*
D11*
X146953333Y-30304819D02*
X146381905Y-30304819D01*
X146667619Y-30304819D02*
X146667619Y-29304819D01*
X146667619Y-29304819D02*
X146572381Y-29447676D01*
X146572381Y-29447676D02*
X146477143Y-29542914D01*
X146477143Y-29542914D02*
X146381905Y-29590533D01*
X147286667Y-29304819D02*
X147905714Y-29304819D01*
X147905714Y-29304819D02*
X147572381Y-29685771D01*
X147572381Y-29685771D02*
X147715238Y-29685771D01*
X147715238Y-29685771D02*
X147810476Y-29733390D01*
X147810476Y-29733390D02*
X147858095Y-29781009D01*
X147858095Y-29781009D02*
X147905714Y-29876247D01*
X147905714Y-29876247D02*
X147905714Y-30114342D01*
X147905714Y-30114342D02*
X147858095Y-30209580D01*
X147858095Y-30209580D02*
X147810476Y-30257200D01*
X147810476Y-30257200D02*
X147715238Y-30304819D01*
X147715238Y-30304819D02*
X147429524Y-30304819D01*
X147429524Y-30304819D02*
X147334286Y-30257200D01*
X147334286Y-30257200D02*
X147286667Y-30209580D01*
X148477143Y-29733390D02*
X148381905Y-29685771D01*
X148381905Y-29685771D02*
X148334286Y-29638152D01*
X148334286Y-29638152D02*
X148286667Y-29542914D01*
X148286667Y-29542914D02*
X148286667Y-29495295D01*
X148286667Y-29495295D02*
X148334286Y-29400057D01*
X148334286Y-29400057D02*
X148381905Y-29352438D01*
X148381905Y-29352438D02*
X148477143Y-29304819D01*
X148477143Y-29304819D02*
X148667619Y-29304819D01*
X148667619Y-29304819D02*
X148762857Y-29352438D01*
X148762857Y-29352438D02*
X148810476Y-29400057D01*
X148810476Y-29400057D02*
X148858095Y-29495295D01*
X148858095Y-29495295D02*
X148858095Y-29542914D01*
X148858095Y-29542914D02*
X148810476Y-29638152D01*
X148810476Y-29638152D02*
X148762857Y-29685771D01*
X148762857Y-29685771D02*
X148667619Y-29733390D01*
X148667619Y-29733390D02*
X148477143Y-29733390D01*
X148477143Y-29733390D02*
X148381905Y-29781009D01*
X148381905Y-29781009D02*
X148334286Y-29828628D01*
X148334286Y-29828628D02*
X148286667Y-29923866D01*
X148286667Y-29923866D02*
X148286667Y-30114342D01*
X148286667Y-30114342D02*
X148334286Y-30209580D01*
X148334286Y-30209580D02*
X148381905Y-30257200D01*
X148381905Y-30257200D02*
X148477143Y-30304819D01*
X148477143Y-30304819D02*
X148667619Y-30304819D01*
X148667619Y-30304819D02*
X148762857Y-30257200D01*
X148762857Y-30257200D02*
X148810476Y-30209580D01*
X148810476Y-30209580D02*
X148858095Y-30114342D01*
X148858095Y-30114342D02*
X148858095Y-29923866D01*
X148858095Y-29923866D02*
X148810476Y-29828628D01*
X148810476Y-29828628D02*
X148762857Y-29781009D01*
X148762857Y-29781009D02*
X148667619Y-29733390D01*
D10*
X78620000Y-37500000D02*
X78620000Y-30413580D01*
X216620000Y-30413580D02*
X216620000Y-37500000D01*
X78620000Y-31000000D02*
X216620000Y-31000000D01*
X78620000Y-31000000D02*
X79746504Y-30413579D01*
X78620000Y-31000000D02*
X79746504Y-31586421D01*
X216620000Y-31000000D02*
X215493496Y-31586421D01*
X216620000Y-31000000D02*
X215493496Y-30413579D01*
M02*
