M48
; DRILL file {KiCad 9.0.6} date 2025-12-14T21:15:28+0100
; FORMAT={-:-/ absolute / metric / decimal}
; #@! TF.CreationDate,2025-12-14T21:15:28+01:00
; #@! TF.GenerationSoftware,Kicad,Pcbnew,9.0.6
; #@! TF.FileFunction,Plated,1,2,PTH
FMAT,2
METRIC
; #@! TA.AperFunction,Plated,PTH,ComponentDrill
T1C0.700
; #@! TA.AperFunction,Plated,PTH,ComponentDrill
T2C0.750
; #@! TA.AperFunction,Plated,PTH,ComponentDrill
T3C0.800
; #@! TA.AperFunction,Plated,PTH,ComponentDrill
T4C0.900
; #@! TA.AperFunction,Plated,PTH,ComponentDrill
T5C1.000
; #@! TA.AperFunction,Plated,PTH,ComponentDrill
T6C1.100
; #@! TA.AperFunction,Plated,PTH,ComponentDrill
T7C1.200
; #@! TA.AperFunction,Plated,PTH,ComponentDrill
T8C1.300
; #@! TA.AperFunction,Plated,PTH,ComponentDrill
T9C1.600
; #@! TA.AperFunction,Plated,PTH,ComponentDrill
T10C2.000
; #@! TA.AperFunction,Plated,PTH,ComponentDrill
T11C6.100
%
G90
G05
T1
X91.5Y-100.42
X91.5Y-105.5
X105.46Y-112.5
X110.54Y-112.5
X115.0Y-106.96
X115.0Y-112.04
T2
X95.5Y-95.46
X95.5Y-96.73
X95.5Y-98.0
T3
X86.5Y-108.0
X88.92Y-92.5
X90.0Y-114.0
X90.0Y-124.16
X91.5Y-108.0
X95.5Y-123.0
X95.5Y-133.16
X96.0Y-112.5
X96.0Y-115.0
X97.0Y-75.5
X98.5Y-120.37
X98.5Y-130.53
X98.5Y-141.5
X99.08Y-92.5
X101.5Y-111.5
X101.5Y-116.5
X101.54Y-125.45
X101.54Y-135.61
X101.54Y-144.53
X102.0Y-86.84
X102.0Y-97.0
X104.92Y-115.33
X104.92Y-117.87
X104.92Y-120.41
X104.92Y-122.95
X104.92Y-125.49
X104.92Y-128.03
X104.92Y-130.57
X107.16Y-75.5
X108.66Y-141.5
X111.7Y-144.53
X112.0Y-94.42
X112.0Y-104.58
X112.54Y-115.33
X112.54Y-117.87
X112.54Y-120.41
X112.54Y-122.95
X112.54Y-125.49
X112.54Y-128.03
X112.54Y-130.57
X118.04Y-117.95
X118.04Y-120.45
X118.04Y-125.45
X118.04Y-127.95
X124.38Y-127.5
X124.38Y-130.5
X130.5Y-100.88
X130.5Y-116.12
X139.62Y-127.5
X139.62Y-130.5
X140.0Y-105.51
X140.0Y-120.75
X140.0Y-133.5
X140.0Y-138.5
X143.5Y-120.92
X143.5Y-131.08
X143.5Y-133.5
X143.5Y-143.66
X152.5Y-120.92
X152.5Y-131.08
X152.5Y-133.42
X152.5Y-143.58
X156.0Y-105.51
X156.0Y-120.75
X156.0Y-133.5
X156.0Y-138.5
X160.0Y-119.92
X160.0Y-130.08
X160.26Y-134.5
X160.26Y-137.5
X163.88Y-116.0
X163.88Y-119.0
X175.5Y-134.5
X175.5Y-137.5
X178.92Y-122.0
X179.0Y-125.5
X179.0Y-129.0
X179.0Y-132.5
X179.12Y-116.0
X179.12Y-119.0
X181.0Y-71.5
X181.0Y-81.66
X184.0Y-125.5
X184.0Y-132.5
X189.08Y-122.0
X189.16Y-129.0
X189.586Y-117.192
X191.618Y-114.906
X208.382Y-114.906
X210.414Y-117.192
T4
X94.46Y-87.5
X94.5Y-81.0
X97.0Y-87.5
X97.04Y-81.0
T5
X86.5Y-111.46
X86.5Y-114.0
X91.0Y-138.96
X91.0Y-141.5
X91.0Y-144.04
X148.0Y-131.69
X148.0Y-134.23
X148.0Y-136.77
X148.0Y-139.31
T6
X82.75Y-103.84
X82.75Y-114.0
X92.0Y-73.0
X92.0Y-77.0
X95.46Y-108.45
X98.0Y-108.45
X100.54Y-108.45
X105.5Y-134.5
X113.0Y-48.25
X115.0Y-84.92
X115.0Y-87.46
X115.0Y-90.0
X117.0Y-48.25
X125.0Y-113.34
X125.0Y-123.5
X147.0Y-46.5
X148.0Y-123.5
X151.0Y-46.5
X155.0Y-79.0
X159.0Y-79.0
X163.0Y-79.0
X167.0Y-79.0
X180.0Y-46.5
X184.0Y-46.5
X184.0Y-98.0
X186.54Y-98.0
X189.08Y-98.0
X200.75Y-74.5
X204.0Y-113.0
X204.75Y-74.5
X208.5Y-110.5
X208.75Y-74.5
X212.75Y-74.5
X213.0Y-113.0
T7
X107.0Y-79.34
X107.0Y-99.66
T8
X84.032Y-73.75
X84.032Y-78.75
T9
X84.5Y-84.38
X84.5Y-99.62
X115.0Y-63.26
X115.0Y-78.5
X187.5Y-75.88
X187.5Y-91.12
T10
X97.5Y-51.0
X97.5Y-61.0
X132.5Y-51.0
X132.5Y-61.0
X165.5Y-51.0
X165.5Y-61.0
X198.5Y-51.018
X198.5Y-61.018
T11
X137.75Y-94.0
X156.75Y-94.0
M30
