<?xml version="1.0" encoding="UTF-8" standalone="no"?>
<svg
   viewBox="0 0 545.00786 442.96428"
   width="545.00787"
   height="442.96426"
   version="1.1"
   id="svg19"
   xmlns="http://www.w3.org/2000/svg"
   xmlns:svg="http://www.w3.org/2000/svg">
  <desc
     id="desc1">top.DXF - scale = 1.000000, origin = (0.000000, 0.000000), method = manual</desc>
  <defs
     id="defs4" />
  <g
     id="g19"
     transform="translate(-120.60908,-84.626309)">
    <path
       d="m 376.86105,262.64206 a 19.653545,19.653545 0 0 0 -39.30709,0 19.653545,19.653545 0 0 0 39.30709,0 z"
       style="fill:none;stroke:#ff0000;stroke-width:0.755906;stroke-linecap:round;stroke-dasharray:none;stroke-opacity:1"
       id="path5" />
    <path
       d="m 448.67207,262.64206 a 19.653543,19.653543 0 0 0 -39.30708,0 19.653543,19.653543 0 0 0 39.30708,0 z"
       style="fill:none;stroke:#ff0000;stroke-width:0.755906;stroke-linecap:round;stroke-dasharray:none;stroke-opacity:1"
       id="path6" />
    <path
       d="m 153.86892,500.75229 a 6.425197,6.425197 0 0 0 -12.85039,0 6.425197,6.425197 0 0 0 12.85039,0 z"
       style="fill:none;stroke:#ff0000;stroke-width:0.755906;stroke-linecap:round;stroke-dasharray:none;stroke-opacity:1"
       id="path7" />
    <path
       d="m 645.20751,500.75229 a 6.4252,6.4252 0 0 0 -12.8504,0 6.4252,6.4252 0 0 0 12.8504,0 z"
       style="fill:none;stroke:#ff0000;stroke-width:0.755906;stroke-linecap:round;stroke-dasharray:none;stroke-opacity:1"
       id="path8" />
    <path
       d="m 645.20751,111.46095 a 6.4252,6.4252 0 0 0 -12.8504,0 6.4252,6.4252 0 0 0 12.8504,0 z"
       style="fill:none;stroke:#ff0000;stroke-width:0.755906;stroke-linecap:round;stroke-dasharray:none;stroke-opacity:1"
       id="path9" />
    <path
       d="m 153.86892,111.46095 a 6.425197,6.425197 0 0 0 -12.85039,0 6.425197,6.425197 0 0 0 12.85039,0 z"
       style="fill:none;stroke:#ff0000;stroke-width:0.755906;stroke-linecap:round;stroke-dasharray:none;stroke-opacity:1"
       id="path10" />
    <path
       d="m 665.239,115.24048 c 0,-20.157478 -10.07874,-30.236218 -30.23622,-30.236218"
       style="fill:none;stroke:#ff0000;stroke-width:0.755906;stroke-linecap:round;stroke-dasharray:none;stroke-opacity:1"
       id="path11" />
    <path
       d="m 635.00278,527.20898 c 20.15748,0 30.23622,-10.07874 30.23622,-30.23622"
       style="fill:none;stroke:#ff0000;stroke-width:0.755906;stroke-linecap:round;stroke-dasharray:none;stroke-opacity:1"
       id="path12" />
    <path
       d="m 120.98703,496.97276 c 0,20.15748 10.07874,30.23622 30.23622,30.23622"
       style="fill:none;stroke:#ff0000;stroke-width:0.755906;stroke-linecap:round;stroke-dasharray:none;stroke-opacity:1"
       id="path13" />
    <path
       d="m 151.22325,85.004262 c -20.15748,0 -30.23622,10.07874 -30.23622,30.236218"
       style="fill:none;stroke:#ff0000;stroke-width:0.755906;stroke-linecap:round;stroke-dasharray:none;stroke-opacity:1"
       id="path14" />
    <path
       style="fill:none;stroke:#ff0000;stroke-width:0.755906;stroke-linecap:round;stroke-dasharray:none;stroke-opacity:1"
       d="M 635.00273,85.004612 H 151.22326"
       id="path15" />
    <path
       style="fill:none;stroke:#ff0000;stroke-width:0.755906;stroke-linecap:round;stroke-dasharray:none;stroke-opacity:1"
       d="m 665.23873,496.97261 v -381.732"
       id="path16" />
    <path
       style="fill:none;stroke:#ff0000;stroke-width:0.755906;stroke-linecap:round;stroke-dasharray:none;stroke-opacity:1"
       d="M 151.22326,527.21261 H 635.00273"
       id="path17" />
    <path
       style="fill:none;stroke:#ff0000;stroke-width:0.755906;stroke-linecap:round;stroke-dasharray:none;stroke-opacity:1"
       d="m 120.98703,115.24061 v 381.732"
       id="path18" />
    <text
       xml:space="preserve"
       style="font-size:42.6667px;text-align:start;writing-mode:lr-tb;direction:ltr;text-anchor:start;fill:#000000;stroke:#ff0000;stroke-width:0.755906;stroke-dasharray:none;stroke-opacity:1"
       x="208.64676"
       y="127.27453"
       id="text19"><tspan
         id="tspan19"
         x="208.64676"
         y="127.27453"
         style="font-style:normal;font-variant:normal;font-weight:bold;font-stretch:normal;font-size:42.6667px;font-family:Consolas;-inkscape-font-specification:'Consolas Bold';fill:#000000;fill-opacity:1;stroke:none;stroke-opacity:1">Saturation meter</tspan></text>
    <text
       xml:space="preserve"
       style="font-size:26.6667px;text-align:start;writing-mode:lr-tb;direction:ltr;text-anchor:start;fill:#000000;stroke:#ff0000;stroke-width:0.755906;stroke-dasharray:none;stroke-opacity:1"
       x="171.86107"
       y="234.41577"
       id="text19-9"><tspan
         id="tspan19-4"
         x="171.86107"
         y="234.41577"
         style="font-style:normal;font-variant:normal;font-weight:bold;font-stretch:normal;font-size:26.6667px;font-family:Consolas;-inkscape-font-specification:'Consolas Bold';text-align:center;text-anchor:middle;fill:#000000;fill-opacity:1;stroke:none;stroke-opacity:1">12-20V</tspan><tspan
         x="171.86107"
         y="268.93994"
         style="font-style:normal;font-variant:normal;font-weight:bold;font-stretch:normal;font-size:26.6667px;font-family:Consolas;-inkscape-font-specification:'Consolas Bold';text-align:center;text-anchor:middle;fill:#000000;fill-opacity:1;stroke:none;stroke-opacity:1"
         id="tspan20">2A</tspan></text>
  </g>
</svg>
